<svg xmlns="http://www.w3.org/2000/svg" viewBox="0 0 481.998 481.061"><defs><style>.a{fill:#37474f;}.b{fill:#263238;}.c{fill:#455a64;}.aa,.ab,.ac,.ad,.ae,.af,.ag,.ah,.ai,.aj,.ak,.al,.am,.an,.ao,.ap,.aq,.ar,.as,.at,.au,.av,.aw,.ax,.ay,.az,.ba,.bb,.bc,.bd,.be,.bf,.bg,.bh,.bi,.bj,.bk,.bl,.bm,.bn,.bo,.bp,.bq,.br,.bs,.bt,.bu,.bv,.bw,.bx,.by,.bz,.ca,.cb,.cc,.cd,.ce,.cf,.cg,.ch,.ci,.cj,.ck,.cl,.cm,.cn,.co,.cp,.cq,.cr,.cs,.ct,.cu,.cv,.cw,.cx,.cy,.cz,.d,.da,.db,.dc,.dd,.de,.df,.dg,.dh,.h,.j,.l,.m,.n,.o,.p,.q,.r,.s,.t,.u,.v,.w,.x,.y,.z{fill:#ba68c8;}.dn,.dp,.dr,.ds,.dx,.dy,.e,.g,.i{fill:#fff;}.do,.e,.f{opacity:0.2;}.dz,.g{opacity:0.35;}.du,.h{opacity:0.15;}.i{opacity:0.95;}.dm,.dt,.j{opacity:0.1;}.k{fill:#e0e0e0;}.l{opacity:0.99;}.m{opacity:0.98;}.n{opacity:0.971;}.o{opacity:0.961;}.p{opacity:0.951;}.q{opacity:0.941;}.r{opacity:0.931;}.s{opacity:0.922;}.t{opacity:0.912;}.u{opacity:0.902;}.v{opacity:0.892;}.w{opacity:0.882;}.x{opacity:0.873;}.y{opacity:0.863;}.z{opacity:0.853;}.aa{opacity:0.843;}.ab{opacity:0.833;}.ac{opacity:0.824;}.ad{opacity:0.814;}.ae{opacity:0.804;}.af{opacity:0.794;}.ag{opacity:0.784;}.ah{opacity:0.775;}.ai{opacity:0.765;}.aj{opacity:0.755;}.ak{opacity:0.745;}.al{opacity:0.735;}.am{opacity:0.726;}.an{opacity:0.716;}.ao{opacity:0.706;}.ap{opacity:0.696;}.aq{opacity:0.686;}.ar{opacity:0.677;}.as{opacity:0.667;}.at{opacity:0.657;}.au{opacity:0.647;}.av{opacity:0.637;}.aw{opacity:0.628;}.ax{opacity:0.618;}.ay{opacity:0.608;}.az{opacity:0.598;}.ba{opacity:0.588;}.bb{opacity:0.579;}.bc{opacity:0.569;}.bd{opacity:0.559;}.be{opacity:0.549;}.bf{opacity:0.539;}.bg{opacity:0.53;}.bh{opacity:0.52;}.bi{opacity:0.51;}.bj{opacity:0.5;}.bk{opacity:0.49;}.bl{opacity:0.48;}.bm{opacity:0.471;}.bn{opacity:0.461;}.bo{opacity:0.451;}.bp{opacity:0.441;}.bq{opacity:0.431;}.br{opacity:0.422;}.bs{opacity:0.412;}.bt{opacity:0.402;}.bu{opacity:0.392;}.bv{opacity:0.382;}.bw{opacity:0.373;}.bx{opacity:0.363;}.by{opacity:0.353;}.bz{opacity:0.343;}.ca{opacity:0.333;}.cb{opacity:0.324;}.cc{opacity:0.314;}.cd{opacity:0.304;}.ce{opacity:0.294;}.cf{opacity:0.284;}.cg{opacity:0.275;}.ch{opacity:0.265;}.ci{opacity:0.255;}.cj{opacity:0.245;}.ck{opacity:0.235;}.cl{opacity:0.226;}.cm{opacity:0.216;}.cn{opacity:0.206;}.co{opacity:0.196;}.cp{opacity:0.186;}.cq{opacity:0.177;}.cr{opacity:0.167;}.cs{opacity:0.157;}.ct{opacity:0.147;}.cu{opacity:0.137;}.cv{opacity:0.128;}.cw{opacity:0.118;}.cx{opacity:0.108;}.cy{opacity:0.098;}.cz{opacity:0.088;}.da{opacity:0.079;}.db{opacity:0.069;}.dc{opacity:0.059;}.dd{opacity:0.049;}.de{opacity:0.039;}.df{opacity:0.03;}.dg{opacity:0.02;}.dh{opacity:0.01;}.di{fill:#fafafa;}.dj,.dr{opacity:0.6;}.dk,.dx{opacity:0.5;}.dl,.dv,.dy{opacity:0.3;}.dn{opacity:0.7;}.dq{opacity:0.05;}.ds{opacity:0.8;}.dw,.ec{opacity:0.4;}.ea{opacity:0.25;}.eb{opacity:0.45;}</style></defs><path class="a" d="M439.038,400.36c54.807-73.02,59.576-215.182.357-312.788C367.563-30.823,209.076-21.54,93.681,69.777-15.246,155.974-30.86,352.583,55.655,423.153q6.827,5.568,14.093,10.515,7.029,4.994,15.079,9.653c70.078,40.46,176.311,47.316,258.653,20.577a238.382,238.382,0,0,0,38.84-15.55,166.284,166.284,0,0,0,28.738-18.809C422.818,420.43,432.143,410.606,439.038,400.36Z"/><path d="M262.046,206.437v141.41H9.056c-10.141-35.06-11.72-75.72-4.96-116.04,39.6-32.38,111.68-90.7,116.14-90.46,4.96.27,14.3,8.11,14.3,8.11s30.369-32.13,36.29-32.89c3.75-.48,39.25,35.6,64.839,62.19C250.526,194.2,262.046,206.437,262.046,206.437Z"/><path class="b" d="M164.141,129.216c-4.006,5.217,3.906,1.174,7.705,2.352s-14.033,14.075-10.871,17.145c1.757,1.707,13.16-2.874,11.015,1.289-.69,1.338-12.422,10.96-6.948,11.69,3.265.435,7.74-1.339,5.859,3.522a25.815,25.815,0,0,1-5.5,8.574l-30.873-24.33s29-30.685,35.851-32.783l.444-.105C172.073,117,168.148,124,164.141,129.216Z"/><path class="c" d="M173.205,136.153c-3.748.312-9.837,4.089-12.381,1.7s-8.255-6.636-10.75-4.182c8.437-8.248,17.745-16.72,20.754-17.105,1.98-.253,12.825,9.7,26.384,23.063-5.692-3.479-9.592.773-12.983,1.713S176.952,135.841,173.205,136.153Z"/><path class="b" d="M124.326,191.667c-2.171,2.67-87.13,86.78-122.31,121.57a282.9,282.9,0,0,1,2.08-81.43c39.63-32.39,111.7-90.7,116.14-90.46.189.01.4.05.6.08,2,.93-3.13,7.3-4.21,9.64-1.17,2.53,9.84.01,10.3,1.7s-14.929,13.32-15.109,15.39,13.82-1.93,14.24-.08-15.94,15.13-16.18,19.01c-.12,2.12,5.9.53,10.559-1.19C123.675,184.7,129.036,185.9,124.326,191.667Z"/><path class="c" d="M134.534,149.458l11.491,9.056c-3.47-2.735-6.617,1.7-11.492,1.518s-7.6-4.542-12.281-3.17c-3.834,1.123-5.341,2.851-8.044,3.3-4.957.828-3.581-2-6.385-2.615-1.9-.417-11.575,1.109-15.509,2.829,14.1-10.863,25.657-19.154,27.921-19.032a7.682,7.682,0,0,1,1.762.35,19.05,19.05,0,0,1,3.356,1.442c.311.166.621.337.933.516a58.822,58.822,0,0,1,5.93,3.976c1.406,1.062,2.317,1.828,2.317,1.828Z"/><path d="M466.266,347.847H186.526v-124.4s24.97-23.13,49.139-44.69c21.171-18.88,41.721-36.56,44.311-36.42,4.209.23,28.55,19.1,28.55,19.1s28.36-26.62,33.4-27.27c4.071-.51,105.171,79.05,139.961,106.47v.01C482.856,278.667,477.476,315.777,466.266,347.847Z"/><path class="b" d="M336.243,144.92c-3.4,4.434,3.319,1,6.548,2s-11.265,9.764-8.578,12.374c1.494,1.45,8.738-2.035,6.914,1.5s-13.635,14.16-13.635,14.16l-18.963-13.515s27.2-25.4,33.019-27.181l.378-.089C342.984,134.533,339.648,140.486,336.243,144.92Z"/><path class="b" d="M278.093,152.044c-.991,2.152,7.177-1.437,7.563,0s-11.07,13.639-11.216,15.4,10.126-3.968,10.481-2.389-13.551,12.854-13.75,16.156c-.108,1.8,5.007.446,8.974-1.016,2.751-1.015,7.306,0,3.307,4.906-2.347,2.881-96.137,87.133-96.923,87.822V223.449s40.984-37.871,53.809-49.323c16.666-14.883,36.508-31.958,39.635-31.79a2.811,2.811,0,0,1,.557.108C282.109,143.351,279,150.075,278.093,152.044Z"/><path class="c" d="M279.973,142.336c2.643.142,13.191,7.612,20.7,13.167-2.135.454-5.786,2.819-8.544,2.714-4.143-.156-7.31-4.135-10.266-2.417s-6.378,6.022-10.177,6.674c-6.1,1.047-7.034-1.6-10.3-.819a73.568,73.568,0,0,1-8.316,1.24C265.847,151.806,277.625,142.21,279.973,142.336Z"/><path class="c" d="M343.946,150.816c-3.185.265-8.36,3.475-10.523,1.448s-4.932-3.587-7.547-2.787-6.5,2.109-6.5,2.109-.021-.008-.033-.011c8.584-7.653,19.619-17.024,22.583-17.4,1.643-.21,12.228,7.345,25.744,17.618-6.752-1.39-8.251,4.534-12.633,3.52C350.476,154.253,347.131,150.551,343.946,150.816Z"/><path d="M466.266,347.847c-6.9,19.75-16.02,37.57-27.23,52.51-6.89,10.25-16.22,20.07-27.98,29.18a165.79,165.79,0,0,1-28.74,18.81,237.5,237.5,0,0,1-38.84,15.55c-82.34,26.74-188.571,19.88-258.65-20.58q-8.055-4.65-15.08-9.65-7.246-4.95-14.091-10.51c-22.22-18.13-37.709-44.57-46.6-75.31Z"/><path class="d" d="M429.443,248.106c6.224,4.593,34.746,3.961,41.169,0,.566-2.484.278-8.02-.61-15.3l-7.654,4.116,6.922-9.7c-1.009-7.056-2.419-15.2-4.071-23.541l-4.738,2.64,4.05-6.079c-.322-1.564-.644-3.128-.976-4.693l-5.4,2.652,4.637-6.2c-1.376-6.3-2.84-12.48-4.315-18.149l-4.305,1.254s1.62-2.43,3.328-4.948c-1.508-5.58-3.017-10.539-4.437-14.467a3.2,3.2,0,0,0-6.024,0c-1.908,5.281-3.983,12.459-6.024,20.5l3.816,6.4-4.426-3.916c-.921,3.716-1.831,7.588-2.7,11.515l6.113,10.927-7.366-5.147c-1.221,5.769-2.352,11.56-3.351,17.106l5.98,5.936-6.634-2.13c-.122.676-.233,1.342-.344,2l6.123,8.253-6.844-3.749C429.521,235.2,428.656,244.645,429.443,248.106Z"/><path class="e" d="M429.443,248.106c6.224,4.593,34.746,3.961,41.169,0,.566-2.484.278-8.02-.61-15.3l-7.654,4.116,6.922-9.7c-1.009-7.056-2.419-15.2-4.071-23.541l-4.738,2.64,4.05-6.079c-.322-1.564-.644-3.128-.976-4.693l-5.4,2.652,4.637-6.2c-1.376-6.3-2.84-12.48-4.315-18.149l-4.305,1.254s1.62-2.43,3.328-4.948c-1.508-5.58-3.017-10.539-4.437-14.467a3.2,3.2,0,0,0-6.024,0c-1.908,5.281-3.983,12.459-6.024,20.5l3.816,6.4-4.426-3.916c-.921,3.716-1.831,7.588-2.7,11.515l6.113,10.927-7.366-5.147c-1.221,5.769-2.352,11.56-3.351,17.106l5.98,5.936-6.634-2.13c-.122.676-.233,1.342-.344,2l6.123,8.253-6.844-3.749C429.521,235.2,428.656,244.645,429.443,248.106Z"/><path class="a" d="M448.519,221.618l-8.685-16.351,8.833,10.829,1.362-50.732,1.061,30.87,6.184-8.933-5.993,14.508,1.075,31.268,11.784-10.863-11.628,15.412.987,42.94c0,1.824-6.18,1.824-6.18,0l1.2-58.949Z"/><path class="d" d="M397.973,198.6c6.6,4.863,36.81,4.186,43.622,0,.472-2.052.39-6.073-.113-11.408l-7.848,2.842,7.294-7.849c-.83-6.853-2.144-15.142-3.765-23.893l-4.432,1.846,3.858-4.893c-.164-.862-.339-1.724-.5-2.586l-10.547,5.366L434.66,145.6c-1.416-6.822-2.944-13.655-4.514-20.057l-6.853,5.725,5.93-9.377c-.431-1.713-.872-3.385-1.3-5.006l-6.063,3.293,4.965-7.284c-1.313-4.658-2.616-8.813-3.847-12.219a3.394,3.394,0,0,0-6.381,0c-1.847,5.109-3.837,11.88-5.817,19.5,1.723,4,3.088,7.13,3.088,7.13l-4.371-2.021c-.482,1.939-.954,3.929-1.426,5.94,2.073,6.35,4.658,14.312,4.658,14.476-.133-.247-3.191-5.715-5.653-10.116C401.123,162.015,396.383,191.643,397.973,198.6Z"/><path class="f" d="M397.973,198.6c6.6,4.863,36.81,4.186,43.622,0,.472-2.052.39-6.073-.113-11.408l-7.848,2.842,7.294-7.849c-.83-6.853-2.144-15.142-3.765-23.893l-4.432,1.846,3.858-4.893c-.164-.862-.339-1.724-.5-2.586l-10.547,5.366L434.66,145.6c-1.416-6.822-2.944-13.655-4.514-20.057l-6.853,5.725,5.93-9.377c-.431-1.713-.872-3.385-1.3-5.006l-6.063,3.293,4.965-7.284c-1.313-4.658-2.616-8.813-3.847-12.219a3.394,3.394,0,0,0-6.381,0c-1.847,5.109-3.837,11.88-5.817,19.5,1.723,4,3.088,7.13,3.088,7.13l-4.371-2.021c-.482,1.939-.954,3.929-1.426,5.94,2.073,6.35,4.658,14.312,4.658,14.476-.133-.247-3.191-5.715-5.653-10.116C401.123,162.015,396.383,191.643,397.973,198.6Z"/><path class="a" d="M418.183,170.528l-9.2-17.325,9.359,11.475,1.443-53.755,1.124,32.709,6.553-9.465-6.35,15.373,1.139,33.131,12.486-11.511-12.32,16.331,1.045,53.575c0,1.933-6.548,1.933-6.548,0l1.271-70.538Z"/><path class="d" d="M48.586,204.662c6.855,4.9,38.262,4.221,45.341,0a32.513,32.513,0,0,0,.139-8.39L83.352,201.03,93.6,191.205c-.608-5.521-1.61-12.219-2.889-19.474L86.8,173.764l3.572-3.984c-.736-4.1-1.557-8.349-2.442-12.652l-6.375,4.964,5.693-8.256c-.181-.9-.373-1.8-.565-2.683l-8.721,6.966,7.388-13.035c-1.364-6.027-2.8-11.95-4.243-17.482l-5.693,4.19c.139-.237,2.41-3.984,4.691-7.885-1.876-6.9-3.763-13.024-5.522-17.74a3.576,3.576,0,0,0-6.642,0c-1.674,4.489-3.465,10.238-5.256,16.739v.011l3.475,7.389-4.147-4.913c-1.119,4.16-2.228,8.577-3.3,13.107l7.451,15.893-8.8-10.083c-.139.619-.288,1.249-.416,1.879l3.582,8.2-4.169-5.583c-1.513,6.925-2.91,13.891-4.1,20.475l10.331,12.054L51.39,174.115c-.256,1.517-.5,3.013-.735,4.468L55.9,184.2l-5.864-1.631C48.48,193.145,47.819,201.4,48.586,204.662Z"/><path class="g" d="M48.586,204.662c6.855,4.9,38.262,4.221,45.341,0a32.513,32.513,0,0,0,.139-8.39L83.352,201.03,93.6,191.205c-.608-5.521-1.61-12.219-2.889-19.474L86.8,173.764l3.572-3.984c-.736-4.1-1.557-8.349-2.442-12.652l-6.375,4.964,5.693-8.256c-.181-.9-.373-1.8-.565-2.683l-8.721,6.966,7.388-13.035c-1.364-6.027-2.8-11.95-4.243-17.482l-5.693,4.19c.139-.237,2.41-3.984,4.691-7.885-1.876-6.9-3.763-13.024-5.522-17.74a3.576,3.576,0,0,0-6.642,0c-1.674,4.489-3.465,10.238-5.256,16.739v.011l3.475,7.389-4.147-4.913c-1.119,4.16-2.228,8.577-3.3,13.107l7.451,15.893-8.8-10.083c-.139.619-.288,1.249-.416,1.879l3.582,8.2-4.169-5.583c-1.513,6.925-2.91,13.891-4.1,20.475l10.331,12.054L51.39,174.115c-.256,1.517-.5,3.013-.735,4.468L55.9,184.2l-5.864-1.631C48.48,193.145,47.819,201.4,48.586,204.662Z"/><path class="a" d="M69.6,178.829l-9.562-18,9.725,11.924,1.5-55.86,1.168,33.99,6.81-9.836-6.6,15.975,1.183,34.428L86.8,179.485l-12.8,16.97,1.086,48.034c0,2.008-6.8,2.008-6.8,0L69.6,178.828Z"/><path class="d" d="M15.2,253.336c6.536,4.027,35.574,4.666,41.912,0,.576-2.535.279-8.226-.629-15.688l-8.217,3.506,7.579-8.415c-.729-5.115-1.664-10.824-2.752-16.784l-5.034,2.2,4.7-3.982q-.392-2.078-.791-4.181l-8.406,4.846,7.552-9.152c-.935-4.639-1.933-9.3-2.976-13.863l-4.335,2.331,3.543-6.1c-1.079-4.441-3.137-12.4-4.224-16.3l-4.415,3.507,3.731-5.916c-1.1-3.8-2.184-7.21-3.218-10.078a3.262,3.262,0,0,0-6.132,0c-1.582,4.369-3.272,10.006-4.953,16.353v.009l3.425,7.786-4.558-3.453c-1.186,4.684-2.355,9.647-3.488,14.717v.009l5.745,14.492-6.887-9.215c-.4,1.933-.809,3.875-1.2,5.808l4.1,8.046-4.693-5.034c-1.123,5.736-2.139,11.363-2.994,16.613v.01l9.377,14.725-10.149-9.7c-.243,1.582-.459,3.12-.657,4.594l7.075,8.684L15.6,239.626C14.869,246.117,14.671,251.025,15.2,253.336Z"/><path class="e" d="M15.2,253.336c6.536,4.027,35.574,4.666,41.912,0,.576-2.535.279-8.226-.629-15.688l-8.217,3.506,7.579-8.415c-.729-5.115-1.664-10.824-2.752-16.784l-5.034,2.2,4.7-3.982q-.392-2.078-.791-4.181l-8.406,4.846,7.552-9.152c-.935-4.639-1.933-9.3-2.976-13.863l-4.335,2.331,3.543-6.1c-1.079-4.441-3.137-12.4-4.224-16.3l-4.415,3.507,3.731-5.916c-1.1-3.8-2.184-7.21-3.218-10.078a3.262,3.262,0,0,0-6.132,0c-1.582,4.369-3.272,10.006-4.953,16.353v.009l3.425,7.786-4.558-3.453c-1.186,4.684-2.355,9.647-3.488,14.717v.009l5.745,14.492-6.887-9.215c-.4,1.933-.809,3.875-1.2,5.808l4.1,8.046-4.693-5.034c-1.123,5.736-2.139,11.363-2.994,16.613v.01l9.377,14.725-10.149-9.7c-.243,1.582-.459,3.12-.657,4.594l7.075,8.684L15.6,239.626C14.869,246.117,14.671,251.025,15.2,253.336Z"/><path class="a" d="M25.269,217.419l8.8,12.454L34.991,203l-4.748-16.068L35.166,197.9l.99-28.8,1.115,41.553,4.94-5.9-4.794,11.354.634,23.582,10.215-10.159L38.236,246.6l.678,30.6c0,1.857-6.291,1.857-6.291,0L33.791,237.9Z"/><path class="d" d="M85.052,211.776c5.493,3.391,29.879,3.925,35.2,0,.406-1.78.3-5.416-.195-10.239L114.6,202.58l5.086-4.4c-.238-1.873-.509-3.873-.823-5.967l-10.12,4.043,9.637-7.137c-1.025-6.434-2.356-13.6-3.857-20.742l-7.823,6.256,7.1-9.672c-.619-2.856-1.263-5.7-1.916-8.459l-6.357,3.975,5.6-7.145c-.61-2.475-1.221-4.874-1.831-7.163l-3.772,4.128,2.5-8.731c-.958-3.323-1.9-6.306-2.8-8.79a2.737,2.737,0,0,0-5.153,0c-1.5,4.145-3.12,9.646-4.722,15.843v.008l2.857,6.129-3.747-2.594c-1.195,4.823-2.364,9.943-3.458,15.1v.008l5.747,11.867-6.68-7.315c-.5,2.484-.983,4.95-1.424,7.375l3.713,5.577-4.28-2.5c-.924,5.2-1.7,10.129-2.272,14.452v.008l5.967,9.46-6.637-3.577C84.739,206.9,84.679,210.132,85.052,211.776Z"/><path class="f" d="M85.052,211.776c5.493,3.391,29.879,3.925,35.2,0,.406-1.78.3-5.416-.195-10.239L114.6,202.58l5.086-4.4c-.238-1.873-.509-3.873-.823-5.967l-10.12,4.043,9.637-7.137c-1.025-6.434-2.356-13.6-3.857-20.742l-7.823,6.256,7.1-9.672c-.619-2.856-1.263-5.7-1.916-8.459l-6.357,3.975,5.6-7.145c-.61-2.475-1.221-4.874-1.831-7.163l-3.772,4.128,2.5-8.731c-.958-3.323-1.9-6.306-2.8-8.79a2.737,2.737,0,0,0-5.153,0c-1.5,4.145-3.12,9.646-4.722,15.843v.008l2.857,6.129-3.747-2.594c-1.195,4.823-2.364,9.943-3.458,15.1v.008l5.747,11.867-6.68-7.315c-.5,2.484-.983,4.95-1.424,7.375l3.713,5.577-4.28-2.5c-.924,5.2-1.7,10.129-2.272,14.452v.008l5.967,9.46-6.637-3.577C84.739,206.9,84.679,210.132,85.052,211.776Z"/><path class="a" d="M103.946,189.133l7.425-13.98-7.552,9.259-1.164-43.375-.907,26.393-5.288-7.638,5.124,12.405-.919,26.733L90.59,189.642l9.941,13.178-.843,42.01c0,1.56,5.284,1.56,5.284,0l-1.026-55.7Z"/><path class="d" d="M365.1,211.776c5.493,3.391,29.88,3.925,35.2,0,.407-1.78.3-5.416-.195-10.239l-5.459,1.043,5.086-4.4c-.237-1.873-.509-3.873-.822-5.967l-10.121,4.043,9.638-7.137c-1.026-6.434-2.357-13.6-3.857-20.742l-7.824,6.256,7.1-9.672c-.619-2.856-1.263-5.7-1.915-8.459l-6.358,3.975,5.6-7.145c-.61-2.475-1.22-4.874-1.831-7.163l-3.772,4.128,2.5-8.731c-.958-3.323-1.9-6.306-2.8-8.79a2.737,2.737,0,0,0-5.154,0c-1.5,4.145-3.119,9.646-4.721,15.843v.008l2.856,6.129-3.746-2.594c-1.2,4.823-2.365,9.943-3.459,15.1v.008l5.747,11.867-6.679-7.315c-.5,2.484-.983,4.95-1.424,7.375l3.713,5.577-4.281-2.5c-.924,5.2-1.7,10.129-2.272,14.452v.008l5.967,9.46-6.636-3.577C364.784,206.9,364.724,210.132,365.1,211.776Z"/><path class="g" d="M365.1,211.776c5.493,3.391,29.88,3.925,35.2,0,.407-1.78.3-5.416-.195-10.239l-5.459,1.043,5.086-4.4c-.237-1.873-.509-3.873-.822-5.967l-10.121,4.043,9.638-7.137c-1.026-6.434-2.357-13.6-3.857-20.742l-7.824,6.256,7.1-9.672c-.619-2.856-1.263-5.7-1.915-8.459l-6.358,3.975,5.6-7.145c-.61-2.475-1.22-4.874-1.831-7.163l-3.772,4.128,2.5-8.731c-.958-3.323-1.9-6.306-2.8-8.79a2.737,2.737,0,0,0-5.154,0c-1.5,4.145-3.119,9.646-4.721,15.843v.008l2.856,6.129-3.746-2.594c-1.2,4.823-2.365,9.943-3.459,15.1v.008l5.747,11.867-6.679-7.315c-.5,2.484-.983,4.95-1.424,7.375l3.713,5.577-4.281-2.5c-.924,5.2-1.7,10.129-2.272,14.452v.008l5.967,9.46-6.636-3.577C364.784,206.9,364.724,210.132,365.1,211.776Z"/><path class="a" d="M383.991,189.133l7.425-13.98-7.552,9.259L382.7,141.037l-.907,26.393-5.288-7.638,5.124,12.405-.919,26.733-10.075-9.288,9.941,13.178-.843,42.01c0,1.56,5.284,1.56,5.284,0l-1.026-55.7Z"/><path class="c" d="M246.929,357.749H465.191c6.138,0,9.645-7.379,5.449-11.859q-.25-.267-.527-.515c7.128-2.8,6.694-12.949,2.32-15.037,6.607-4.709,6.559-16.915-1.835-19.532,5.794-5.805,4.041-18.306-4.357-19.078,2.054-5.13,1.044-12.151-5.544-13.446,2.087-6.289-3.733-10.65-9.569-8.391-.254-6.629-9.642-7.01-11.756-2.344.113-2.566-3.729-7.319-6.194-7.329,4.257-3.332,3.08-10.009-.571-10.9,4.967-3.768,2.306-12.368-3.627-12.285,3.98-6.27-4.508-12.822-9.78-10.889,2.986-7.05-10.967-12.656-13.987-5.188.119-.3-1.171-1.521-1.384-1.725a8.917,8.917,0,0,0-1.806-1.33,11.139,11.139,0,0,0-4.361-1.312,14.61,14.61,0,0,0-9.126,2.17,10.8,10.8,0,0,0-3.525,3.524,8.687,8.687,0,0,0-.945,2.244c-.289,1.1.011,2.174-.29,3.251a7.1,7.1,0,0,0-8.614,4.922,19.13,19.13,0,0,0-1.972-4.832,8.25,8.25,0,0,0-3.154-2.987c-1.406-.734-2.607-1.633-4.3-1.526,5.064-6.5-5.208-14.063-10.668-8.9-2.539-5.969-11.611-4.713-11.014,2.287-2.015-3.646-5.967-3.389-9.212-1.439-4.48,2.691-3.88,7.483-1.416,11.365-1.86-2.22-7.531-3.443-8.394.231a4.434,4.434,0,0,0-6.4-.73c-1.677-6.024-12.458-6.81-14.5.614-4.161-2.4-8.556,2.263-7.5,6.084l-49.708-.728Z"/><path class="a" d="M410.714,240.923a6.726,6.726,0,0,0-9.492-.565,6.563,6.563,0,0,0-1.241,1.5,6.713,6.713,0,0,0-10.885,3.857,8,8,0,0,1,13.3,1.588,5.441,5.441,0,0,0-.04-1.15,6.7,6.7,0,0,0-.908-2.594,6.718,6.718,0,0,1,.7-.729,7.978,7.978,0,0,1,9.248-.974A5.431,5.431,0,0,0,410.714,240.923Z"/><path class="a" d="M340.778,229.337a5.188,5.188,0,0,1,7.321-.436,5.039,5.039,0,0,1,.957,1.154,5.178,5.178,0,0,1,8.4,2.975,6.168,6.168,0,0,0-10.259,1.224,4.216,4.216,0,0,1,.031-.887,5.17,5.17,0,0,1,.7-2,5.159,5.159,0,0,0-.537-.562,6.154,6.154,0,0,0-7.133-.752A4.243,4.243,0,0,1,340.778,229.337Z"/><path class="a" d="M420.1,267.012c.767-1.052,4.174-.631,5.266-.425a7.368,7.368,0,0,1,5.6,9.623,5.951,5.951,0,0,1,6.6,8.581c4.331-.974,10.982-.215,14.367,3.063,1.858,1.8,2.568,4.891,1.162,7.062.262-.4,3.671-.444,6.478,1.3a6.48,6.48,0,0,1,2.9,5.126,10.607,10.607,0,0,1-1.991,6.454c.223-.43,2.848,1.4,3.084,1.616a6.63,6.63,0,0,1,1.845,2.883,3.6,3.6,0,0,1-3.141,4.493,9.766,9.766,0,0,1,4.334,3.408,5.422,5.422,0,0,1,.481,5.315c-1.127,2.183-3.79,2.987-6.174,3.58a6.782,6.782,0,0,1,1.7,6.031,4.684,4.684,0,0,1-4.807,3.544,6.474,6.474,0,0,1-3.058,11.936c1.2-.074,2.114,2.435,2.419,3.23.552,1.439,1.306,2.467,2.027,3.921h6.008c6.138,0,9.645-7.379,5.449-11.859q-.25-.267-.527-.515c7.128-2.8,6.694-12.949,2.321-15.037,6.607-4.709,6.558-16.915-1.836-19.532,5.794-5.805,4.041-18.306-4.357-19.078,2.054-5.13,1.044-12.151-5.544-13.446,2.087-6.289-3.733-10.65-9.569-8.391-.254-6.629-9.643-7.01-11.756-2.344.113-2.566-3.729-7.319-6.194-7.329,4.257-3.332,3.08-10.009-.571-10.9,4.967-3.768,2.306-12.368-3.627-12.285,3.16-4.979-1.54-10.131-6.251-11.076,1.709,1.9,3.265,4.441,2.021,7.064-1.112,2.347-4.133,2.757-6.135,3.741,4.759,1.607,6.941,6.383,3.4,10.569,4.846.61,5.472,7.056,3.532,9.669-1.195-1.037-3.668-1.266-5.474-.923-2.432.463-3.743,1.692-5.93,4.133C418.461,256.883,422.839,263.258,420.1,267.012Z"/><path class="c" d="M6.731,330.338c-4.373,2.088-4.807,12.235,2.321,15.037-.184.165-.36.336-.527.515-4.2,4.479-.689,11.859,5.449,11.859H232.236V232.138l-49.709.728c1.058-3.821-3.337-8.48-7.5-6.084-2.039-7.424-12.82-6.638-14.5-.614a4.435,4.435,0,0,0-6.4.73c-.863-3.674-6.533-2.451-8.394-.231,2.464-3.882,3.064-8.674-1.415-11.365-3.246-1.95-7.2-2.207-9.213,1.439.6-7-8.474-8.256-11.013-2.287-5.46-5.159-15.733,2.4-10.668,8.9-5.359-.338-9.428,8.288-3.622,10.645a3.381,3.381,0,0,0-2.818,4.411,4.766,4.766,0,0,0-7.113-3.079c1.494-4.272-.356-7.107-4.725-6.56,2.448-11.434-15.86-16.61-21.2-7.816-3.021-7.468-16.974-1.862-13.988,5.188-5.272-1.933-13.759,4.619-9.78,10.889-5.933-.083-8.594,8.517-3.626,12.285-3.652.888-4.829,7.565-.572,10.9-2.464.01-6.307,4.763-6.193,7.329-2.114-4.666-11.5-4.285-11.757,2.344-5.836-2.259-11.655,2.1-9.568,8.391-6.588,1.3-7.6,8.316-5.544,13.446C4.525,292.5,2.772,305,8.567,310.806.172,313.423.124,325.629,6.731,330.338Z"/><path class="a" d="M68.45,240.923a6.726,6.726,0,0,1,9.492-.565,6.563,6.563,0,0,1,1.241,1.5,6.713,6.713,0,0,1,10.885,3.857,8,8,0,0,0-13.3,1.588,5.443,5.443,0,0,1,.041-1.15,6.693,6.693,0,0,1,.907-2.594,6.624,6.624,0,0,0-.7-.729,7.977,7.977,0,0,0-9.248-.974A5.485,5.485,0,0,1,68.45,240.923Z"/><path class="a" d="M138.386,229.337a5.188,5.188,0,0,0-7.321-.436,5.039,5.039,0,0,0-.957,1.154,5.177,5.177,0,0,0-8.4,2.975,6.168,6.168,0,0,1,10.259,1.224,4.218,4.218,0,0,0-.032-.887,5.153,5.153,0,0,0-.7-2,5.159,5.159,0,0,1,.537-.562,6.154,6.154,0,0,1,7.133-.752A4.243,4.243,0,0,0,138.386,229.337Z"/><path class="a" d="M6.731,330.338c-4.373,2.088-4.807,12.235,2.321,15.037q-.276.248-.528.515c-4.2,4.48-.689,11.859,5.449,11.859h6.008a8.317,8.317,0,0,1,6.9-4.871c-1.977-1.7-4.956-3.43-6.141-5.821-.423-.853-1.3-6.558.689-6.533a5.778,5.778,0,0,1-5.495-5.268c-.128-2.331,1.187-4.468,2.453-6.429a8.567,8.567,0,0,1-3.109-14.038,2.407,2.407,0,0,0,.628-.82c.294-.825-.471-1.6-1.055-2.257a7.286,7.286,0,0,1,4.389-12.067,7.189,7.189,0,0,1,7.5-10.254c-1.608-2.551-.224-6.2,2.34-7.789s5.861-1.484,8.758-.648a5.624,5.624,0,0,1,2.445-6.156,7.6,7.6,0,0,1,6.836-.444c-.523-4.216,2.918-7.057,6.685-7.767,1.093-.206,4.5-.627,5.266.425-2.739-3.754,1.639-10.129,5.955-6.8-2.187-2.441-3.5-3.67-5.93-4.133-1.8-.343-4.279-.114-5.474.923-1.94-2.613-1.314-9.059,3.532-9.669-3.539-4.186-1.356-8.962,3.4-10.569-2-.984-5.022-1.394-6.135-3.741-1.244-2.623.312-5.162,2.021-7.064-4.71.945-9.411,6.1-6.251,11.076-5.933-.083-8.594,8.517-3.627,12.285-3.651.888-4.828,7.565-.571,10.9-2.464.01-6.307,4.763-6.193,7.329-2.114-4.666-11.5-4.285-11.757,2.344-5.836-2.259-11.655,2.1-9.568,8.391-6.588,1.3-7.6,8.316-5.544,13.446C4.525,292.5,2.772,305,8.567,310.806.172,313.423.124,325.629,6.731,330.338Z"/><ellipse class="a" cx="240.147" cy="354.93" rx="228.443" ry="126.13"/><path class="c" d="M36.538,88.182c-.007-2.488-2.6-4.217-5.54-4.508-3.465-.343-5.923,1.278-6.005,4.144-2.266-.977-4.655-.351-4.476,2.265-.589-.713-2.795-.693-3.586-.494a3.153,3.153,0,0,0-1.974,1.766,2.516,2.516,0,0,0-.205,1.339c-1.321-.455-4.325-.733-5.076.54-1.338,2.264,4,2.335,5.083,1.651.228,1.762,5.97,2.051,7.36.425,1.086,1.149,2.646,1.4,4.33,1.508,2.841.177,4.583-.833,6.8-2.022,2.409,2.145,6.578,2.184,8.749-.269a4.085,4.085,0,0,0,3.3.412c.8-.2.988-.56.988-.56a6.739,6.739,0,0,0,1.474.465c1.575.346,4.506-.019,3.276-1.509a3.566,3.566,0,0,0-2.6-.672c-.687-1.419-3.445-2.764-5.027-1.564-.061-1.719-1.558-3.064-3.665-3.405C39.037,87.579,37.343,87.48,36.538,88.182Z"/><path class="c" d="M79.747,64.624a7.232,7.232,0,0,0-2.522-.489c-.817-.067-1.076-.237-1.233-.423a5.851,5.851,0,0,0-7.229-2.243,4.6,4.6,0,0,0-5.451-3.235c.089-2.668-3.155-5.535-6.07-6.187-2.8-.625-5.233-.362-6.829,1.568-1.707-3.5-8.4-4.488-12.023-2.636-2.083,1.066-3.85,2.159-4.714,4.163a8.719,8.719,0,0,0-.785,3.985,6.418,6.418,0,0,0-6.124-.894c-2.032.825-2.187,2.434-2.287,4.071a6.767,6.767,0,0,0-3.7-.07,2.28,2.28,0,0,0-1.843,2.307c-1.013-.059-3.427.8-3.15,1.924.312,1.261,3.069,1.134,4.1,1.094a18.28,18.28,0,0,0,2.883-.476,4.236,4.236,0,0,0,1.5.3c1.755-.013,2.5-.8,2.78-1.489.857,1.895,3.906,3.338,6.061,3.917,4.059,1.091,9.8.426,12.3-2.759A4.707,4.707,0,0,0,46.617,68.6a6.842,6.842,0,0,0,3.756,1.6c1.666.163,6.139.388,7.4-2.395.892,1.851,4.874,2.693,7.9,2.242a12.026,12.026,0,0,0,3.391-1.075,20.383,20.383,0,0,0,1.949-1.227,1.559,1.559,0,0,1,1.662-.12,9.452,9.452,0,0,0,6.612-.007C80.982,66.868,81.335,65.38,79.747,64.624Z"/><circle class="h" cx="140.149" cy="51.473" r="46.341" transform="translate(-5.239 17.51) rotate(-7.018)"/><circle class="h" cx="140.149" cy="51.473" r="38.777" transform="translate(-5.989 20.897) rotate(-8.35)"/><circle class="d" cx="140.149" cy="51.473" r="31.022" transform="matrix(0.973, -0.23, 0.23, 0.973, -8.077, 33.577)"/><circle class="i" cx="140.149" cy="51.473" r="31.022" transform="matrix(0.973, -0.23, 0.23, 0.973, -8.077, 33.577)"/><path class="j" d="M128.716,66.335a1.784,1.784,0,0,0,1.315,1.711c.815.119,1.8-.541,2.382.046.449.457.158,1.224.281,1.853a1.44,1.44,0,0,0,2.546.369c.227-.435.209-.968.45-1.395a1.284,1.284,0,0,1,2.324,1.075c-.239.651-.935.988-1.459,1.443a2.472,2.472,0,0,0-.916,2.126,1.607,1.607,0,0,0,1.663,1.4,5.825,5.825,0,0,0,1.33-.558,2.459,2.459,0,0,1,2.772.75c.236.3.4.657.646.947a2.284,2.284,0,0,0,3.088.172,2.8,2.8,0,0,0,.69-3.134c-.188-.462-.486-.874-.66-1.341a2.409,2.409,0,0,1,.64-2.662,1.882,1.882,0,0,1,2.6.255c.507.691.4,1.643.626,2.467s1.285,1.578,1.888.969c.494-.5.194-1.5.763-1.914.5-.359,1.223.1,1.431.673a7,7,0,0,1,.147,1.819c.05.61.368,1.3.972,1.4.7.116,1.238-.621,1.492-1.287s.5-1.457,1.165-1.714,1.415.154,2.094-.038c1.674-.474.874-3.524,2.4-4.359.964-.528,2.182.23,3.247-.041a9.983,9.983,0,0,0,1.877-1.117,4.324,4.324,0,0,1,1.1-.348,30.84,30.84,0,0,0,3.3-18.375,9.634,9.634,0,0,0-1.857-3.387,30.176,30.176,0,0,1-2.679-2.785c-.542-.8-.847-1.755-1.443-2.519a2.2,2.2,0,0,0-2.532-.89,1.772,1.772,0,0,0-.87,1.843,2.842,2.842,0,0,0,1.163,1.78c.519.391,1.166.7,1.418,1.3a1.487,1.487,0,0,1-.5,1.686,2.011,2.011,0,0,1-1.8.267c-1.053-.328-.364-1.261-.127-1.945.156-.452.116-1.064-.315-1.272s-.905.12-1.335.325a2.69,2.69,0,0,1-1.083.261.988.988,0,0,1-.464-.075c-.47-.228-.447-.926-.2-1.386a4.716,4.716,0,0,0,.728-1.376,1.585,1.585,0,0,0-.829-1.521,3.694,3.694,0,0,0-1.774-.407,2.2,2.2,0,0,1-1.818-.612c-.5-.444-.892-.994-1.433-1.4A3.425,3.425,0,0,0,147.7,38.1a2.053,2.053,0,0,1-.216,1.258,2.934,2.934,0,0,1-.756.517,1.779,1.779,0,0,0,.322,2.978c1.059.41,2.248-.174,3.326-.147,1.8.044,1.9,2.176.117,2.436-.535.078-1.537-.1-2.357-.028-.75.07-1.348.355-1.3,1.251s1.215,1.744.645,2.418a.938.938,0,0,1-1.2.042,7.661,7.661,0,0,1-.936-.911,2,2,0,0,0-1.787-.561,1.275,1.275,0,0,0-.964,1.463c.174.639.949,1.151.737,1.779-.179.53-.947.585-1.436.312s-.84-.748-1.328-1.023c-1.13-.636-2.61.033-3.41,1.053-.777.989-.939,2.752.214,3.253.708.307,1.508-.045,2.275-.126s1.767.45,1.549,1.19c-.145.493-.738.685-1.07,1.078a1.511,1.511,0,0,0,.176,1.941,2.763,2.763,0,0,0,1.949.727c1.758.04,3.63-1.176,3.793-2.927.089-.963-.292-2.07.318-2.821a2.24,2.24,0,0,1,1.881-.608,3.263,3.263,0,0,1,1.756.5,1.6,1.6,0,0,1,.7,1.6c-.142.589-.679.98-1.061,1.45s-.574,1.257-.089,1.619c.319.238.785.165,1.126.369.659.394.331,1.518-.369,1.831a3.654,3.654,0,0,1-2.257-.06,2.586,2.586,0,0,0-2.206.237c-.854.707-.542,2.13.168,2.981.39.467.908.946.858,1.553a1.246,1.246,0,0,1-.826.987,1.82,1.82,0,0,1-2.35-1.319,10,10,0,0,1-.018-1.237,2.357,2.357,0,0,0-1.533-2.117,1.86,1.86,0,0,0-2.273,1.064c-.17.5-.087,1.075-.305,1.56a1.572,1.572,0,0,1-2.55.208,1.959,1.959,0,0,1,.528-2.691c.684-.465,1.749-.7,1.816-1.525a1.136,1.136,0,0,0-.259-.763,1.748,1.748,0,0,0-2.86.408,3.138,3.138,0,0,1-.337.854c-.645.822-2.359,0-2.841.925-.236.454.037,1.051-.2,1.5-.283.532-1.028.51-1.623.6A3.065,3.065,0,0,0,128.716,66.335ZM109.749,45.269a4.955,4.955,0,0,0,1.153-.347c.678-.268,1.566-.444,2.04.11.291.341.3.839.519,1.232a1.607,1.607,0,0,0,1.923.623,2.58,2.58,0,0,0,1.447-1.567,5.115,5.115,0,0,1,.77-1.815,1.509,1.509,0,0,1,2.554,1.444c-.253.892-1.242,1.363-1.7,2.169a1.906,1.906,0,0,0,.435,2.394,1.611,1.611,0,0,0,2.3-.444c.366-.679.264-1.726.984-2,.886-.341,1.449.948,2.232,1.484a1.578,1.578,0,0,0,2-2.42c-.31-.309-.759-.5-.936-.9-.358-.8.751-1.584,1.611-1.4a9.118,9.118,0,0,1,2.279,1.3,4.069,4.069,0,0,0,4.066-.123,2.44,2.44,0,0,0,.982-1.08c.492-1.2-.423-2.722.277-3.816a1.49,1.49,0,0,1,2.647,1.332c-.265.7-1,1.1-1.366,1.754a2.472,2.472,0,0,0,1.142,3.136,5.71,5.71,0,0,0,3.609.43,1.864,1.864,0,0,0,1.132-.435c.808-.839-.315-2.2-.163-3.351.176-1.328,1.983-1.991,2.112-3.324.07-.726-.4-1.458-.194-2.158.383-1.312,2.641-1.238,3.04-2.546a1.524,1.524,0,0,0-.6-1.579,3.092,3.092,0,0,0-1.685-.544c-.8-.058-1.811-.094-2.111-.838-.332-.819.573-1.6,1.4-1.92a4.246,4.246,0,0,1,2.32-.326,2.133,2.133,0,0,1,1.7,1.468,7.887,7.887,0,0,0,.155.8,1.9,1.9,0,0,0,2.047.961,13.933,13.933,0,0,1,2.411-.319c2.252.186,3.569,3.085,5.824,3.214a.749.749,0,0,0,.635-.2.812.812,0,0,0,.087-.651,6.423,6.423,0,0,0-3.859-4.8c-1.282-.517-2.725-.61-3.93-1.285a21.592,21.592,0,0,1-2.312-1.809,3.383,3.383,0,0,0-2.724-.818c-1.123.271-1.805,1.367-2.487,2.3s-1.725,1.866-2.848,1.59a2.947,2.947,0,0,0-1.029-1.538c-.537-.328-1.415-.137-1.529.481-.075.415.209.8.29,1.218.179.924-.667,1.723-1.5,2.162a4.918,4.918,0,0,0-2.262,1.613,7.186,7.186,0,0,0-.416,1.2,2.745,2.745,0,0,1-1.91,1.853,1.767,1.767,0,0,1-2.093-1.333,2.82,2.82,0,0,1,.584-1.767,3.146,3.146,0,0,0,.649-1.752c-.037-.632-.681-1.257-1.267-1.017-.686.281-.618,1.333-1.17,1.828-.579.519-1.482.187-2.2-.112s-1.727-.453-2.117.22c-.357.618.142,1.357.3,2.053a2.128,2.128,0,0,1-3.108,2.333c-.6-1.019,1.3-2.141.886-3.25-.285-.768-1.424-.747-2.123-.317a2.3,2.3,0,0,1-1.145.524c-.675-.006-1.095-.831-.948-1.49a3.443,3.443,0,0,1,1.152-1.628c.453-.429,1.062-.892,1.64-.656.379.155.584.558.878.842a1.724,1.724,0,0,0,2.333-.027c.318-.322.5-.77.863-1.042.853-.643,2.185,0,3.1-.552a1.387,1.387,0,0,0,.371-1.943c-.258-.34-.691-.581-.769-1-.14-.756.781-1.341.743-2.148a2.729,2.729,0,0,0-1.1-1.875c-.014-.009-.029-.012-.043-.02A31.132,31.132,0,0,0,113.91,34.933a2.8,2.8,0,0,0,.838,1.3,11.723,11.723,0,0,1,1.214.92,1.016,1.016,0,0,1,.113,1.369,1.194,1.194,0,0,1-.8.241A4.974,4.974,0,0,1,112.528,38c-.081-.052-.164-.107-.247-.162A30.818,30.818,0,0,0,109.749,45.269Z"/><path class="k" d="M305.115,126.312a.9.9,0,1,1-1.026-.763A.9.9,0,0,1,305.115,126.312Z"/><path class="k" d="M236.532,127.042a.9.9,0,1,1,1.163.534A.9.9,0,0,1,236.532,127.042Z"/><path class="k" d="M399.471,96.172a.9.9,0,1,1-.9-.9A.9.9,0,0,1,399.471,96.172Z"/><path class="k" d="M390.424,133.755a.9.9,0,1,1-.9-.9A.9.9,0,0,1,390.424,133.755Z"/><path class="k" d="M276.731,25.179a.9.9,0,1,1-.475-1.188A.9.9,0,0,1,276.731,25.179Z"/><path class="k" d="M335.611,101.3a.587.587,0,1,1-.666-.5A.587.587,0,0,1,335.611,101.3Z"/><path class="k" d="M211.412,29.652a.9.9,0,1,1,.754,1.034A.9.9,0,0,1,211.412,29.652Z"/><path class="k" d="M201.173,37.448a.587.587,0,1,1,.489.671A.587.587,0,0,1,201.173,37.448Z"/><path class="k" d="M248.058,49.523a.587.587,0,1,1,.489.671A.587.587,0,0,1,248.058,49.523Z"/><path class="k" d="M371,69.562a.588.588,0,1,1,.49.671A.588.588,0,0,1,371,69.562Z"/><path class="k" d="M380.266,122.4a.587.587,0,1,1,.489.672A.587.587,0,0,1,380.266,122.4Z"/><path class="k" d="M128.38,121.81a.588.588,0,1,1,.489.671A.588.588,0,0,1,128.38,121.81Z"/><path class="k" d="M289,26.679a.588.588,0,1,1-.308-.772A.587.587,0,0,1,289,26.679Z"/><path class="k" d="M277.2,37.439a.587.587,0,1,1-.308-.771A.586.586,0,0,1,277.2,37.439Z"/><path class="k" d="M345.675,96.558a.386.386,0,1,1-.385-.386A.385.385,0,0,1,345.675,96.558Z"/><path class="k" d="M225.957,141.416a.588.588,0,1,1,.755.347A.589.589,0,0,1,225.957,141.416Z"/><path class="k" d="M405.572,86.106a.588.588,0,1,1-.587-.587A.587.587,0,0,1,405.572,86.106Z"/><path class="k" d="M445.237,130.236a.588.588,0,1,1-.588-.588A.587.587,0,0,1,445.237,130.236Z"/><path class="k" d="M90.656,106.168a.588.588,0,1,1-.588-.587A.588.588,0,0,1,90.656,106.168Z"/><path class="d" d="M254.24,94.557A2.093,2.093,0,1,1,254.633,93,2.086,2.086,0,0,1,254.24,94.557Z"/><path class="l" d="M253.766,94.2a2.074,2.074,0,1,1,.389-1.54A2.066,2.066,0,0,1,253.766,94.2Z"/><path class="m" d="M253.292,93.851a2.056,2.056,0,1,1,.385-1.526A2.046,2.046,0,0,1,253.292,93.851Z"/><path class="n" d="M252.817,93.5a2.035,2.035,0,1,1,.382-1.512A2.03,2.03,0,0,1,252.817,93.5Z"/><path class="o" d="M252.343,93.145a2.017,2.017,0,1,1,.378-1.5A2.011,2.011,0,0,1,252.343,93.145Z"/><path class="p" d="M251.869,92.792a2,2,0,1,1,.374-1.483A1.992,1.992,0,0,1,251.869,92.792Z"/><path class="q" d="M251.394,92.439a1.979,1.979,0,1,1,.371-1.469A1.968,1.968,0,0,1,251.394,92.439Z"/><path class="r" d="M250.92,92.086a1.959,1.959,0,1,1,.367-1.455A1.951,1.951,0,0,1,250.92,92.086Z"/><path class="s" d="M250.446,91.734a1.942,1.942,0,1,1,.363-1.441A1.939,1.939,0,0,1,250.446,91.734Z"/><path class="t" d="M249.971,91.381a1.923,1.923,0,1,1,.36-1.427A1.915,1.915,0,0,1,249.971,91.381Z"/><path class="u" d="M249.5,91.028a1.9,1.9,0,1,1,.356-1.413A1.9,1.9,0,0,1,249.5,91.028Z"/><path class="v" d="M249.023,90.675a1.884,1.884,0,1,1,.353-1.4A1.878,1.878,0,0,1,249.023,90.675Z"/><path class="w" d="M248.549,90.322a1.865,1.865,0,1,1,.349-1.384A1.859,1.859,0,0,1,248.549,90.322Z"/><path class="x" d="M248.074,89.969a1.845,1.845,0,1,1,.346-1.37A1.84,1.84,0,0,1,248.074,89.969Z"/><path class="y" d="M247.6,89.616a1.826,1.826,0,1,1,.342-1.356A1.818,1.818,0,0,1,247.6,89.616Z"/><path class="z" d="M247.126,89.263a1.808,1.808,0,1,1,.338-1.342A1.8,1.8,0,0,1,247.126,89.263Z"/><path class="aa" d="M246.651,88.91a1.789,1.789,0,1,1,.335-1.327A1.78,1.78,0,0,1,246.651,88.91Z"/><path class="ab" d="M246.177,88.557a1.769,1.769,0,1,1,.331-1.313A1.763,1.763,0,0,1,246.177,88.557Z"/><path class="ac" d="M245.7,88.2a1.751,1.751,0,1,1,.327-1.3A1.746,1.746,0,0,1,245.7,88.2Z"/><path class="ad" d="M245.228,87.852a1.732,1.732,0,1,1,.324-1.286A1.723,1.723,0,0,1,245.228,87.852Z"/><path class="ae" d="M244.754,87.5a1.712,1.712,0,1,1,.321-1.271A1.708,1.708,0,0,1,244.754,87.5Z"/><path class="af" d="M244.28,87.146a1.693,1.693,0,1,1,.317-1.257A1.692,1.692,0,0,1,244.28,87.146Z"/><path class="ag" d="M243.805,86.793a1.673,1.673,0,1,1,.314-1.243A1.667,1.667,0,0,1,243.805,86.793Z"/><path class="ah" d="M243.331,86.44a1.654,1.654,0,1,1,.31-1.229A1.652,1.652,0,0,1,243.331,86.44Z"/><path class="ai" d="M242.857,86.087a1.637,1.637,0,1,1,.306-1.214A1.632,1.632,0,0,1,242.857,86.087Z"/><path class="aj" d="M242.382,85.734a1.617,1.617,0,1,1,.3-1.2A1.609,1.609,0,0,1,242.382,85.734Z"/><path class="ak" d="M241.908,85.381a1.6,1.6,0,1,1,.3-1.186A1.587,1.587,0,0,1,241.908,85.381Z"/><path class="al" d="M241.434,85.028a1.579,1.579,0,1,1,.3-1.172A1.577,1.577,0,0,1,241.434,85.028Z"/><path class="am" d="M240.959,84.675a1.559,1.559,0,1,1,.292-1.157A1.558,1.558,0,0,1,240.959,84.675Z"/><path class="an" d="M240.485,84.322a1.54,1.54,0,1,1,.289-1.143A1.532,1.532,0,0,1,240.485,84.322Z"/><path class="ao" d="M240.011,83.969a1.52,1.52,0,1,1,.285-1.129A1.517,1.517,0,0,1,240.011,83.969Z"/><path class="ap" d="M239.536,83.617a1.5,1.5,0,1,1,.282-1.116A1.5,1.5,0,0,1,239.536,83.617Z"/><path class="aq" d="M239.062,83.264a1.482,1.482,0,1,1,.278-1.1A1.477,1.477,0,0,1,239.062,83.264Z"/><path class="ar" d="M238.588,82.911a1.464,1.464,0,1,1,.274-1.087A1.466,1.466,0,0,1,238.588,82.911Z"/><path class="as" d="M238.113,82.558a1.446,1.446,0,1,1,.271-1.073A1.44,1.44,0,0,1,238.113,82.558Z"/><path class="at" d="M237.639,82.205a1.426,1.426,0,1,1,.267-1.059A1.421,1.421,0,0,1,237.639,82.205Z"/><path class="au" d="M237.165,81.852a1.408,1.408,0,1,1,.263-1.044A1.4,1.4,0,0,1,237.165,81.852Z"/><path class="av" d="M236.69,81.5a1.387,1.387,0,1,1,.26-1.03A1.382,1.382,0,0,1,236.69,81.5Z"/><path class="aw" d="M236.216,81.146a1.369,1.369,0,1,1,.256-1.016A1.362,1.362,0,0,1,236.216,81.146Z"/><path class="ax" d="M235.742,80.793a1.349,1.349,0,1,1,.253-1A1.346,1.346,0,0,1,235.742,80.793Z"/><path class="ay" d="M235.267,80.44a1.329,1.329,0,1,1,.25-.987A1.327,1.327,0,0,1,235.267,80.44Z"/><path class="az" d="M234.793,80.088a1.311,1.311,0,1,1,.246-.974A1.307,1.307,0,0,1,234.793,80.088Z"/><path class="ba" d="M234.319,79.735a1.292,1.292,0,1,1,.242-.96A1.288,1.288,0,0,1,234.319,79.735Z"/><path class="bb" d="M233.845,79.382a1.275,1.275,0,1,1,.238-.946A1.272,1.272,0,0,1,233.845,79.382Z"/><path class="bc" d="M233.37,79.029a1.255,1.255,0,1,1,.235-.931A1.25,1.25,0,0,1,233.37,79.029Z"/><path class="bd" d="M232.9,78.676a1.236,1.236,0,1,1,.231-.917A1.235,1.235,0,0,1,232.9,78.676Z"/><path class="be" d="M232.422,78.323a1.218,1.218,0,1,1,.227-.9A1.213,1.213,0,0,1,232.422,78.323Z"/><path class="bf" d="M231.947,77.97a1.2,1.2,0,1,1,.224-.889A1.194,1.194,0,0,1,231.947,77.97Z"/><path class="bg" d="M231.473,77.617a1.18,1.18,0,1,1,.22-.874A1.173,1.173,0,0,1,231.473,77.617Z"/><path class="bh" d="M231,77.264a1.159,1.159,0,1,1,.217-.86A1.153,1.153,0,0,1,231,77.264Z"/><path class="bi" d="M230.524,76.911a1.138,1.138,0,1,1,.214-.846A1.134,1.134,0,0,1,230.524,76.911Z"/><path class="bj" d="M230.05,76.558a1.12,1.12,0,1,1,.21-.832A1.118,1.118,0,0,1,230.05,76.558Z"/><path class="bk" d="M229.576,76.205a1.1,1.1,0,1,1,.206-.817A1.1,1.1,0,0,1,229.576,76.205Z"/><path class="bl" d="M229.1,75.853a1.083,1.083,0,1,1,.2-.8A1.081,1.081,0,0,1,229.1,75.853Z"/><path class="bm" d="M228.627,75.5a1.065,1.065,0,1,1,.2-.79A1.061,1.061,0,0,1,228.627,75.5Z"/><path class="bn" d="M228.153,75.147a1.045,1.045,0,0,1-1.677-1.248,1.053,1.053,0,0,1,.687-.41,1.046,1.046,0,0,1,.99,1.658Z"/><path class="bo" d="M227.678,74.794a1.026,1.026,0,1,1,.192-.761A1.019,1.019,0,0,1,227.678,74.794Z"/><path class="bp" d="M227.2,74.441A1.007,1.007,0,1,1,227,73.033a1.007,1.007,0,0,1,.207,1.408Z"/><path class="bq" d="M226.73,74.088a.987.987,0,1,1,.185-.733A.987.987,0,0,1,226.73,74.088Z"/><path class="br" d="M226.255,73.735a.967.967,0,1,1,.182-.719A.963.963,0,0,1,226.255,73.735Z"/><path class="bs" d="M225.781,73.382a.948.948,0,1,1,.178-.7A.946.946,0,0,1,225.781,73.382Z"/><path class="bt" d="M225.307,73.029a.93.93,0,1,1,.174-.69A.922.922,0,0,1,225.307,73.029Z"/><path class="bu" d="M224.832,72.676A.909.909,0,1,1,225,72,.9.9,0,0,1,224.832,72.676Z"/><path class="bv" d="M224.358,72.323a.892.892,0,1,1,.167-.662A.893.893,0,0,1,224.358,72.323Z"/><path class="bw" d="M223.884,71.971a.874.874,0,1,1,.163-.648A.875.875,0,0,1,223.884,71.971Z"/><path class="bx" d="M223.409,71.618a.854.854,0,1,1,.16-.634A.85.85,0,0,1,223.409,71.618Z"/><path class="by" d="M222.935,71.265a.835.835,0,1,1,.156-.62A.83.83,0,0,1,222.935,71.265Z"/><path class="bz" d="M222.461,70.912a.817.817,0,1,1,.152-.606A.813.813,0,0,1,222.461,70.912Z"/><path class="ca" d="M221.986,70.559a.79.79,0,0,1-.523.313.8.8,0,1,1,.673-.9A.79.79,0,0,1,221.986,70.559Z"/><path class="cb" d="M221.512,70.206a.777.777,0,1,1,.146-.577A.774.774,0,0,1,221.512,70.206Z"/><path class="cc" d="M221.038,69.853a.758.758,0,0,1-1.359-.343.759.759,0,0,1,1.5-.22A.761.761,0,0,1,221.038,69.853Z"/><path class="cd" d="M220.564,69.5a.739.739,0,1,1,.138-.549A.74.74,0,0,1,220.564,69.5Z"/><path class="ce" d="M220.089,69.147a.72.72,0,1,1,.135-.534A.715.715,0,0,1,220.089,69.147Z"/><path class="cf" d="M219.615,68.794a.7.7,0,0,1-.981.144.7.7,0,0,1,.317-1.256.7.7,0,0,1,.664,1.112Z"/><path class="cg" d="M219.141,68.441a.682.682,0,1,1,.127-.506A.678.678,0,0,1,219.141,68.441Z"/><path class="ch" d="M218.666,68.089a.663.663,0,1,1,.124-.493A.664.664,0,0,1,218.666,68.089Z"/><path class="ci" d="M218.192,67.736a.644.644,0,1,1-1.033-.769.644.644,0,0,1,1.033.769Z"/><path class="cj" d="M217.718,67.383a.625.625,0,1,1,.117-.464A.627.627,0,0,1,217.718,67.383Z"/><path class="ck" d="M217.243,67.03a.605.605,0,1,1,.114-.45A.6.6,0,0,1,217.243,67.03Z"/><path class="cl" d="M216.769,66.677a.586.586,0,1,1,.11-.436A.582.582,0,0,1,216.769,66.677Z"/><path class="cm" d="M216.3,66.324a.566.566,0,0,1-.794.116.567.567,0,0,1,.677-.91.567.567,0,0,1,.117.794Z"/><path class="cn" d="M215.82,65.971a.549.549,0,0,1-.88-.655.549.549,0,1,1,.88.655Z"/><path class="co" d="M215.346,65.618a.53.53,0,1,1,.1-.393A.529.529,0,0,1,215.346,65.618Z"/><path class="cp" d="M214.872,65.265a.51.51,0,1,1-.819-.609.51.51,0,0,1,.819.609Z"/><path class="cq" d="M214.4,64.912a.491.491,0,1,1,.092-.364A.488.488,0,0,1,214.4,64.912Z"/><path class="cr" d="M213.923,64.559a.472.472,0,1,1,.088-.35A.469.469,0,0,1,213.923,64.559Z"/><path class="cs" d="M213.449,64.206a.454.454,0,0,1-.634.094.454.454,0,1,1,.634-.094Z"/><path class="ct" d="M212.974,63.854a.433.433,0,1,1,.082-.323A.435.435,0,0,1,212.974,63.854Z"/><path class="cu" d="M212.5,63.5a.415.415,0,0,1-.666-.5.415.415,0,0,1,.744.188A.412.412,0,0,1,212.5,63.5Z"/><path class="cv" d="M212.026,63.148a.4.4,0,0,1-.26.155.392.392,0,0,1-.294-.074.4.4,0,0,1-.156-.26.4.4,0,0,1,.784-.115A.4.4,0,0,1,212.026,63.148Z"/><path class="cw" d="M211.551,62.8a.377.377,0,1,1-.077-.527.376.376,0,0,1,.077.527Z"/><path class="cx" d="M211.077,62.442a.357.357,0,0,1-.5.073.356.356,0,0,1-.141-.235.36.36,0,0,1,.067-.265.36.36,0,0,1,.5-.074.364.364,0,0,1,.14.236A.356.356,0,0,1,211.077,62.442Z"/><path class="cy" d="M210.6,62.089a.339.339,0,0,1-.474.07.34.34,0,0,1-.133-.223.337.337,0,0,1,.064-.251.332.332,0,0,1,.222-.133.339.339,0,0,1,.321.537Z"/><path class="cz" d="M210.128,61.736a.319.319,0,1,1-.512-.381.319.319,0,0,1,.572.144A.314.314,0,0,1,210.128,61.736Z"/><path class="da" d="M209.654,61.383a.3.3,0,0,1-.538-.135.3.3,0,1,1,.538.135Z"/><path class="db" d="M209.18,61.03a.281.281,0,0,1-.394.058.277.277,0,0,1-.11-.185.28.28,0,0,1,.237-.319.282.282,0,0,1,.319.237A.282.282,0,0,1,209.18,61.03Z"/><path class="dc" d="M208.705,60.677a.257.257,0,0,1-.172.1.254.254,0,0,1-.194-.049.259.259,0,0,1-.1-.172.256.256,0,0,1,.049-.2.262.262,0,0,1,.367-.054.269.269,0,0,1,.1.173A.259.259,0,0,1,208.705,60.677Z"/><path class="dd" d="M208.231,60.324a.242.242,0,0,1-.34.05.241.241,0,0,1-.05-.34.244.244,0,0,1,.34-.05.242.242,0,0,1,.05.34Z"/><path class="de" d="M207.757,59.972a.219.219,0,0,1-.147.087.224.224,0,1,1-.065-.443.224.224,0,0,1,.254.189A.224.224,0,0,1,207.757,59.972Z"/><path class="df" d="M207.282,59.619a.2.2,0,1,1,.039-.153A.206.206,0,0,1,207.282,59.619Z"/><path class="dg" d="M206.808,59.266a.189.189,0,0,1-.122.073.186.186,0,0,1-.211-.157.186.186,0,0,1,.157-.211.186.186,0,0,1,.211.157A.187.187,0,0,1,206.808,59.266Z"/><path class="dh" d="M206.035,58.837a.167.167,0,0,1,.141-.189.166.166,0,0,1,.189.141.166.166,0,0,1-.141.189.165.165,0,0,1-.124-.031A.167.167,0,0,1,206.035,58.837Z"/><path class="di" d="M253.435,93.957a1.09,1.09,0,1,1-.224-1.525A1.09,1.09,0,0,1,253.435,93.957Z"/><path class="d" d="M253.245,85.471a1.181,1.181,0,1,1,.222-.878A1.178,1.178,0,0,1,253.245,85.471Z"/><path class="l" d="M253.04,85.318a1.171,1.171,0,1,1,.219-.869A1.164,1.164,0,0,1,253.04,85.318Z"/><path class="m" d="M252.835,85.166a1.162,1.162,0,1,1,.217-.862A1.156,1.156,0,0,1,252.835,85.166Z"/><path class="n" d="M252.63,85.013a1.151,1.151,0,1,1,.215-.853A1.142,1.142,0,0,1,252.63,85.013Z"/><path class="o" d="M252.425,84.861a1.139,1.139,0,1,1,.213-.846A1.14,1.14,0,0,1,252.425,84.861Z"/><path class="p" d="M252.219,84.708a1.121,1.121,0,0,1-.741.443,1.13,1.13,0,1,1,.741-.443Z"/><path class="q" d="M252.014,84.555a1.117,1.117,0,1,1,.209-.829A1.114,1.114,0,0,1,252.014,84.555Z"/><path class="r" d="M251.809,84.4a1.107,1.107,0,1,1,.207-.821A1.1,1.1,0,0,1,251.809,84.4Z"/><path class="s" d="M251.6,84.25a1.094,1.094,0,1,1,.2-.813A1.094,1.094,0,0,1,251.6,84.25Z"/><path class="t" d="M251.4,84.1a1.082,1.082,0,1,1,.2-.8A1.086,1.086,0,0,1,251.4,84.1Z"/><path class="u" d="M251.194,83.945a1.071,1.071,0,1,1,.2-.8A1.072,1.072,0,0,1,251.194,83.945Z"/><path class="v" d="M250.989,83.792a1.064,1.064,0,1,1,.2-.788A1.062,1.062,0,0,1,250.989,83.792Z"/><path class="w" d="M250.784,83.64a1.053,1.053,0,1,1,.2-.78A1.053,1.053,0,0,1,250.784,83.64Z"/><path class="x" d="M250.578,83.487a1.039,1.039,0,1,1,.195-.772A1.036,1.036,0,0,1,250.578,83.487Z"/><path class="y" d="M250.373,83.334a1.027,1.027,0,1,1,.193-.763A1.022,1.022,0,0,1,250.373,83.334Z"/><path class="z" d="M250.168,83.182a1.017,1.017,0,1,1,.191-.756A1.015,1.015,0,0,1,250.168,83.182Z"/><path class="aa" d="M249.963,83.029a1.008,1.008,0,1,1,.188-.747A1,1,0,0,1,249.963,83.029Z"/><path class="ab" d="M249.758,82.876a1,1,0,1,1,.186-.739A.991.991,0,0,1,249.758,82.876Z"/><path class="ac" d="M249.553,82.724a.985.985,0,1,1,.184-.731A.979.979,0,0,1,249.553,82.724Z"/><path class="ad" d="M249.348,82.571a.975.975,0,1,1,.182-.723A.969.969,0,0,1,249.348,82.571Z"/><path class="ae" d="M249.142,82.418a.961.961,0,1,1,.181-.714A.959.959,0,0,1,249.142,82.418Z"/><path class="af" d="M248.937,82.266a.953.953,0,1,1,.178-.707A.947.947,0,0,1,248.937,82.266Z"/><path class="ag" d="M248.732,82.113a.941.941,0,1,1,.176-.7A.937.937,0,0,1,248.732,82.113Z"/><path class="ah" d="M248.527,81.961a.929.929,0,1,1,.174-.691A.926.926,0,0,1,248.527,81.961Z"/><path class="ai" d="M248.322,81.808a.918.918,0,0,1-1.646-.415.909.909,0,0,1,.172-.682.919.919,0,1,1,1.474,1.1Z"/><path class="aj" d="M248.117,81.655a.907.907,0,1,1,.17-.673A.909.909,0,0,1,248.117,81.655Z"/><path class="ak" d="M247.912,81.5a.9.9,0,0,1-1.607-.405.9.9,0,1,1,1.607.405Z"/><path class="al" d="M247.706,81.35a.885.885,0,1,1,.166-.657A.881.881,0,0,1,247.706,81.35Z"/><path class="am" d="M247.5,81.2a.875.875,0,1,1,.164-.649A.873.873,0,0,1,247.5,81.2Z"/><path class="an" d="M247.3,81.045a.864.864,0,1,1,.162-.641A.859.859,0,0,1,247.3,81.045Z"/><path class="ao" d="M247.091,80.892a.852.852,0,1,1,.16-.633A.849.849,0,0,1,247.091,80.892Z"/><path class="ap" d="M246.886,80.739a.842.842,0,1,1,.157-.624A.841.841,0,0,1,246.886,80.739Z"/><path class="aq" d="M246.681,80.587a.832.832,0,1,1,.155-.617A.828.828,0,0,1,246.681,80.587Z"/><path class="ar" d="M246.476,80.434a.82.82,0,0,1-1.469-.37.82.82,0,1,1,1.469.37Z"/><path class="as" d="M246.27,80.282a.807.807,0,1,1,.152-.6A.808.808,0,0,1,246.27,80.282Z"/><path class="at" d="M246.065,80.129a.8.8,0,1,1,.15-.592A.8.8,0,0,1,246.065,80.129Z"/><path class="au" d="M245.86,79.976a.787.787,0,1,1,.147-.584A.782.782,0,0,1,245.86,79.976Z"/><path class="av" d="M245.655,79.824a.777.777,0,1,1,.145-.576A.776.776,0,0,1,245.655,79.824Z"/><path class="aw" d="M245.45,79.671a.765.765,0,1,1,.143-.568A.76.76,0,0,1,245.45,79.671Z"/><path class="ax" d="M245.245,79.518a.753.753,0,1,1,.141-.559A.75.75,0,0,1,245.245,79.518Z"/><path class="ay" d="M245.04,79.366a.742.742,0,1,1,.139-.551A.739.739,0,0,1,245.04,79.366Z"/><path class="az" d="M244.834,79.213a.732.732,0,1,1-1.174-.873.731.731,0,0,1,1.311.33A.723.723,0,0,1,244.834,79.213Z"/><path class="ba" d="M244.629,79.061a.722.722,0,0,1-1.008.148.721.721,0,1,1,1.008-.148Z"/><path class="bb" d="M244.424,78.908a.71.71,0,0,1-1.139-.847.71.71,0,1,1,1.139.847Z"/><path class="bc" d="M244.219,78.755a.7.7,0,1,1,.131-.518A.692.692,0,0,1,244.219,78.755Z"/><path class="bd" d="M244.014,78.6a.687.687,0,0,1-.962.141.688.688,0,1,1,1.091-.652A.69.69,0,0,1,244.014,78.6Z"/><path class="be" d="M243.809,78.45a.677.677,0,1,1-.641-1.073.677.677,0,0,1,.641,1.073Z"/><path class="bf" d="M243.6,78.3a.666.666,0,0,1-1.193-.3.668.668,0,0,1,.562-.756.669.669,0,0,1,.494.125.666.666,0,0,1,.137.931Z"/><path class="bg" d="M243.4,78.145a.655.655,0,1,1-.134-.916.646.646,0,0,1,.257.43A.654.654,0,0,1,243.4,78.145Z"/><path class="bh" d="M243.193,77.992a.642.642,0,1,1,.121-.478A.64.64,0,0,1,243.193,77.992Z"/><path class="bi" d="M242.988,77.839a.631.631,0,0,1-.885.13.633.633,0,0,1-.13-.885.635.635,0,0,1,.416-.248.632.632,0,0,1,.6,1Z"/><path class="bj" d="M242.783,77.687a.622.622,0,0,1-.87.128.627.627,0,0,1-.244-.409.622.622,0,1,1,1.114.281Z"/><path class="bk" d="M242.578,77.534a.61.61,0,1,1,.114-.453A.609.609,0,0,1,242.578,77.534Z"/><path class="bl" d="M242.373,77.382a.6.6,0,1,1,.112-.445A.6.6,0,0,1,242.373,77.382Z"/><path class="bm" d="M242.168,77.229a.589.589,0,1,1,.11-.437A.587.587,0,0,1,242.168,77.229Z"/><path class="bn" d="M241.962,77.076a.577.577,0,1,1-.118-.808.576.576,0,0,1,.118.808Z"/><path class="bo" d="M241.757,76.924a.567.567,0,1,1,.106-.421A.563.563,0,0,1,241.757,76.924Z"/><path class="bp" d="M241.552,76.771a.555.555,0,1,1,.1-.412A.551.551,0,0,1,241.552,76.771Z"/><path class="bq" d="M241.347,76.618a.544.544,0,1,1,.1-.4A.541.541,0,0,1,241.347,76.618Z"/><path class="br" d="M241.142,76.466a.533.533,0,1,1,.1-.4A.533.533,0,0,1,241.142,76.466Z"/><path class="bs" d="M240.937,76.313a.524.524,0,0,1-.937-.236.523.523,0,0,1,.442-.593.524.524,0,0,1,.593.441A.527.527,0,0,1,240.937,76.313Z"/><path class="bt" d="M240.732,76.16a.512.512,0,1,1,.095-.379A.509.509,0,0,1,240.732,76.16Z"/><path class="bu" d="M240.526,76.008a.5.5,0,0,1-.8-.6.5.5,0,0,1,.9.226A.494.494,0,0,1,240.526,76.008Z"/><path class="bv" d="M240.321,75.855a.49.49,0,0,1-.685.1.489.489,0,0,1-.1-.685.489.489,0,1,1,.785.584Z"/><path class="bw" d="M240.116,75.7a.472.472,0,0,1-.314.187.478.478,0,1,1,.314-.187Z"/><path class="bx" d="M239.911,75.55a.468.468,0,0,1-.654.1.468.468,0,1,1,.654-.1Z"/><path class="by" d="M239.706,75.4a.457.457,0,1,1-.094-.638.456.456,0,0,1,.094.638Z"/><path class="bz" d="M239.5,75.245a.445.445,0,0,1-.624.091.447.447,0,0,1-.091-.623.446.446,0,0,1,.715.532Z"/><path class="ca" d="M239.3,75.092a.433.433,0,0,1-.608.089.43.43,0,0,1-.171-.285.433.433,0,0,1,.367-.493.435.435,0,0,1,.493.367A.433.433,0,0,1,239.3,75.092Z"/><path class="cb" d="M239.091,74.939a.424.424,0,0,1-.279.167.423.423,0,0,1-.123-.838.423.423,0,0,1,.4.671Z"/><path class="cc" d="M238.885,74.787a.412.412,0,0,1-.577.085.413.413,0,0,1,.187-.74.412.412,0,0,1,.39.655Z"/><path class="cd" d="M238.68,74.634a.4.4,0,0,1-.264.158.4.4,0,0,1-.455-.339A.4.4,0,0,1,238.3,74a.4.4,0,0,1,.455.339A.4.4,0,0,1,238.68,74.634Z"/><path class="ce" d="M238.475,74.482a.394.394,0,0,1-.257.153.385.385,0,0,1-.289-.073.391.391,0,0,1,.176-.7.391.391,0,0,1,.37.62Z"/><path class="cf" d="M238.27,74.329a.379.379,0,1,1,.071-.282A.378.378,0,0,1,238.27,74.329Z"/><path class="cg" d="M238.065,74.176a.368.368,0,0,1-.516.076.369.369,0,0,1-.075-.516.368.368,0,0,1,.591.44Z"/><path class="ch" d="M237.86,74.024a.358.358,0,1,1-.574-.427.35.35,0,0,1,.235-.14.354.354,0,0,1,.265.066.357.357,0,0,1,.074.5Z"/><path class="ci" d="M237.655,73.871a.346.346,0,0,1-.228.136.347.347,0,0,1-.1-.686.347.347,0,0,1,.329.55Z"/><path class="cj" d="M237.449,73.718a.336.336,0,0,1-.6-.151.336.336,0,1,1,.664-.1A.331.331,0,0,1,237.449,73.718Z"/><path class="ck" d="M237.244,73.566a.324.324,0,1,1,.061-.241A.323.323,0,0,1,237.244,73.566Z"/><path class="cl" d="M237.039,73.413a.314.314,0,0,1-.562-.141.316.316,0,0,1,.059-.233.313.313,0,1,1,.5.374Z"/><path class="cm" d="M236.834,73.26a.3.3,0,0,1-.423.063.3.3,0,0,1-.062-.424.3.3,0,0,1,.423-.062.3.3,0,0,1,.062.423Z"/><path class="cn" d="M236.629,73.108a.293.293,0,1,1,.054-.216A.291.291,0,0,1,236.629,73.108Z"/><path class="co" d="M236.424,72.955a.282.282,0,0,1-.393.058.281.281,0,1,1,.335-.45.277.277,0,0,1,.11.184A.279.279,0,0,1,236.424,72.955Z"/><path class="cp" d="M236.218,72.8a.267.267,0,0,1-.176.105.262.262,0,0,1-.2-.05.269.269,0,1,1,.321-.432.264.264,0,0,1,.106.177A.269.269,0,0,1,236.218,72.8Z"/><path class="cq" d="M236.013,72.65a.253.253,0,0,1-.169.1.259.259,0,0,1-.294-.218.263.263,0,0,1,.049-.192.259.259,0,0,1,.17-.1.254.254,0,0,1,.191.048.257.257,0,0,1,.053.362Z"/><path class="cr" d="M235.808,72.5a.247.247,0,0,1-.443-.111.249.249,0,0,1,.046-.184.245.245,0,0,1,.163-.1.242.242,0,0,1,.183.046.25.25,0,0,1,.1.163A.248.248,0,0,1,235.808,72.5Z"/><path class="cs" d="M235.6,72.345a.237.237,0,0,1-.424-.107.239.239,0,0,1,.045-.176.235.235,0,0,1,.155-.092.239.239,0,0,1,.176.044.235.235,0,0,1,.092.155A.239.239,0,0,1,235.6,72.345Z"/><path class="ct" d="M235.4,72.192a.223.223,0,0,1-.315.046.225.225,0,0,1-.047-.315.229.229,0,0,1,.148-.089.226.226,0,0,1,.168.043.219.219,0,0,1,.088.148A.224.224,0,0,1,235.4,72.192Z"/><path class="cu" d="M235.193,72.039a.219.219,0,0,1-.141.085.212.212,0,0,1-.159-.041.209.209,0,0,1-.084-.14.214.214,0,0,1,.181-.244.214.214,0,0,1,.243.181A.216.216,0,0,1,235.193,72.039Z"/><path class="cv" d="M234.988,71.887a.2.2,0,0,1-.134.08.209.209,0,0,1-.151-.038.2.2,0,0,1,.092-.365.2.2,0,0,1,.151.038.2.2,0,0,1,.08.134A.209.209,0,0,1,234.988,71.887Z"/><path class="cw" d="M234.783,71.734a.192.192,0,0,1-.345-.087.192.192,0,0,1,.162-.218.193.193,0,0,1,.219.162A.2.2,0,0,1,234.783,71.734Z"/><path class="cx" d="M234.577,71.582a.181.181,0,0,1-.253.037.179.179,0,0,1-.072-.119.181.181,0,1,1,.359-.053A.179.179,0,0,1,234.577,71.582Z"/><path class="cy" d="M234.372,71.429a.169.169,0,0,1-.112.067.173.173,0,0,1-.126-.032.17.17,0,0,1-.035-.238.17.17,0,1,1,.273.2Z"/><path class="cz" d="M234.167,71.276a.155.155,0,0,1-.1.063.16.16,0,0,1-.151-.253.165.165,0,0,1,.1-.063.16.16,0,0,1,.118.03.159.159,0,0,1,.033.223Z"/><path class="da" d="M233.962,71.124a.154.154,0,0,1-.1.058.146.146,0,0,1-.11-.028.152.152,0,0,1-.058-.1.144.144,0,0,1,.028-.11.148.148,0,0,1,.208-.031.154.154,0,0,1,.058.1A.151.151,0,0,1,233.962,71.124Z"/><path class="db" d="M233.757,70.971a.137.137,0,0,1-.192.028.134.134,0,0,1-.054-.09.137.137,0,0,1,.025-.1.138.138,0,0,1,.193-.028.141.141,0,0,1,.054.09A.138.138,0,0,1,233.757,70.971Z"/><path class="dc" d="M233.552,70.818a.127.127,0,0,1-.083.05.127.127,0,0,1-.12-.2.13.13,0,0,1,.083-.049.127.127,0,0,1,.094.024.127.127,0,0,1,.026.176Z"/><path class="dd" d="M233.347,70.666a.118.118,0,0,1-.076.045.114.114,0,0,1-.086-.021.118.118,0,0,1-.045-.076.113.113,0,0,1,.021-.086.118.118,0,0,1,.076-.045.114.114,0,0,1,.086.021.118.118,0,0,1,.045.076A.114.114,0,0,1,233.347,70.666Z"/><path class="de" d="M233.141,70.513a.1.1,0,0,1-.068.041.107.107,0,0,1-.078-.019.11.11,0,0,1-.041-.069.105.105,0,0,1,.02-.077.1.1,0,0,1,.069-.041.106.106,0,0,1,.077.019.1.1,0,0,1,.041.069A.1.1,0,0,1,233.141,70.513Z"/><path class="df" d="M232.936,70.36a.091.091,0,0,1-.061.037.093.093,0,0,1-.069-.017.1.1,0,0,1-.037-.062.09.09,0,0,1,.018-.069.1.1,0,0,1,.061-.037.093.093,0,0,1,.069.018.091.091,0,0,1,.037.061A.093.093,0,0,1,232.936,70.36Z"/><path class="dg" d="M232.731,70.208a.082.082,0,0,1-.054.032.086.086,0,0,1-.061-.015.082.082,0,0,1-.032-.054.077.077,0,0,1,.015-.061.083.083,0,0,1,.054-.033.082.082,0,0,1,.078.131Z"/><path class="dh" d="M232.4,70.023a.071.071,0,0,1,.141-.021.069.069,0,0,1-.013.053.07.07,0,0,1-.047.028.071.071,0,0,1-.053-.013A.07.07,0,0,1,232.4,70.023Z"/><g class="dj"><path class="d" d="M320.466,81.511a12.787,12.787,0,1,1,12.787-12.787A12.8,12.8,0,0,1,320.466,81.511Zm0-25.276a12.489,12.489,0,1,0,12.489,12.489A12.5,12.5,0,0,0,320.466,56.235Z"/></g><g class="dk"><path class="d" d="M320.466,83.288A14.564,14.564,0,1,1,335.03,68.724,14.581,14.581,0,0,1,320.466,83.288Zm0-28.812a14.248,14.248,0,1,0,14.248,14.248A14.264,14.264,0,0,0,320.466,54.476Z"/></g><g class="dl"><path class="d" d="M320.466,85.168A16.444,16.444,0,1,1,336.91,68.724,16.463,16.463,0,0,1,320.466,85.168Zm0-32.559a16.115,16.115,0,1,0,16.115,16.115A16.134,16.134,0,0,0,320.466,52.609Z"/></g><g class="dm"><path class="d" d="M320.466,87.247a18.523,18.523,0,1,1,18.523-18.523A18.544,18.544,0,0,1,320.466,87.247Zm0-36.707A18.184,18.184,0,1,0,338.65,68.724,18.2,18.2,0,0,0,320.466,50.54Z"/></g><circle class="d" cx="320.466" cy="68.724" r="10.84" transform="translate(45.267 246.733) rotate(-45)"/><circle class="dn" cx="320.466" cy="68.724" r="10.84" transform="translate(45.267 246.733) rotate(-45)"/><g class="do"><path class="d" d="M319.253,62.218c-.077-.185-.158-.367-.243-.542a34.222,34.222,0,0,0-1.915-3.254,10.733,10.733,0,0,0-1.893.827c.659.979,1.486,1.936,2.072,2.946a13.227,13.227,0,0,1,.969,2.383,3.819,3.819,0,0,0,.461.992,1.371,1.371,0,0,0,.891.59.334.334,0,0,0,.175-.013c.129-.054.164-.219.175-.359A8.02,8.02,0,0,0,319.253,62.218Z"/><path class="d" d="M328.407,76.1c-1.836-1.786-5.253-5.124-6.692-6.632-1.09-1.142-2.595-1.66-3.693-2.755a6.415,6.415,0,0,1-1.346-2.851c-.168-.573-.477-2.383-1.336-2.178-.029.3.15.977-.168,1.178-.288.182-.558-.4-.661-.571-.088-.148-1.1-1.794-1.082-1.808a10.871,10.871,0,0,0-.885.846c.954,1.76,2.489,4.583,2.837,5.167.514.861,0,1.811-.64.888-.4-.574-2.165-2.823-3.444-4.439a10.823,10.823,0,0,0-1.031,2.106c1.006,1.476,2.153,3.289,3.792,4.129a1.983,1.983,0,0,0,1.771.1c.37-.187.664-.531,1.068-.624a1.864,1.864,0,0,1,1.425.5c.871.629,1.719,1.292,2.525,2a6.913,6.913,0,0,1,1.139,1.067.8.8,0,0,1-.075.97c0,.1-.395.085-.45.071a1.3,1.3,0,0,1-.4-.233c-.36-.242-.745-.454-1.115-.681-.288-.175-.654-.353-.941-.176a1.055,1.055,0,0,0,.373.784,16.272,16.272,0,0,0,2.393,2.149,1.84,1.84,0,0,0,.533.3.665.665,0,0,0,.588-.072c.17-.126.251-.352.433-.458a.576.576,0,0,1,.567.031c.391.225.688.653,1.061.919a16.6,16.6,0,0,1,1.788,1.729A10.942,10.942,0,0,0,328.407,76.1Z"/><path class="d" d="M320.466,79.564a10.807,10.807,0,0,0,3.952-.747c-1.783-1.606-4.615-4.121-5.464-4.671-.756-.488-1.279.273-1.724.79a1.674,1.674,0,0,1-.819.643.945.945,0,0,1-1.01-.91,1.562,1.562,0,0,1,.434-1.028,3.165,3.165,0,0,0,.709-.914,2.052,2.052,0,0,0-.452-1.693.93.93,0,0,0-.52-.482c-.327-.072-.611.214-.848.452a5.3,5.3,0,0,1-.933.749,1.285,1.285,0,0,1-.709.249,1.455,1.455,0,0,1-.749-.342A6.221,6.221,0,0,1,310.9,70.3q-.332-.427-.658-.859c-.121-.16-.614-.636-.614-.827,0,.036,0,.071,0,.107A10.84,10.84,0,0,0,320.466,79.564Z"/><path class="d" d="M324.892,58.83a3.639,3.639,0,0,0,1.035,2.388c.439.582.895,1.149,1.356,1.713.361.439,1.01.96,1,1.573a1.439,1.439,0,0,1-.627,1.009,5.311,5.311,0,0,1-.876.586c-.254.137-.56.31-.565.6,0,.266.253.451.483.586q1.309.766,2.661,1.458a5.685,5.685,0,0,1,1.234.654c.228.206.369.5.611.7a6.689,6.689,0,0,0,.1-1.372A10.84,10.84,0,0,0,324.892,58.83Z"/><path class="d" d="M324.831,65.319a3.884,3.884,0,0,1,.426-.265c.321-.175.695-.366.778-.722.112-.478-.369-.868-.788-1.124l-1.309-.8a2.552,2.552,0,0,1-.59-.444,2.373,2.373,0,0,1-.388-.682,15.911,15.911,0,0,1-.671-1.95c-.067-.244-.2-1.332-.578-1.375a10.512,10.512,0,0,0-2.587.012c.22-.014.721,1.308.79,1.505a17.821,17.821,0,0,1,.8,2.646c.164.884,1.263,1.326,1.956,1.809a.6.6,0,0,1,.244.255.541.541,0,0,1-.06.416,12.687,12.687,0,0,1-.732,1.146,1.761,1.761,0,0,0-.305,1.292,2.243,2.243,0,0,0,.723,1.018c2.315,2.216,4.76,4.347,6.952,6.666a10.81,10.81,0,0,0,1.144-2.245c.078-.214-1.187-1.232-1.352-1.364-.744-.592-1.583-1.076-2.328-1.681l-2.083-1.687a1.993,1.993,0,0,1-.746-.908,1.264,1.264,0,0,1,.242-1.077A2.121,2.121,0,0,1,324.831,65.319Z"/></g><g class="do"><path class="dp" d="M321.679,75.23c.077.185.159.367.243.543a34.1,34.1,0,0,0,1.916,3.253,10.682,10.682,0,0,0,1.892-.827c-.658-.979-1.486-1.936-2.072-2.945a13.34,13.34,0,0,1-.969-2.384,3.786,3.786,0,0,0-.461-.992,1.366,1.366,0,0,0-.891-.589.335.335,0,0,0-.175.012c-.129.055-.164.219-.174.359A8.016,8.016,0,0,0,321.679,75.23Z"/><path class="dp" d="M312.526,61.349c1.835,1.785,5.252,5.123,6.691,6.631,1.09,1.142,2.6,1.66,3.693,2.755a6.415,6.415,0,0,1,1.346,2.851c.168.574.477,2.383,1.337,2.179.028-.3-.151-.978.168-1.179.287-.182.558.4.66.571.088.148,1.1,1.794,1.082,1.809a10.891,10.891,0,0,0,.885-.847c-.953-1.759-2.488-4.583-2.837-5.167-.514-.861,0-1.811.64-.888.4.575,2.165,2.823,3.444,4.439a10.766,10.766,0,0,0,1.031-2.106c-1.006-1.476-2.153-3.289-3.792-4.129a1.989,1.989,0,0,0-1.771-.1c-.37.187-.663.531-1.067.624a1.863,1.863,0,0,1-1.426-.5c-.871-.629-1.719-1.292-2.525-2a6.871,6.871,0,0,1-1.139-1.067.8.8,0,0,1,.075-.97c0-.1.395-.085.451-.071a1.307,1.307,0,0,1,.4.233c.36.242.745.455,1.115.681.288.175.654.353.941.177a1.051,1.051,0,0,0-.372-.785,16.33,16.33,0,0,0-2.394-2.149,1.827,1.827,0,0,0-.533-.3.665.665,0,0,0-.588.072c-.17.126-.25.352-.433.459a.578.578,0,0,1-.567-.032c-.39-.225-.688-.652-1.06-.918a16.6,16.6,0,0,1-1.788-1.73A10.847,10.847,0,0,0,312.526,61.349Z"/><path class="dp" d="M320.466,57.884a10.807,10.807,0,0,0-3.952.747c1.783,1.606,4.615,4.122,5.464,4.671.756.489,1.279-.272,1.724-.79a1.674,1.674,0,0,1,.819-.643.947.947,0,0,1,1.011.91,1.57,1.57,0,0,1-.435,1.029,3.165,3.165,0,0,0-.709.913,2.059,2.059,0,0,0,.452,1.694.935.935,0,0,0,.52.481c.328.072.612-.214.848-.452a5.268,5.268,0,0,1,.934-.748,1.275,1.275,0,0,1,.708-.25,1.463,1.463,0,0,1,.749.342,6.221,6.221,0,0,1,1.432,1.357q.333.428.658.859c.121.161.614.636.614.827,0-.036,0-.071,0-.107A10.84,10.84,0,0,0,320.466,57.884Z"/><path class="dp" d="M316.04,78.618a3.639,3.639,0,0,0-1.035-2.388c-.439-.582-.894-1.149-1.356-1.712-.361-.44-1.01-.961-1-1.574a1.435,1.435,0,0,1,.626-1.009,5.418,5.418,0,0,1,.876-.586c.255-.136.56-.31.565-.6,0-.266-.253-.451-.482-.585q-1.31-.768-2.662-1.459a5.708,5.708,0,0,1-1.234-.654c-.228-.206-.368-.5-.611-.7a6.76,6.76,0,0,0-.1,1.372A10.839,10.839,0,0,0,316.04,78.618Z"/><path class="dp" d="M316.1,72.129a3.685,3.685,0,0,1-.426.265c-.321.175-.695.366-.779.722-.112.478.369.869.788,1.125l1.31.8a2.6,2.6,0,0,1,.59.444,2.394,2.394,0,0,1,.387.682,15.8,15.8,0,0,1,.671,1.95c.067.244.2,1.333.578,1.375a10.512,10.512,0,0,0,2.587-.012c-.22.014-.721-1.308-.79-1.5a17.94,17.94,0,0,1-.8-2.646c-.164-.884-1.263-1.325-1.956-1.809a.6.6,0,0,1-.244-.255.547.547,0,0,1,.06-.415,12.362,12.362,0,0,1,.733-1.147,1.765,1.765,0,0,0,.3-1.292,2.241,2.241,0,0,0-.722-1.018c-2.316-2.216-4.76-4.347-6.953-6.666a10.814,10.814,0,0,0-1.143,2.246c-.078.214,1.186,1.231,1.352,1.363.743.592,1.582,1.076,2.328,1.681l2.082,1.687a1.978,1.978,0,0,1,.746.909,1.259,1.259,0,0,1-.242,1.076A2.116,2.116,0,0,1,316.1,72.129Z"/></g><path class="dq" d="M331.184,70.352c-.8,4-8.028,7.684-13.82,5.2-6.159-2.637-7.319-10.966-4.3-14.741v0a10.84,10.84,0,1,0,18.124,9.542Z"/><path class="dr" d="M325.2,61.84a2.516,2.516,0,1,1-2.516-2.516A2.515,2.515,0,0,1,325.2,61.84Z"/><path class="dr" d="M327,64.541a1.152,1.152,0,1,1-1.152-1.152A1.151,1.151,0,0,1,327,64.541Z"/><path class="dq" d="M309.626,68.724a10.84,10.84,0,0,0,20.061,5.7c-.244.382-3.31,5.2-10.889,3.818-7.889-1.444-9.171-9.515-9.039-11.217A10.932,10.932,0,0,0,309.626,68.724Z"/><path class="d" d="M200.019,104.183A5.381,5.381,0,1,1,205.4,98.8,5.387,5.387,0,0,1,200.019,104.183Zm0-10.262A4.881,4.881,0,1,0,204.9,98.8,4.888,4.888,0,0,0,200.019,93.921Z"/><path class="d" d="M200.019,97.3a1.5,1.5,0,1,1-1.5,1.505A1.505,1.505,0,0,1,200.019,97.3Z"/><path class="ds" d="M200.019,97.3a1.5,1.5,0,1,1-1.5,1.505A1.505,1.505,0,0,1,200.019,97.3Z"/><path class="d" d="M350.781,44.3a5.382,5.382,0,1,1,5.381-5.381A5.388,5.388,0,0,1,350.781,44.3Zm0-10.263a4.882,4.882,0,1,0,4.881,4.882A4.887,4.887,0,0,0,350.781,34.033Z"/><path class="d" d="M350.781,37.409a1.506,1.506,0,1,1-1.5,1.506A1.505,1.505,0,0,1,350.781,37.409Z"/><path class="ds" d="M350.781,37.409a1.506,1.506,0,1,1-1.5,1.506A1.505,1.505,0,0,1,350.781,37.409Z"/><path class="d" d="M47.862,345.6a5.918,5.918,0,0,1,3.213.58,32.879,32.879,0,0,1,5.239,3.709,10.586,10.586,0,0,0,5.811,2.509c2.143.072,4.456-1.262,4.843-3.371a3.061,3.061,0,0,1,.275-1.074,1.565,1.565,0,0,1,1.83-.471,9.758,9.758,0,0,1,1.764,1.018c2.169,1.28,4.884.989,7.377.627,2.073-.3,4.687-1.217,4.679-3.311,0-1.366-1.2-2.375-2.136-3.367s-1.7-2.583-.845-3.643a2.5,2.5,0,0,1,1.2-.736c2.591-.844,5.762.281,7.952-1.342a4.573,4.573,0,0,0,1.149-5.483,6.959,6.959,0,0,0-4.668-3.556c-1.74-.444-3.952-.649-4.6-2.323-.567-1.468.573-3.054,1.862-3.957s2.841-1.533,3.737-2.827a4.475,4.475,0,0,0,.125-4.638,5.663,5.663,0,0,0-3.9-2.679,8.6,8.6,0,0,1-2.369-.52,1.579,1.579,0,0,1-.878-2c.235-.427.73-.648,1.013-1.046a1.89,1.89,0,0,0-.7-2.465,9.611,9.611,0,0,0-2.647-1.014c-1.879-.627-2.846-1.621-2.288-3.522.58-1.979,3.25-1.835,4.052-3.735.71-1.682-1.244-5.254-2.752-6.283s-3.34-1.445-4.99-2.225-3.246-2.156-3.38-3.976c-.138-1.865,1.262-3.434,2.4-4.916s2.109-3.554,1.113-5.137c-.958-1.523-3.083-1.61-4.8-2.154a7.784,7.784,0,0,1-4.721-4.26c-.456-1.051-.677-2.2-1.222-3.211-1.7-3.139-5.97-4.514-9.277-4.126a3.746,3.746,0,0,0-3.151,2.14,4.972,4.972,0,0,0-1.155,2.17c-.249,1.517.55,3.445-.879,4.6-2.172,1.758-5.5-.608-5.382,3.324a16.789,16.789,0,0,0,.733,4.9c.592,1.651,1.777,2.367.792,4.217-1.276,2.4-2.111,2.383-4.669,2.379-1.851,0-3.4-.1-4.756,1.3-2.387,2.468-.967,4.7,1.153,6.607,2.41,2.163,1.131,3.11.818,5.915-.151,1.348.156,1.764-1.051,2.659-2.281,1.693-3.556,1.123-2.914,4.44.585,3.028-.317,1.99-2.942,3.119-2.326,1-3.864,3.507-5.749,5.071-1.21,1-3.059,1.782-3.172,3.546-.217,3.375,3.98,2.637,5.976,3.443,3.262,1.318,2.29,5.6-.256,7.2-2.7,1.695-6.627,2.322-6.844,6.189-.166,2.967,1.519,3.622,3.82,4.615,1.836.792,1.6,1.023,1.6,3.215-.006,4.424,1.486,5.675,5.845,4.955,1.2-.2,3.016-.7,4.206-.345,1.669.5,1.1.912,1.151,2.306.12,3.57,4.276,2.565,6.036,1.036C42.562,347.908,45.111,345.864,47.862,345.6Z"/><path class="dt" d="M47.862,345.6a5.918,5.918,0,0,1,3.213.58,32.879,32.879,0,0,1,5.239,3.709,10.586,10.586,0,0,0,5.811,2.509c2.143.072,4.456-1.262,4.843-3.371a3.061,3.061,0,0,1,.275-1.074,1.565,1.565,0,0,1,1.83-.471,9.758,9.758,0,0,1,1.764,1.018c2.169,1.28,4.884.989,7.377.627,2.073-.3,4.687-1.217,4.679-3.311,0-1.366-1.2-2.375-2.136-3.367s-1.7-2.583-.845-3.643a2.5,2.5,0,0,1,1.2-.736c2.591-.844,5.762.281,7.952-1.342a4.573,4.573,0,0,0,1.149-5.483,6.959,6.959,0,0,0-4.668-3.556c-1.74-.444-3.952-.649-4.6-2.323-.567-1.468.573-3.054,1.862-3.957s2.841-1.533,3.737-2.827a4.475,4.475,0,0,0,.125-4.638,5.663,5.663,0,0,0-3.9-2.679,8.6,8.6,0,0,1-2.369-.52,1.579,1.579,0,0,1-.878-2c.235-.427.73-.648,1.013-1.046a1.89,1.89,0,0,0-.7-2.465,9.611,9.611,0,0,0-2.647-1.014c-1.879-.627-2.846-1.621-2.288-3.522.58-1.979,3.25-1.835,4.052-3.735.71-1.682-1.244-5.254-2.752-6.283s-3.34-1.445-4.99-2.225-3.246-2.156-3.38-3.976c-.138-1.865,1.262-3.434,2.4-4.916s2.109-3.554,1.113-5.137c-.958-1.523-3.083-1.61-4.8-2.154a7.784,7.784,0,0,1-4.721-4.26c-.456-1.051-.677-2.2-1.222-3.211-1.7-3.139-5.97-4.514-9.277-4.126a3.746,3.746,0,0,0-3.151,2.14,4.972,4.972,0,0,0-1.155,2.17c-.249,1.517.55,3.445-.879,4.6-2.172,1.758-5.5-.608-5.382,3.324a16.789,16.789,0,0,0,.733,4.9c.592,1.651,1.777,2.367.792,4.217-1.276,2.4-2.111,2.383-4.669,2.379-1.851,0-3.4-.1-4.756,1.3-2.387,2.468-.967,4.7,1.153,6.607,2.41,2.163,1.131,3.11.818,5.915-.151,1.348.156,1.764-1.051,2.659-2.281,1.693-3.556,1.123-2.914,4.44.585,3.028-.317,1.99-2.942,3.119-2.326,1-3.864,3.507-5.749,5.071-1.21,1-3.059,1.782-3.172,3.546-.217,3.375,3.98,2.637,5.976,3.443,3.262,1.318,2.29,5.6-.256,7.2-2.7,1.695-6.627,2.322-6.844,6.189-.166,2.967,1.519,3.622,3.82,4.615,1.836.792,1.6,1.023,1.6,3.215-.006,4.424,1.486,5.675,5.845,4.955,1.2-.2,3.016-.7,4.206-.345,1.669.5,1.1.912,1.151,2.306.12,3.57,4.276,2.565,6.036,1.036C42.562,347.908,45.111,345.864,47.862,345.6Z"/><path class="f" d="M81.111,338.065c1.989-.648,4.319-.139,6.285-.6a23.707,23.707,0,0,0-3.522-.556,9.984,9.984,0,0,0-7.6,3.016,6.837,6.837,0,0,1,1.528,4.561c-4.937,1.34-9.8-5.281-14.507-3.27.286,2.391.033,5.605-2.316,6.131a3.787,3.787,0,0,1-3.592-1.726c-.85-1.118-1.37-2.459-2.225-3.573a7.561,7.561,0,0,0-10.045-1.462c-1.275.923-2.871,2.323-4.145,1.4-1.367-.991-.536-3.68-2.046-4.433-1-.5-2.414.294-3.255-.449a2.275,2.275,0,0,1-.575-1.233c-.6-2.522-1.118-5.442.47-7.492,1.415-1.825,4.409-2.948,4.086-5.236-.276-1.954-2.76-2.544-4.721-2.772s-4.441-1.154-4.343-3.125c.1-1.934,2.717-2.867,3.1-4.764.166-.813-.11-1.714.262-2.455.558-1.112,2.153-1.159,3.086-1.983,1.678-1.482.377-4.259.852-6.447.337-1.549,1.588-2.762,2-4.291.83-3.054-1.948-5.96-4.858-7.2a18.041,18.041,0,0,1-3.31-1.532c-.036-.025-.069-.055-.1-.081.072,1.383,1.1,2.665,2.387,3.823,2.41,2.163,1.131,3.11.818,5.915-.151,1.348.156,1.764-1.051,2.659-2.281,1.693-3.555,1.123-2.914,4.44.585,3.028-.317,1.99-2.941,3.119-2.327,1-3.865,3.507-5.75,5.071-1.21,1-3.059,1.782-3.172,3.546-.217,3.375,3.98,2.637,5.976,3.443,3.262,1.318,2.29,5.6-.256,7.2-2.7,1.695-6.627,2.322-6.844,6.189-.166,2.967,1.519,3.622,3.82,4.615,1.836.792,1.6,1.023,1.6,3.215-.006,4.424,1.486,5.675,5.845,4.955,1.2-.2,3.016-.7,4.206-.345,1.669.5,1.1.912,1.151,2.306.12,3.57,4.276,2.565,6.036,1.036,2.028-1.762,4.577-3.806,7.328-4.075a5.918,5.918,0,0,1,3.213.58,32.879,32.879,0,0,1,5.239,3.709,10.586,10.586,0,0,0,5.811,2.509c2.143.072,4.456-1.262,4.843-3.371a3.061,3.061,0,0,1,.275-1.074,1.565,1.565,0,0,1,1.83-.471,9.758,9.758,0,0,1,1.764,1.018c2.169,1.28,4.884.989,7.377.627,2.073-.3,4.687-1.217,4.679-3.311,0-1.366-1.2-2.375-2.136-3.367s-1.7-2.583-.845-3.643A2.5,2.5,0,0,1,81.111,338.065Z"/><path d="M41.063,309.174l11.9,23.588V321.906l1.21-46.233,1.759,46.233v7.3l13.076-22.859L55.93,334.409v78.638a.736.736,0,0,1-.435.606,2.318,2.318,0,0,1-2.1,0,.736.736,0,0,1-.435-.606V338.779Z"/><path class="d" d="M273.714,179.008a5.852,5.852,0,0,1,3.175.573,32.492,32.492,0,0,1,5.177,3.665,10.462,10.462,0,0,0,5.742,2.48c2.117.07,4.4-1.248,4.786-3.332a3.025,3.025,0,0,1,.271-1.06,1.546,1.546,0,0,1,1.808-.467,9.687,9.687,0,0,1,1.744,1.006c2.143,1.265,4.826.978,7.289.62,2.048-.3,4.632-1.2,4.624-3.272,0-1.349-1.183-2.347-2.111-3.326s-1.685-2.553-.835-3.6a2.475,2.475,0,0,1,1.185-.727c2.561-.834,5.694.278,7.858-1.326a4.518,4.518,0,0,0,1.135-5.418,6.875,6.875,0,0,0-4.613-3.514c-1.719-.438-3.905-.641-4.545-2.295-.561-1.45.566-3.018,1.84-3.91s2.807-1.515,3.693-2.793c2.259-3.26-.252-8.993-2.949-11.2-1.335-1.093-3.024-1.91-3.778-3.462-1.068-2.2.194-4.747.489-7.171a9.122,9.122,0,0,0-3.909-8.5c-1.677-1.117-3.973-1.987-4.262-3.981-.271-1.862,1.479-3.434,1.706-5.3.231-1.91-1.2-3.659-2.844-4.655s-3.551-1.492-5.223-2.443c-3.442-1.959-3.635-5.129-5.873-7.8-1.837-2.2-5.436-3.018-8.159-2.7a3.7,3.7,0,0,0-3.114,2.114,4.913,4.913,0,0,0-1.142,2.145c-.246,1.5.543,3.4-.869,4.547-2.145,1.736-5.433-.6-5.317,3.284a16.6,16.6,0,0,0,.723,4.839c.586,1.631,1.757,2.339.783,4.166-1.261,2.369-2.086,2.356-4.613,2.351-1.83,0-3.357-.1-4.7,1.286-2.359,2.439-.957,4.648,1.138,6.529,2.382,2.137,1.118,3.073.808,5.845-.148,1.332.155,1.743-1.038,2.628-2.254,1.672-3.513,1.109-2.88,4.387.579,2.992-.313,1.966-2.906,3.082-2.3.989-3.818,3.465-5.681,5.011-1.2.991-3.023,1.76-3.135,3.5-.214,3.336,3.933,2.606,5.906,3.4,3.223,1.3,2.263,5.528-.253,7.11-2.664,1.675-6.549,2.294-6.763,6.116-.164,2.931,1.5,3.579,3.775,4.56,1.814.783,1.584,1.011,1.581,3.177-.006,4.372,1.469,5.608,5.776,4.9,1.181-.2,2.98-.7,4.157-.341,1.648.5,1.091.9,1.137,2.279.118,3.528,4.225,2.535,5.965,1.023C268.477,181.293,271,179.274,273.714,179.008Z"/><path class="dt" d="M273.714,179.008a5.852,5.852,0,0,1,3.175.573,32.492,32.492,0,0,1,5.177,3.665,10.462,10.462,0,0,0,5.742,2.48c2.117.07,4.4-1.248,4.786-3.332a3.025,3.025,0,0,1,.271-1.06,1.546,1.546,0,0,1,1.808-.467,9.687,9.687,0,0,1,1.744,1.006c2.143,1.265,4.826.978,7.289.62,2.048-.3,4.632-1.2,4.624-3.272,0-1.349-1.183-2.347-2.111-3.326s-1.685-2.553-.835-3.6a2.475,2.475,0,0,1,1.185-.727c2.561-.834,5.694.278,7.858-1.326a4.518,4.518,0,0,0,1.135-5.418,6.875,6.875,0,0,0-4.613-3.514c-1.719-.438-3.905-.641-4.545-2.295-.561-1.45.566-3.018,1.84-3.91s2.807-1.515,3.693-2.793c2.259-3.26-.252-8.993-2.949-11.2-1.335-1.093-3.024-1.91-3.778-3.462-1.068-2.2.194-4.747.489-7.171a9.122,9.122,0,0,0-3.909-8.5c-1.677-1.117-3.973-1.987-4.262-3.981-.271-1.862,1.479-3.434,1.706-5.3.231-1.91-1.2-3.659-2.844-4.655s-3.551-1.492-5.223-2.443c-3.442-1.959-3.635-5.129-5.873-7.8-1.837-2.2-5.436-3.018-8.159-2.7a3.7,3.7,0,0,0-3.114,2.114,4.913,4.913,0,0,0-1.142,2.145c-.246,1.5.543,3.4-.869,4.547-2.145,1.736-5.433-.6-5.317,3.284a16.6,16.6,0,0,0,.723,4.839c.586,1.631,1.757,2.339.783,4.166-1.261,2.369-2.086,2.356-4.613,2.351-1.83,0-3.357-.1-4.7,1.286-2.359,2.439-.957,4.648,1.138,6.529,2.382,2.137,1.118,3.073.808,5.845-.148,1.332.155,1.743-1.038,2.628-2.254,1.672-3.513,1.109-2.88,4.387.579,2.992-.313,1.966-2.906,3.082-2.3.989-3.818,3.465-5.681,5.011-1.2.991-3.023,1.76-3.135,3.5-.214,3.336,3.933,2.606,5.906,3.4,3.223,1.3,2.263,5.528-.253,7.11-2.664,1.675-6.549,2.294-6.763,6.116-.164,2.931,1.5,3.579,3.775,4.56,1.814.783,1.584,1.011,1.581,3.177-.006,4.372,1.469,5.608,5.776,4.9,1.181-.2,2.98-.7,4.157-.341,1.648.5,1.091.9,1.137,2.279.118,3.528,4.225,2.535,5.965,1.023C268.477,181.293,271,179.274,273.714,179.008Z"/><path class="f" d="M306.569,171.567c1.966-.64,4.268-.138,6.211-.594a23.414,23.414,0,0,0-3.481-.549,9.864,9.864,0,0,0-7.51,2.98,6.765,6.765,0,0,1,1.51,4.507c-2.679.727-5.295-.885-7.595-2.038-1.167-.584-2.222-1.26-3.556-.944a4.744,4.744,0,0,0-3.088,2.527c-.624,1.339-.627,2.888-2.386,3.282a3.742,3.742,0,0,1-3.549-1.706c-.84-1.1-1.353-2.43-2.2-3.53A7.47,7.47,0,0,0,271,174.057c-1.26.912-2.837,2.3-4.1,1.383-1.351-.978-.53-3.636-2.022-4.38-.991-.494-2.386.29-3.216-.443a2.246,2.246,0,0,1-.569-1.218c-.59-2.493-1.105-5.379.465-7.4,1.4-1.8,4.356-2.913,4.038-5.173-.273-1.931-2.728-2.515-4.665-2.74s-4.388-1.14-4.292-3.088c.094-1.911,2.685-2.833,3.067-4.708.163-.8-.11-1.693.258-2.425.551-1.1,2.128-1.145,3.05-1.96,1.657-1.465.372-4.209.842-6.37.332-1.531,1.569-2.729,1.979-4.241.821-3.018-1.924-5.889-4.8-7.119a17.749,17.749,0,0,1-3.271-1.514c-.036-.025-.068-.054-.1-.079.07,1.365,1.083,2.632,2.358,3.777,2.382,2.137,1.118,3.073.809,5.845-.149,1.332.154,1.743-1.039,2.628-2.254,1.672-3.513,1.109-2.88,4.387.579,2.992-.313,1.966-2.906,3.082-2.3.989-3.818,3.465-5.681,5.011-1.2.991-3.023,1.76-3.135,3.5-.214,3.336,3.933,2.606,5.906,3.4,3.223,1.3,2.263,5.528-.253,7.11-2.664,1.675-6.549,2.294-6.763,6.116-.164,2.931,1.5,3.579,3.775,4.56,1.814.783,1.584,1.011,1.581,3.177-.006,4.372,1.469,5.608,5.776,4.9,1.181-.2,2.98-.7,4.157-.341,1.648.5,1.091.9,1.137,2.279.118,3.528,4.225,2.535,5.965,1.023,2-1.741,4.522-3.76,7.24-4.026a5.852,5.852,0,0,1,3.175.573,32.492,32.492,0,0,1,5.177,3.665,10.462,10.462,0,0,0,5.742,2.48c2.117.07,4.4-1.248,4.786-3.332a3.025,3.025,0,0,1,.271-1.06,1.546,1.546,0,0,1,1.808-.467,9.687,9.687,0,0,1,1.744,1.006c2.143,1.265,4.826.978,7.289.62,2.048-.3,4.632-1.2,4.624-3.272,0-1.349-1.183-2.347-2.111-3.327s-1.685-2.552-.835-3.6A2.475,2.475,0,0,1,306.569,171.567Z"/><path d="M267,143.018l11.757,23.309V155.6l1.195-45.685,1.739,45.685v7.215l12.92-22.589-12.92,27.729V238a.728.728,0,0,1-.43.6,2.292,2.292,0,0,1-2.075,0,.728.728,0,0,1-.429-.6v-65.73Z"/><path class="b" d="M254.8,445.429l-55.922-32.286,12.525-7.231a2.408,2.408,0,0,0,0-4.54l-15.436-8.912a8.815,8.815,0,0,0-7.864,0l-12.525,7.231-14.852-8.575a8.8,8.8,0,0,0-7.864,0l-19.078,11.012a2.41,2.41,0,0,0,0,4.541l14.854,8.576L102.762,441.73a2.409,2.409,0,0,0,0,4.539l15.436,8.912a19.024,19.024,0,0,0,8.155,2.523l98.447,6.558a18.262,18.262,0,0,0,4.513-.167,12.216,12.216,0,0,0,3.5-1.43L254.8,449.97a2.41,2.41,0,0,0,0-4.541Zm-103.4-4.876,21.263-12.275,26.793,15.469Zm187.215-79.17q-5.979-3.781-12.818-7.735t-13.1-7.231a93.392,93.392,0,0,0-18.06-6.978,79.745,79.745,0,0,0-20.313-2.817,86.9,86.9,0,0,0-21.625,2.564,83.413,83.413,0,0,0-21.992,9q-10.923,6.3-15.583,12.7t-4.441,12.485a19.31,19.31,0,0,0,4.88,11.728,52.281,52.281,0,0,0,12.084,10.428q5.679,3.615,12.524,7.565t13.4,7.4a93.233,93.233,0,0,0,18.061,6.976,79.545,79.545,0,0,0,20.314,2.817,87.09,87.09,0,0,0,21.625-2.563,83.384,83.384,0,0,0,21.99-9q10.923-6.3,15.584-12.7t4.441-12.485a19.384,19.384,0,0,0-4.88-11.728A52.392,52.392,0,0,0,338.618,361.383Zm-20.39,28.924a17.582,17.582,0,0,1-5.97,4.961,30.157,30.157,0,0,1-8.592,3.446,28.616,28.616,0,0,1-8.228.632,34.3,34.3,0,0,1-7.939-1.556,46.531,46.531,0,0,1-7.717-3.28,272.961,272.961,0,0,1-24.466-14.125,33.276,33.276,0,0,1-5.753-4.414,8.754,8.754,0,0,1-2.692-4.582,6.411,6.411,0,0,1,1.165-4.792,17.538,17.538,0,0,1,5.97-4.961,29.369,29.369,0,0,1,16.893-4.119,30.637,30.637,0,0,1,7.936,1.554,51.338,51.338,0,0,1,7.645,3.321q12.957,6.811,24.466,14.126a40.064,40.064,0,0,1,5.608,4.5,9.388,9.388,0,0,1,2.767,4.541A6.1,6.1,0,0,1,318.228,390.307ZM459.568,327.2l-55.921-32.286,12.524-7.231a2.408,2.408,0,0,0,0-4.54l-15.436-8.912a8.811,8.811,0,0,0-7.864,0l-12.524,7.23-14.852-8.575a8.8,8.8,0,0,0-7.864,0L338.552,283.9a2.409,2.409,0,0,0,0,4.54l14.855,8.576L307.531,323.5a2.409,2.409,0,0,0,0,4.54l15.436,8.912a19.043,19.043,0,0,0,8.155,2.523l98.446,6.557a18.321,18.321,0,0,0,4.513-.166,12.239,12.239,0,0,0,3.5-1.431l21.989-12.695a2.41,2.41,0,0,0,0-4.541Zm-103.4-4.876,21.263-12.275,26.793,15.47Z"/><path class="d" d="M168.159,321.847a2.335,2.335,0,0,0-.471-.353c-.64-.358-14.194-8.189-14.194-8.189V246.031a4.612,4.612,0,0,0-1.115-3.439,2.31,2.31,0,0,0-.451-.343c-.645-.373-15.018-8.668-15.165-8.756a2.1,2.1,0,0,0-2.229.139l-21.086,12.175a9.72,9.72,0,0,0-2.865,2.406,20.21,20.21,0,0,0-2.3,4.448L66.524,357.829a28.342,28.342,0,0,0-1.815,10.294v22.79a4.588,4.588,0,0,0,1.116,3.44,2.339,2.339,0,0,0,.473.358c.639.359,15.011,8.666,15.167,8.756a2.088,2.088,0,0,0,2.2-.155l28.8-16.631v4.393a4.6,4.6,0,0,0,1.115,3.44,2.366,2.366,0,0,0,.452.346l15.183,8.765a2.093,2.093,0,0,0,2.21-.152l18.293-10.564a7.082,7.082,0,0,0,2.655-3.25,11.016,11.016,0,0,0,1.115-4.733V363l12.01-6.935a7.081,7.081,0,0,0,2.655-3.253,11,11,0,0,0,1.116-4.729v-22.79A4.623,4.623,0,0,0,168.159,321.847Z"/><path class="du" d="M125.671,256.962l-.075.262a21.505,21.505,0,0,0-2.131,4.207L81.716,366.6a23.74,23.74,0,0,0-1.234,4.319l-15.294-8.825A26.657,26.657,0,0,1,66.4,357.83l41.749-105.168a19.553,19.553,0,0,1,2.319-4.449s0-.019.018-.019Z"/><path class="dv" d="M81.286,403.356c-1.721-.991-14.378-8.3-15-8.638a2.686,2.686,0,0,1-.467-.373A4.56,4.56,0,0,1,64.7,390.9V368.132a30.9,30.9,0,0,1,.6-5.983l15.182,8.769a29.366,29.366,0,0,0-.58,5.983v22.791a4.612,4.612,0,0,0,1.1,3.421A3.063,3.063,0,0,0,81.286,403.356Z"/><polygon class="dv" points="128.363 303.554 128.363 343.116 115.575 335.731 128.363 303.554"/><polygon class="dw" points="128.363 343.116 107.966 354.876 115.575 335.731 128.363 343.116"/><path class="dv" d="M128.775,403.281c.093.075.168.15.261.225-1.7-.972-14.4-8.3-14.994-8.638a1.645,1.645,0,0,1-.449-.355,4.588,4.588,0,0,1-1.122-3.44v-4.394l15.182-8.769v21.931A4.585,4.585,0,0,0,128.775,403.281Z"/><path class="du" d="M167.514,321.409a2.133,2.133,0,0,0-2,.243l-12.023,6.937V313.314S165.85,320.437,167.514,321.409Z"/><path class="dx" d="M151.828,242.192a2.138,2.138,0,0,0-2.113.206l-21.071,12.171a9.991,9.991,0,0,0-2.86,2.393L110.6,248.194a9.869,9.869,0,0,1,2.842-2.393l21.089-12.172a2.065,2.065,0,0,1,2.225-.131C136.908,233.573,150.407,241.37,151.828,242.192Z"/><path class="d" d="M131.43,403.473a2.024,2.024,0,0,1-2.654-.19,4.594,4.594,0,0,1-1.116-3.44V377.911l-43.993,25.4a2.02,2.02,0,0,1-2.653-.19,4.584,4.584,0,0,1-1.116-3.439V376.892A28.354,28.354,0,0,1,81.713,366.6L123.47,261.431a20.23,20.23,0,0,1,2.3-4.448,9.735,9.735,0,0,1,2.865-2.407L149.723,242.4a2.033,2.033,0,0,1,2.655.19,4.612,4.612,0,0,1,1.116,3.439V328.6l12.01-6.935a2.034,2.034,0,0,1,2.655.186,4.623,4.623,0,0,1,1.115,3.444v22.79a11,11,0,0,1-1.115,4.729,7.081,7.081,0,0,1-2.655,3.253L153.494,363v21.928a11.018,11.018,0,0,1-1.116,4.733,7.076,7.076,0,0,1-2.655,3.25Zm-3.074-60.366V303.549L107.967,354.88Z"/><path class="dy" d="M131.43,403.473a2.024,2.024,0,0,1-2.654-.19,4.594,4.594,0,0,1-1.116-3.44V377.911l-43.993,25.4a2.02,2.02,0,0,1-2.653-.19,4.584,4.584,0,0,1-1.116-3.439V376.892A28.354,28.354,0,0,1,81.713,366.6L123.47,261.431a20.23,20.23,0,0,1,2.3-4.448,9.735,9.735,0,0,1,2.865-2.407L149.723,242.4a2.033,2.033,0,0,1,2.655.19,4.612,4.612,0,0,1,1.116,3.439V328.6l12.01-6.935a2.034,2.034,0,0,1,2.655.186,4.623,4.623,0,0,1,1.115,3.444v22.79a11,11,0,0,1-1.115,4.729,7.081,7.081,0,0,1-2.655,3.253L153.494,363v21.928a11.018,11.018,0,0,1-1.116,4.733,7.076,7.076,0,0,1-2.655,3.25Zm-3.074-60.366V303.549L107.967,354.88Z"/><path class="d" d="M266.055,231.355a94.291,94.291,0,0,0-2.865-20.6q-2.444-9.23-7.4-14.325a17.987,17.987,0,0,0-3.812-3c-2.534-1.481-13.827-7.976-15.214-8.783a18.843,18.843,0,0,0-8.661-2.457q-7.543-.372-18.018,5.671A66.285,66.285,0,0,0,192.07,203a89.322,89.322,0,0,0-12.5,19.9,104.374,104.374,0,0,0-7.4,22.871,146.054,146.054,0,0,0-2.867,23.907q-.279,9.411-.277,19.515t.277,18.758a94.07,94.07,0,0,0,2.867,20.6q2.438,9.235,7.4,14.326a18.015,18.015,0,0,0,3.782,2.986c2.541,1.494,13.985,8.092,15.453,8.921a18.842,18.842,0,0,0,8.452,2.332q7.544.374,18.016-5.671a66.291,66.291,0,0,0,18.017-15.132,89.151,89.151,0,0,0,12.5-19.9,104.6,104.6,0,0,0,7.4-22.87,146.336,146.336,0,0,0,2.865-23.908q.273-8.971.277-19.08T266.055,231.355ZM210.87,307.769a65.352,65.352,0,0,1-.538-7.043q-.7-17.868,0-36.122a74.636,74.636,0,0,1,.977-10.455,47.293,47.293,0,0,1,2.514-9.3,30.627,30.627,0,0,1,4.47-7.847,23.825,23.825,0,0,1,6.068-5.384q.461,3.185.667,6.963.556,17.527,0,36.122a82.422,82.422,0,0,1-.908,10.415,42.175,42.175,0,0,1-2.514,9.3,31.864,31.864,0,0,1-4.539,7.888A23.822,23.822,0,0,1,210.87,307.769Z"/><path class="du" d="M198.4,354.54c-2.524-1.44-12.676-7.292-15.05-8.676a18.417,18.417,0,0,1-3.777-2.991q-4.963-5.1-7.4-14.322a94.453,94.453,0,0,1-2.86-20.6q-.28-8.665-.281-18.753,0-10.123.281-19.519a146.6,146.6,0,0,1,2.86-23.913,102.927,102.927,0,0,1,4.712-16.359l15.163,8.787a104.542,104.542,0,0,0-4.674,16.341,144.586,144.586,0,0,0-2.88,23.913q-.281,9.395-.28,19.519,0,10.1.28,18.753a93.268,93.268,0,0,0,2.88,20.6c1.607,6.151,4.094,10.938,7.385,14.322A17.936,17.936,0,0,0,198.4,354.54Z"/><path class="dx" d="M251.405,193.114a19.4,19.4,0,0,0-8.114-2.15q-7.543-.364-18.023,5.665a66.468,66.468,0,0,0-18,15.144,89.141,89.141,0,0,0-12.508,19.893c-.5,1.084-.973,2.188-1.44,3.309-.43,1.066-.841,2.132-1.253,3.216h-.018L176.881,229.4c.355-.954.729-1.907,1.122-2.842.505-1.234,1.009-2.449,1.57-3.665a90.351,90.351,0,0,1,12.489-19.911,66.865,66.865,0,0,1,18.024-15.126c6.974-4.038,12.994-5.908,18.024-5.665a18.829,18.829,0,0,1,8.656,2.449C238.074,185.411,248.059,191.151,251.405,193.114Z"/><path class="dv" d="M240.225,283.474a83.549,83.549,0,0,1-.916,10.414,41.879,41.879,0,0,1-2.506,9.292,30.693,30.693,0,0,1-1.739,3.627l-15.181-8.768a33.978,33.978,0,0,0,1.72-3.627,43.005,43.005,0,0,0,2.524-9.293,83.223,83.223,0,0,0,.9-10.414q.561-18.592,0-36.121c-.131-2.524-.355-4.843-.654-6.974,0,0,.393-.28.9-.58,2.785-1.664,5.122-2.3,6.992-2.094a6.219,6.219,0,0,1,4.468,2.693,16.4,16.4,0,0,1,2.45,6.431,72.374,72.374,0,0,1,1.047,9.292Q240.758,264.881,240.225,283.474Z"/><path class="dw" d="M235.064,306.807a29.932,29.932,0,0,1-2.8,4.263,23.865,23.865,0,0,1-6.992,5.964c-2.786,1.627-5.1,2.319-6.974,2.094a6.331,6.331,0,0,1-4.544-2.636,15.3,15.3,0,0,1-2.5-6.394c-.149-.748-.262-1.533-.374-2.337a23.578,23.578,0,0,0,6.189-5.459,30.159,30.159,0,0,0,2.823-4.263Z"/><path class="d" d="M225.275,196.632q10.473-6.048,18.017-5.671a18.073,18.073,0,0,1,12.5,5.47q4.952,5.1,7.4,14.325a94.352,94.352,0,0,1,2.865,20.6q.273,9.093.277,19.194t-.277,19.079a146.446,146.446,0,0,1-2.865,23.908,104.6,104.6,0,0,1-7.4,22.87,89.151,89.151,0,0,1-12.5,19.9,66.291,66.291,0,0,1-18.017,15.132q-10.473,6.048-18.016,5.671a18.024,18.024,0,0,1-12.5-5.47q-4.956-5.088-7.4-14.325a94.072,94.072,0,0,1-2.866-20.6q-.281-8.655-.278-18.759t.278-19.514a146.063,146.063,0,0,1,2.866-23.908,104.436,104.436,0,0,1,7.4-22.87,89.342,89.342,0,0,1,12.5-19.9A66.286,66.286,0,0,1,225.275,196.632Zm14.942,86.84q.556-18.6,0-36.122a71.623,71.623,0,0,0-1.046-9.287,16.412,16.412,0,0,0-2.445-6.437,6.148,6.148,0,0,0-4.469-2.688q-2.794-.322-6.982,2.1A24.125,24.125,0,0,0,218.293,237a30.569,30.569,0,0,0-4.47,7.847,47.155,47.155,0,0,0-2.514,9.3,74.486,74.486,0,0,0-.977,10.455q-.7,18.251,0,36.122a59.2,59.2,0,0,0,.908,9.367,15.2,15.2,0,0,0,2.514,6.394,6.379,6.379,0,0,0,4.539,2.647q2.793.324,6.982-2.1a24.049,24.049,0,0,0,6.982-5.967,31.92,31.92,0,0,0,4.539-7.887,42.2,42.2,0,0,0,2.514-9.3A82.579,82.579,0,0,0,240.217,283.472Z"/><path class="dy" d="M225.275,196.632q10.473-6.048,18.017-5.671a18.073,18.073,0,0,1,12.5,5.47q4.952,5.1,7.4,14.325a94.352,94.352,0,0,1,2.865,20.6q.273,9.093.277,19.194t-.277,19.079a146.446,146.446,0,0,1-2.865,23.908,104.6,104.6,0,0,1-7.4,22.87,89.151,89.151,0,0,1-12.5,19.9,66.291,66.291,0,0,1-18.017,15.132q-10.473,6.048-18.016,5.671a18.024,18.024,0,0,1-12.5-5.47q-4.956-5.088-7.4-14.325a94.072,94.072,0,0,1-2.866-20.6q-.281-8.655-.278-18.759t.278-19.514a146.063,146.063,0,0,1,2.866-23.908,104.436,104.436,0,0,1,7.4-22.87,89.342,89.342,0,0,1,12.5-19.9A66.286,66.286,0,0,1,225.275,196.632Zm14.942,86.84q.556-18.6,0-36.122a71.623,71.623,0,0,0-1.046-9.287,16.412,16.412,0,0,0-2.445-6.437,6.148,6.148,0,0,0-4.469-2.688q-2.794-.322-6.982,2.1A24.125,24.125,0,0,0,218.293,237a30.569,30.569,0,0,0-4.47,7.847,47.155,47.155,0,0,0-2.514,9.3,74.486,74.486,0,0,0-.977,10.455q-.7,18.251,0,36.122a59.2,59.2,0,0,0,.908,9.367,15.2,15.2,0,0,0,2.514,6.394,6.379,6.379,0,0,0,4.539,2.647q2.793.324,6.982-2.1a24.049,24.049,0,0,0,6.982-5.967,31.92,31.92,0,0,0,4.539-7.887,42.2,42.2,0,0,0,2.514-9.3A82.579,82.579,0,0,0,240.217,283.472Z"/><path class="d" d="M373.213,203.459a2.335,2.335,0,0,0-.471-.353c-.64-.358-14.194-8.189-14.194-8.189V127.644a4.613,4.613,0,0,0-1.116-3.44,2.345,2.345,0,0,0-.45-.343c-.645-.373-15.018-8.668-15.165-8.756a2.1,2.1,0,0,0-2.229.139L318.5,127.419a9.72,9.72,0,0,0-2.865,2.406,20.2,20.2,0,0,0-2.3,4.448L271.578,239.441a28.342,28.342,0,0,0-1.815,10.294v22.79a4.59,4.59,0,0,0,1.115,3.44,2.373,2.373,0,0,0,.474.358c.639.359,15.011,8.666,15.166,8.756a2.09,2.09,0,0,0,2.2-.155l28.8-16.63v4.392a4.6,4.6,0,0,0,1.115,3.44,2.335,2.335,0,0,0,.452.346c.643.372,15.029,8.676,15.183,8.766a2.1,2.1,0,0,0,2.21-.153l18.293-10.564a7.075,7.075,0,0,0,2.654-3.25,11.018,11.018,0,0,0,1.116-4.733V244.61l12.01-6.934a7.089,7.089,0,0,0,2.655-3.254,11,11,0,0,0,1.116-4.729V206.9A4.625,4.625,0,0,0,373.213,203.459Z"/><path class="du" d="M330.725,138.575l-.075.261a21.449,21.449,0,0,0-2.131,4.207L286.77,248.211a23.763,23.763,0,0,0-1.234,4.319l-15.294-8.825a26.657,26.657,0,0,1,1.215-4.263l41.749-105.168a19.553,19.553,0,0,1,2.319-4.449s0-.019.018-.019Z"/><path class="dv" d="M286.34,284.968c-1.721-.991-14.378-8.3-14.995-8.637a2.787,2.787,0,0,1-.468-.374,4.558,4.558,0,0,1-1.121-3.44V249.744a30.9,30.9,0,0,1,.6-5.983l15.182,8.769a29.366,29.366,0,0,0-.58,5.983V281.3a4.612,4.612,0,0,0,1.1,3.421A2.916,2.916,0,0,0,286.34,284.968Z"/><polygon class="dv" points="333.417 185.166 333.417 224.728 320.629 217.343 333.417 185.166"/><polygon class="dw" points="333.417 224.728 313.019 236.488 320.629 217.343 333.417 224.728"/><path class="dv" d="M333.829,284.894c.093.074.168.149.261.224-1.7-.972-14.4-8.3-14.994-8.638a1.627,1.627,0,0,1-.449-.355,4.588,4.588,0,0,1-1.122-3.44v-4.394l15.182-8.769v21.931A4.589,4.589,0,0,0,333.829,284.894Z"/><path class="du" d="M372.568,203.022a2.131,2.131,0,0,0-2,.243L358.545,210.2V194.926S370.9,202.049,372.568,203.022Z"/><path class="dx" d="M356.882,123.8a2.141,2.141,0,0,0-2.113.206L333.7,136.181a10,10,0,0,0-2.861,2.394l-15.181-8.769a9.885,9.885,0,0,1,2.842-2.393l21.089-12.172a2.065,2.065,0,0,1,2.225-.131C341.962,115.185,355.461,122.982,356.882,123.8Z"/><path class="d" d="M336.484,285.085a2.021,2.021,0,0,1-2.654-.19,4.594,4.594,0,0,1-1.116-3.44V259.523l-43.993,25.4a2.02,2.02,0,0,1-2.653-.19,4.584,4.584,0,0,1-1.116-3.439v-22.79a28.356,28.356,0,0,1,1.815-10.294l41.757-105.168a20.23,20.23,0,0,1,2.3-4.448,9.723,9.723,0,0,1,2.865-2.407l21.086-12.174a2.033,2.033,0,0,1,2.655.19,4.613,4.613,0,0,1,1.116,3.44v82.564l12.01-6.935a2.034,2.034,0,0,1,2.655.186,4.625,4.625,0,0,1,1.115,3.444v22.79a11,11,0,0,1-1.115,4.729,7.089,7.089,0,0,1-2.655,3.254l-12.01,6.934v21.928a11.018,11.018,0,0,1-1.116,4.733,7.076,7.076,0,0,1-2.655,3.25Zm-3.074-60.366V185.161l-20.389,51.331Z"/><path class="dy" d="M336.484,285.085a2.021,2.021,0,0,1-2.654-.19,4.594,4.594,0,0,1-1.116-3.44V259.523l-43.993,25.4a2.02,2.02,0,0,1-2.653-.19,4.584,4.584,0,0,1-1.116-3.439v-22.79a28.356,28.356,0,0,1,1.815-10.294l41.757-105.168a20.23,20.23,0,0,1,2.3-4.448,9.723,9.723,0,0,1,2.865-2.407l21.086-12.174a2.033,2.033,0,0,1,2.655.19,4.613,4.613,0,0,1,1.116,3.44v82.564l12.01-6.935a2.034,2.034,0,0,1,2.655.186,4.625,4.625,0,0,1,1.115,3.444v22.79a11,11,0,0,1-1.115,4.729,7.089,7.089,0,0,1-2.655,3.254l-12.01,6.934v21.928a11.018,11.018,0,0,1-1.116,4.733,7.076,7.076,0,0,1-2.655,3.25Zm-3.074-60.366V185.161l-20.389,51.331Z"/><path class="d" d="M405.748,347.5c1.032,9.467,6.864,20.1,6.864,20.1l-2.265-.51C405.094,354.989,405.748,347.5,405.748,347.5Z"/><path class="du" d="M405.748,347.5c1.032,9.467,6.864,20.1,6.864,20.1l-2.265-.51C405.094,354.989,405.748,347.5,405.748,347.5Z"/><path class="du" d="M411.415,367.248c.018.033.031.061.048.093l-1.116-.251c-5.253-12.1-4.6-19.591-4.6-19.591C405.589,352.291,408.931,362.686,411.415,367.248Z"/><path class="d" d="M412.611,367.6a59.856,59.856,0,0,1-.85-16.26c.878-7.922,3.75-12.234,3.75-12.234s-4.03,3.6-5.539,12.291a50.384,50.384,0,0,0-.331,15.534Z"/><path class="f" d="M412.611,367.6a59.856,59.856,0,0,1-.85-16.26c.878-7.922,3.75-12.234,3.75-12.234s-4.03,3.6-5.539,12.291a50.384,50.384,0,0,0-.331,15.534Z"/><path class="dt" d="M411.051,367.248h0l-1.409-.317a50.363,50.363,0,0,1,.33-15.534c1.509-8.689,5.539-12.291,5.539-12.291C411.851,343.477,408.759,355.032,411.051,367.248Z"/><path class="d" d="M412.611,367.6s-.728-7.069,5.8-15.184a24.2,24.2,0,0,0-8.068,14.673Z"/><path class="dt" d="M411.415,367.248c0,.029,0,.053-.007.081l-1.061-.239a24.2,24.2,0,0,1,8.068-14.674C415.266,355.829,411.766,361.061,411.415,367.248Z"/><path d="M391.788,370.779s-6.015-6.352-5.343-13.721c0,0,.286,6.189,6.318,11.551a30.593,30.593,0,0,1-1.929-10.536c-.065-6.6,1.579-10.437,3.092-12.049-1.708,3.482-2.128,7.788-1.718,12.487a22.489,22.489,0,0,0,5.106,12.563Z"/><polygon class="f" points="382.022 387.867 389.835 390.088 392.421 394.466 403.267 394.958 407.699 391.633 411.897 393.143 416.775 393.41 416.165 396.579 424.378 397.8 427.071 395.588 432.228 394.376 438.689 386.379 434.37 383.791 430.841 383.09 427.678 377.737 418.012 374.781 410.014 370.823 385.735 376.012 375.913 382.987 382.022 387.867"/><path class="b" d="M371.341,380.564c-.077-.079-.152-.16-.226-.243a.911.911,0,0,1-.279-.524c-.019-.321.273-.568.552-.727a4.4,4.4,0,0,1,1.746-.554c.346-.034.822-.162.777-.508a.651.651,0,0,0-.1-.234,5.047,5.047,0,0,1-.631-3.177,1.071,1.071,0,0,1,.543-.927,1.127,1.127,0,0,1,.612,0,14.863,14.863,0,0,1,2.384.7,11.571,11.571,0,0,1-.084-4.571,2.049,2.049,0,0,1,.857-1.537c.743-.386,1.612.153,2.272.668l1.387,1.081a10.485,10.485,0,0,1,1.72-2.987,1.348,1.348,0,0,1,1.01-.625c.577.028.874.689,1.042,1.242l.651,2.151a8.045,8.045,0,0,1,3.135-1.39,1.536,1.536,0,0,1,1.242.136,1.62,1.62,0,0,1,.444.668,8.145,8.145,0,0,1,.763,2.07,3.26,3.26,0,0,1,4.279,1.115,4.079,4.079,0,0,1-.461,4.6,5.657,5.657,0,0,1-4.388,1.89,1.879,1.879,0,0,1,.515,2.181,3.566,3.566,0,0,1-1.649,1.7,6.872,6.872,0,0,1-8.3-1.442c.277.32-2.062,1.3-2.3,1.346A8.237,8.237,0,0,1,371.341,380.564Z"/><polygon class="d" points="400.736 361.027 390.344 368.815 386.988 374.201 394.089 374.818 403.291 378.444 405.305 372.645 400.898 367.267 400.736 361.027"/><polygon class="dv" points="400.736 361.027 390.344 368.815 386.988 374.201 394.089 374.818 403.291 378.444 405.305 372.645 400.898 367.267 400.736 361.027"/><polygon class="d" points="400.736 361.027 407.35 360.886 409.147 367.483 405.305 372.645 400.898 367.267 400.736 361.027"/><polygon class="dz" points="400.736 361.027 407.35 360.886 409.147 367.483 405.305 372.645 400.898 367.267 400.736 361.027"/><polygon class="d" points="417.364 367.483 418.575 372.658 413.719 371.411 408.172 374.712 405.8 378.076 404.179 384.495 402.704 393.457 399.427 386.022 403.291 378.444 407.247 373.415 413.337 370.864 417.364 367.483"/><polygon class="d" points="412.503 387.797 420.177 380.49 416.367 374.565 412.503 387.797"/><g class="dk"><polygon points="417.364 367.483 418.575 372.658 413.719 371.411 408.172 374.712 405.8 378.076 404.179 384.495 402.704 393.457 399.427 386.022 403.291 378.444 407.247 373.415 413.337 370.864 417.364 367.483"/><polygon points="412.503 387.797 420.177 380.49 416.367 374.565 412.503 387.797"/></g><polygon class="d" points="394.672 365.571 391.024 370.367 390.274 372.965 394.188 372.918 403.291 378.444 394.089 374.818 386.988 374.201 390.344 368.815 394.672 365.571"/><polygon class="d" points="407.35 360.886 407.606 367.256 404.16 371.248 405.305 372.645 409.147 367.483 407.35 360.886"/><polygon class="d" points="399.427 386.022 394.361 385.407 383.961 382.862 377.215 378.499 379.324 374.891 383.116 374.015 380.105 375.587 379.787 378.046 383.467 380.522 398.768 384.61 403.291 378.444 399.427 386.022"/><g class="ea"><polygon points="394.672 365.571 391.024 370.367 390.274 372.965 394.188 372.918 403.291 378.444 394.089 374.818 386.988 374.201 390.344 368.815 394.672 365.571"/><polygon points="407.35 360.886 407.606 367.256 404.16 371.248 405.305 372.645 409.147 367.483 407.35 360.886"/><polygon points="399.427 386.022 394.361 385.407 383.961 382.862 377.215 378.499 379.324 374.891 383.116 374.015 380.105 375.587 379.787 378.046 383.467 380.522 398.768 384.61 403.291 378.444 399.427 386.022"/></g><polygon class="d" points="390.344 368.815 383.116 374.015 380.105 375.587 379.787 378.046 383.467 380.522 398.768 384.61 400.047 382.867 394.546 378.445 390.709 379.008 386.988 374.201 390.344 368.815"/><polygon class="dz" points="390.344 368.815 383.116 374.015 380.105 375.587 379.787 378.046 383.467 380.522 398.768 384.61 400.047 382.867 394.546 378.445 390.709 379.008 386.988 374.201 390.344 368.815"/><polygon class="d" points="407.35 360.886 417.364 367.483 413.337 370.864 407.247 373.415 403.291 378.444 405.305 372.645 409.147 367.483 407.35 360.886"/><polygon class="d" points="413.719 371.411 408.172 374.712 405.8 378.076 404.179 384.495 406.299 390.215 412.503 387.797 416.367 374.565 413.719 371.411"/><polygon class="d" points="386.988 374.201 390.709 379.008 394.546 378.445 394.089 374.818 386.988 374.201"/><polygon class="d" points="382.699 386.591 385.95 387.169 387.409 385.297 394.361 385.407 383.961 382.862 382.699 386.591"/><g class="eb"><polygon points="407.35 360.886 417.364 367.483 413.337 370.864 407.247 373.415 403.291 378.444 405.305 372.645 409.147 367.483 407.35 360.886"/><polygon points="413.719 371.411 408.172 374.712 405.8 378.076 404.179 384.495 406.299 390.215 412.503 387.797 416.367 374.565 413.719 371.411"/><polygon points="386.988 374.201 390.709 379.008 394.546 378.445 394.089 374.818 386.988 374.201"/><polygon points="382.699 386.591 385.95 387.169 387.409 385.297 394.361 385.407 383.961 382.862 382.699 386.591"/></g><polygon class="d" points="397.31 385.765 394.361 385.407 391.779 388.877 394.862 392.421 397.31 385.765"/><polygon class="dz" points="397.31 385.765 394.361 385.407 391.779 388.877 394.862 392.421 397.31 385.765"/><polygon class="d" points="418.575 372.658 422.676 377.485 420.177 380.49 416.367 374.565 413.719 371.411 418.575 372.658"/><polygon class="d" points="402.704 393.457 406.299 390.215 404.179 384.495 402.704 393.457"/><polygon class="d" points="403.291 378.444 400.047 382.867 394.546 378.445 394.089 374.818 403.291 378.444"/><polygon class="d" points="377.215 378.499 375.913 382.987 382.699 386.591 383.961 382.862 377.215 378.499"/><polygon class="d" points="402.704 393.457 394.862 392.421 397.31 385.765 399.427 386.022 402.704 393.457"/><polygon class="d" points="385.95 387.169 391.779 388.877 394.361 385.407 387.409 385.297 385.95 387.169"/><g class="ec"><polygon points="418.575 372.658 422.676 377.485 420.177 380.49 416.367 374.565 413.719 371.411 418.575 372.658"/><polygon points="402.704 393.457 406.299 390.215 404.179 384.495 402.704 393.457"/><polygon points="403.291 378.444 400.047 382.867 394.546 378.445 394.089 374.818 403.291 378.444"/><polygon points="377.215 378.499 375.913 382.987 382.699 386.591 383.961 382.862 377.215 378.499"/><polygon points="402.704 393.457 394.862 392.421 397.31 385.765 399.427 386.022 402.704 393.457"/><polygon points="385.95 387.169 391.779 388.877 394.361 385.407 387.409 385.297 385.95 387.169"/></g><polygon class="dz" points="418.575 372.658 417.364 367.483 407.35 360.886 400.736 361.027 390.344 368.815 383.116 374.015 379.324 374.891 377.215 378.499 375.913 382.987 382.699 386.591 385.95 387.169 391.779 388.877 394.862 392.421 402.704 393.457 406.299 390.215 412.503 387.797 420.177 380.49 422.676 377.485 418.575 372.658"/><path class="b" d="M433.613,384.793s7.2-6.967,6.806-15.435c0,0-.638,7.069-7.812,12.9a35.038,35.038,0,0,0,2.738-11.961c.406-7.548-1.281-12.025-2.932-13.947,1.779,4.071,2.043,9.021,1.338,14.378a25.768,25.768,0,0,1-6.477,14.122Z"/><polygon class="d" points="423.151 376.897 417.43 381.185 415.582 384.15 419.492 384.49 424.558 386.486 425.667 383.293 423.24 380.332 423.151 376.897"/><polygon class="dv" points="423.151 376.897 417.43 381.185 415.582 384.15 419.492 384.49 424.558 386.486 425.667 383.293 423.24 380.332 423.151 376.897"/><polygon class="d" points="423.151 376.897 426.792 376.819 427.782 380.451 425.667 383.293 423.24 380.332 423.151 376.897"/><polygon class="dz" points="423.151 376.897 426.792 376.819 427.782 380.451 425.667 383.293 423.24 380.332 423.151 376.897"/><polygon class="d" points="432.306 380.452 432.973 383.301 430.299 382.614 427.245 384.431 425.939 386.283 425.047 389.818 424.234 394.751 422.43 390.658 424.558 386.486 426.736 383.717 430.088 382.313 432.306 380.452"/><polygon class="d" points="429.63 391.636 433.854 387.612 431.757 384.351 429.63 391.636"/><g class="dk"><polygon points="432.306 380.452 432.973 383.301 430.299 382.614 427.245 384.431 425.939 386.283 425.047 389.818 424.234 394.751 422.43 390.658 424.558 386.486 426.736 383.717 430.088 382.313 432.306 380.452"/><polygon points="429.63 391.636 433.854 387.612 431.757 384.351 429.63 391.636"/></g><polygon class="d" points="419.813 379.399 417.804 382.039 417.391 383.469 419.546 383.444 424.558 386.486 419.492 384.49 415.582 384.15 417.43 381.185 419.813 379.399"/><polygon class="d" points="426.792 376.819 426.933 380.327 425.036 382.524 425.667 383.293 427.782 380.451 426.792 376.819"/><polygon class="d" points="422.43 390.658 419.641 390.32 413.916 388.918 410.201 386.516 411.363 384.53 413.45 384.047 411.792 384.913 411.617 386.267 413.644 387.63 422.067 389.881 424.558 386.486 422.43 390.658"/><g class="ea"><polygon points="419.813 379.399 417.804 382.039 417.391 383.469 419.546 383.444 424.558 386.486 419.492 384.49 415.582 384.15 417.43 381.185 419.813 379.399"/><polygon points="426.792 376.819 426.933 380.327 425.036 382.524 425.667 383.293 427.782 380.451 426.792 376.819"/><polygon points="422.43 390.658 419.641 390.32 413.916 388.918 410.201 386.516 411.363 384.53 413.45 384.047 411.792 384.913 411.617 386.267 413.644 387.63 422.067 389.881 424.558 386.486 422.43 390.658"/></g><polygon class="d" points="417.43 381.185 413.45 384.047 411.792 384.913 411.617 386.267 413.644 387.63 422.067 389.881 422.772 388.921 419.743 386.486 417.63 386.796 415.582 384.15 417.43 381.185"/><polygon class="dz" points="417.43 381.185 413.45 384.047 411.792 384.913 411.617 386.267 413.644 387.63 422.067 389.881 422.772 388.921 419.743 386.486 417.63 386.796 415.582 384.15 417.43 381.185"/><polygon class="d" points="426.792 376.819 432.306 380.452 430.088 382.313 426.736 383.717 424.558 386.486 425.667 383.293 427.782 380.451 426.792 376.819"/><polygon class="d" points="430.299 382.614 427.245 384.431 425.939 386.283 425.047 389.818 426.214 392.967 429.63 391.636 431.757 384.351 430.299 382.614"/><polygon class="d" points="415.582 384.15 417.63 386.796 419.743 386.486 419.492 384.49 415.582 384.15"/><polygon class="d" points="413.221 390.971 415.01 391.29 415.814 390.259 419.641 390.32 413.916 388.918 413.221 390.971"/><g class="eb"><polygon points="426.792 376.819 432.306 380.452 430.088 382.313 426.736 383.717 424.558 386.486 425.667 383.293 427.782 380.451 426.792 376.819"/><polygon points="430.299 382.614 427.245 384.431 425.939 386.283 425.047 389.818 426.214 392.967 429.63 391.636 431.757 384.351 430.299 382.614"/><polygon points="415.582 384.15 417.63 386.796 419.743 386.486 419.492 384.49 415.582 384.15"/><polygon points="413.221 390.971 415.01 391.29 415.814 390.259 419.641 390.32 413.916 388.918 413.221 390.971"/></g><polygon class="d" points="421.265 390.517 419.641 390.32 418.22 392.23 419.917 394.181 421.265 390.517"/><polygon class="dz" points="421.265 390.517 419.641 390.32 418.22 392.23 419.917 394.181 421.265 390.517"/><polygon class="d" points="432.973 383.301 435.23 385.958 433.854 387.612 431.757 384.351 430.299 382.614 432.973 383.301"/><polygon class="d" points="424.234 394.751 426.214 392.967 425.047 389.818 424.234 394.751"/><polygon class="d" points="424.558 386.486 422.772 388.921 419.743 386.486 419.492 384.49 424.558 386.486"/><polygon class="d" points="410.201 386.516 409.485 388.987 413.221 390.971 413.916 388.918 410.201 386.516"/><polygon class="d" points="424.234 394.751 419.917 394.181 421.265 390.517 422.43 390.658 424.234 394.751"/><polygon class="d" points="415.01 391.29 418.22 392.23 419.641 390.32 415.814 390.259 415.01 391.29"/><g class="ec"><polygon points="432.973 383.301 435.23 385.958 433.854 387.612 431.757 384.351 430.299 382.614 432.973 383.301"/><polygon points="424.234 394.751 426.214 392.967 425.047 389.818 424.234 394.751"/><polygon points="424.558 386.486 422.772 388.921 419.743 386.486 419.492 384.49 424.558 386.486"/><polygon points="410.201 386.516 409.485 388.987 413.221 390.971 413.916 388.918 410.201 386.516"/><polygon points="424.234 394.751 419.917 394.181 421.265 390.517 422.43 390.658 424.234 394.751"/><polygon points="415.01 391.29 418.22 392.23 419.641 390.32 415.814 390.259 415.01 391.29"/></g><polygon class="f" points="432.973 383.301 432.306 380.452 426.792 376.819 423.151 376.897 417.43 381.185 413.45 384.047 411.363 384.53 410.201 386.516 409.485 388.987 413.221 390.971 415.01 391.29 418.22 392.23 419.917 394.181 424.234 394.751 426.214 392.967 429.63 391.636 433.854 387.612 435.23 385.958 432.973 383.301"/></svg>