<svg version="1.1" id="Layer_1" xmlns="http://www.w3.org/2000/svg" xmlns:xlink="http://www.w3.org/1999/xlink" x="0px" y="0px"
	 width="100%" viewBox="0 0 115 115" enable-background="new 0 0 115 115" xml:space="preserve">
<path fill="#012245" opacity="1.000000" stroke="none" 
	d="
M62.000000,116.000000 
	C41.333332,116.000000 21.166666,116.000000 1.000000,116.000000 
	C1.000000,77.666664 1.000000,39.333332 1.000000,1.000000 
	C39.333332,1.000000 77.666664,1.000000 116.000000,1.000000 
	C116.000000,39.333332 116.000000,77.666664 116.000000,116.000000 
	C98.166664,116.000000 80.333336,116.000000 62.000000,116.000000 
M71.248657,38.887993 
	C66.590866,38.071320 63.533669,40.238972 60.664253,43.748192 
	C58.956150,45.837147 56.101242,46.988388 53.359024,47.992218 
	C52.098568,46.466957 50.796272,44.974060 49.586182,43.409836 
	C46.899250,39.936554 43.770805,37.530018 38.584850,38.687820 
	C37.966625,39.048992 37.348404,39.410164 36.131519,40.153023 
	C32.596622,43.049313 31.914799,46.652370 33.575195,51.366638 
	C34.046204,51.916763 34.517216,52.466885 35.248787,53.407425 
	C35.437752,53.658585 35.651539,53.886448 36.122765,54.733730 
	C41.202290,61.290028 47.593258,66.921333 47.033859,76.645859 
	C46.799610,80.718086 51.953266,83.464462 56.284203,83.151718 
	C60.746124,82.829514 64.869598,79.434753 64.567123,74.779152 
	C64.127327,68.009865 67.221214,63.480244 71.652763,59.170643 
	C73.667458,57.211384 75.423897,54.946087 77.069633,52.655884 
	C81.158844,46.965351 78.878242,40.877838 71.248657,38.887993 
z"/>
<path fill="#3A5AD3" opacity="1.000000" stroke="none" 
	d="
M39.026245,38.748703 
	C43.770805,37.530018 46.899250,39.936554 49.586182,43.409836 
	C50.796272,44.974060 52.098568,46.466957 53.676155,48.584320 
	C54.790009,50.232632 55.586723,51.288841 56.153519,52.604904 
	C51.874008,56.358902 47.349281,57.996948 41.807014,56.177681 
	C39.703651,55.315182 37.796902,54.703102 35.890148,54.091022 
	C35.651539,53.886448 35.437752,53.658585 35.041233,52.950699 
	C34.385925,51.934193 33.938168,51.374416 33.490414,50.814640 
	C31.914799,46.652370 32.596622,43.049313 36.743965,39.902168 
	C37.913021,39.350441 38.469635,39.049572 39.026245,38.748703 
z"/>
<path fill="#2646A2" opacity="1.000000" stroke="none" 
	d="
M36.006454,54.412376 
	C37.796902,54.703102 39.703651,55.315182 41.764988,56.471943 
	C46.264130,62.639877 50.063633,68.332184 49.769356,76.074348 
	C49.717777,77.431412 53.737137,79.915855 56.060074,80.164642 
	C59.625225,80.546463 62.303547,77.700562 61.956810,74.190598 
	C61.229538,66.828491 64.941086,61.962185 69.778664,57.375790 
	C71.219231,56.010017 72.422211,54.383221 73.664749,52.820904 
	C77.671967,47.782337 77.250710,44.805794 72.007202,40.436478 
	C72.001419,39.683422 71.997612,39.252720 71.993805,38.822018 
	C78.878242,40.877838 81.158844,46.965351 77.069633,52.655884 
	C75.423897,54.946087 73.667458,57.211384 71.652763,59.170643 
	C67.221214,63.480244 64.127327,68.009865 64.567123,74.779152 
	C64.869598,79.434753 60.746124,82.829514 56.284203,83.151718 
	C51.953266,83.464462 46.799610,80.718086 47.033859,76.645859 
	C47.593258,66.921333 41.202290,61.290028 36.006454,54.412376 
z"/>
<path fill="#2646A1" opacity="1.000000" stroke="none" 
	d="
M71.621231,38.855003 
	C71.997612,39.252720 72.001419,39.683422 71.605026,40.443844 
	C68.682838,42.003250 65.841881,42.839458 63.718391,44.560764 
	C60.973614,46.785686 58.801907,49.717579 56.383442,52.345055 
	C55.586723,51.288841 54.790009,50.232632 53.877602,48.868813 
	C56.101242,46.988388 58.956150,45.837147 60.664253,43.748192 
	C63.533669,40.238972 66.590866,38.071320 71.621231,38.855003 
z"/>
<path fill="#2646A1" opacity="1.000000" stroke="none" 
	d="
M38.805550,38.718262 
	C38.469635,39.049572 37.913021,39.350441 37.043297,39.711319 
	C37.348404,39.410164 37.966625,39.048992 38.805550,38.718262 
z"/>
<path fill="#2646A2" opacity="1.000000" stroke="none" 
	d="
M33.532806,51.090637 
	C33.938168,51.374416 34.385925,51.934193 34.910950,52.755489 
	C34.517216,52.466885 34.046204,51.916763 33.532806,51.090637 
z"/>
<path fill="#032449" opacity="1.000000" stroke="none" 
	d="
M56.153519,52.604904 
	C58.801907,49.717579 60.973614,46.785686 63.718391,44.560764 
	C65.841881,42.839458 68.682838,42.003250 71.607002,40.766197 
	C77.250710,44.805794 77.671967,47.782337 73.664749,52.820904 
	C72.422211,54.383221 71.219231,56.010017 69.778664,57.375790 
	C64.941086,61.962185 61.229538,66.828491 61.956810,74.190598 
	C62.303547,77.700562 59.625225,80.546463 56.060074,80.164642 
	C53.737137,79.915855 49.717777,77.431412 49.769356,76.074348 
	C50.063633,68.332184 46.264130,62.639877 41.961601,56.722359 
	C47.349281,57.996948 51.874008,56.358902 56.153519,52.604904 
z"/>
</svg>