<svg xmlns="http://www.w3.org/2000/svg" viewBox="0 0 32.207 27.098"><defs><style>.a{fill:none;stroke:#00aeef;stroke-linecap:round;stroke-miterlimit:10;stroke-width:1.5px;}.b{fill:#00aeef;}</style></defs><path class="a" d="M16.1,9.109s-5.291-4.593-7.79-7.065C4.321-1.9-1.852,4.032,1.93,8.176a55.223,55.223,0,0,1,7.434,8.358c3.046,5.7,0,9.711,6.718,9.814"/><path class="a" d="M16.1,9.109s5.3-4.594,7.806-7.06C27.9-1.883,34.061,4.057,30.271,8.193a55.122,55.122,0,0,0-7.451,8.343c-3.057,5.7-.028,9.7-6.738,9.812"/><path class="b" d="M16.757,9.464c-2.185,2.327-8.905,5.051-13.56.322C.828,7.849.015,4.265,1.606,2.092,3.213-.145,6.422-.176,8.774,2.024Z"/></svg>