<svg xmlns="http://www.w3.org/2000/svg" xmlns:xlink="http://www.w3.org/1999/xlink" viewBox="0 0 2958.171 2785.055"><defs><style>.a{isolation:isolate;}.b{fill:#e53fea;}.c{fill:#bb40e0;}.d{fill:#bd3fe0;}.e{fill:#bb4be0;}.f{fill:url(#a);}.g{fill:url(#b);}.h{fill:url(#c);}.ac,.i{fill:#fff;}.i{mix-blend-mode:soft-light;opacity:0.5;}.j{fill:url(#d);}.k{fill:url(#e);}.l{fill:url(#f);}.m{fill:url(#g);}.n{fill:url(#h);}.o{fill:url(#i);}.p{fill:url(#j);}.q{fill:url(#k);}.r{fill:url(#l);}.s{fill:url(#m);}.t{fill:url(#n);}.u{fill:url(#o);}.v{fill:#26264f;}.w{fill:url(#p);}.x{fill:url(#q);}.y{fill:url(#r);}.z{fill:url(#s);}.aa{fill:url(#t);}.ab{mix-blend-mode:multiply;opacity:0.3;fill:url(#u);}</style><linearGradient id="a" x1="2093.468" y1="571.676" x2="-2148.066" y2="6476.549" gradientUnits="userSpaceOnUse"><stop offset="0.004" stop-color="#e275e3"/><stop offset="1" stop-color="#8f71f6"/></linearGradient><linearGradient id="b" x1="2396.827" y1="776.599" x2="-1755.661" y2="6557.506" xlink:href="#a"/><linearGradient id="c" x1="1689.822" y1="2375.273" x2="2589.623" y2="2375.273" gradientUnits="userSpaceOnUse"><stop offset="0" stop-color="#a638ff"/><stop offset="1" stop-color="#3a23fb"/></linearGradient><linearGradient id="d" x1="655.362" y1="-68.222" x2="501.131" y2="1927.447" gradientUnits="userSpaceOnUse"><stop offset="0" stop-color="#aa80f9"/><stop offset="0.996" stop-color="#6165d7"/></linearGradient><linearGradient id="e" x1="1326.098" y1="2509.547" x2="1373.684" y2="2551.875" gradientTransform="matrix(-0.99, -0.14, -0.14, 0.99, 2251.705, 149.893)" gradientUnits="userSpaceOnUse"><stop offset="0" stop-color="#444b8c"/><stop offset="0.996" stop-color="#26264f"/></linearGradient><linearGradient id="f" x1="446.671" y1="2551.939" x2="446.671" y2="2469.04" gradientTransform="matrix(-0.99, -0.14, -0.14, 0.99, 1335.504, 20.377)" gradientUnits="userSpaceOnUse"><stop offset="0" stop-color="#ffc444"/><stop offset="0.996" stop-color="#f36f56"/></linearGradient><linearGradient id="g" x1="1330.882" y1="2504.17" x2="1378.468" y2="2546.497" xlink:href="#e"/><linearGradient id="h" x1="1284.205" y1="2475.504" x2="1331.794" y2="2517.834" gradientTransform="matrix(-1, 0, 0, 1, 2208.284, 0)" xlink:href="#e"/><linearGradient id="i" x1="404.735" y1="2517.918" x2="404.735" y2="2435.016" gradientTransform="matrix(-1, 0, 0, 1, 1282.974, 0)" xlink:href="#f"/><linearGradient id="j" x1="197.778" y1="2555.935" x2="-112.53" y2="1303.07" gradientTransform="translate(684.367)" xlink:href="#e"/><linearGradient id="k" x1="-90.684" y1="-39.574" x2="-213.134" y2="1544.862" gradientTransform="translate(974.681)" xlink:href="#d"/><linearGradient id="l" x1="1288.99" y1="2470.127" x2="1336.577" y2="2512.456" gradientTransform="matrix(-1, 0, 0, 1, 2208.284, 0)" xlink:href="#e"/><linearGradient id="m" x1="329.353" y1="578.386" x2="263.907" y2="684.254" gradientTransform="matrix(-0.972, -0.236, -0.236, 0.972, 1192.29, 538.966)" xlink:href="#f"/><linearGradient id="n" x1="-239.192" y1="970.272" x2="-177.092" y2="1530.366" gradientTransform="translate(974.681)" xlink:href="#f"/><linearGradient id="o" x1="-241.771" y1="970.558" x2="-179.671" y2="1530.652" gradientTransform="translate(974.681)" xlink:href="#f"/><linearGradient id="p" x1="-235.98" y1="969.916" x2="-173.88" y2="1530.01" gradientTransform="translate(974.681)" xlink:href="#f"/><linearGradient id="q" x1="1008.196" y1="74.535" x2="1067.011" y2="124.607" gradientTransform="matrix(0.907, -0.422, 0.422, 0.907, -229.612, 1293.259)" xlink:href="#f"/><linearGradient id="r" x1="24.463" y1="-30.676" x2="-97.987" y2="1553.765" gradientTransform="translate(974.681)" xlink:href="#d"/><linearGradient id="s" x1="-369.168" y1="17.481" x2="10.842" y2="628.438" gradientTransform="translate(863.949)" gradientUnits="userSpaceOnUse"><stop offset="0" stop-color="#311944"/><stop offset="1" stop-color="#893976"/></linearGradient><linearGradient id="t" x1="-385.543" y1="7.13" x2="-6.356" y2="616.762" gradientTransform="translate(863.949)" gradientUnits="userSpaceOnUse"><stop offset="0" stop-color="#ff9085"/><stop offset="1" stop-color="#fb6fbb"/></linearGradient><linearGradient id="u" x1="-624.457" y1="153.409" x2="-280.954" y2="705.672" xlink:href="#t"/></defs><g class="a"><path class="b" d="M2816.308,769.739c22.759-207.29-20.9-374.42-106.116-502.285C2506.516-38.17,2009.416-4.916,1736.2,7.739c-406.481,18.828-951.73,44.083-1338.626,460.6-522.47,562.471-524.936,1589.525-37.176,2047.441,149.885,140.715,652.942,305.558,1666,262.222,298.981-12.789,558.778,11.9,818.906-461.371C3104.946,1844.226,2739.905,1465.626,2816.308,769.739Z"/><path class="c" d="M1099.818,1907.109l335.462-654.078c28.438-55.448,1.353-96-65.488-107.32L1294.734,1133c-96.919-16.408-132.926-63.048-102.19-119.458l54.334-74.129,114.865,3.345-17.937,45.981c-11.659,29.891,11.992,53.39,64.7,61.342l70.532,10.642c112.86,17.027,169.171,80.682,135.385,173.357l-152.744,612.352Z"/><polygon class="c" points="1298.501 904.969 1175.084 956.229 1421.919 948.065 1298.501 904.969"/><path class="d" d="M1041.546,2184.269l1125.167-693.955c88.628-49.176,193.409-68.634,273.981-55.125l89.564,15.017c114.245,19.155,228.462-1.449,300.085-47.971l100.077-55.808-119.827-38.951-63.062,33.364c-42.042,22.242-103.286,29.976-161.987,18.859l-79.159-14.991c-128.141-24.268-319.338-37.655-480.864,34.675L710.591,2068.722Z"/><polygon class="e" points="2731.255 1296.086 2904.46 1281.973 2958.171 1374.177 2731.255 1296.086"/><polygon class="f" points="935.79 2692.782 33.607 2692.782 2505.882 528.074 2647.945 546.299 935.79 2692.782"/><polygon class="g" points="2394.686 542.279 2639.514 477.91 2706.791 582.382 2394.686 542.279"/><path class="h" d="M2445.966,2535.449c-37,22.036-75.466,41.443-113.809,60.943,39.532-12.959,206.772-74.683,209.526,14.961a59.27,59.27,0,0,1-.406,9.234c-7.857,64.292-122.01,63.166-166.645,63.134-54.463-.063-107.924.782-161.605-2.441-6.2-.376-12.364-.783-18.561-1.284q-10.705-.846-21.473-1.972-13.38-1.36-26.824-3.223l-4.163-2.347c-6.855,1.063-13.647,2.034-20.44,2.91q-9.906,1.361-19.719,2.442c-17.4,1.939-34.619,3.348-51.739,4.131a699.789,699.789,0,0,1-179.541-13.96c-41.787-8.7-83.7-22.818-117.941-49.08-30.2-23.225-86.515-96.625-51.928-136.471a48.971,48.971,0,0,1,7.731-7.2c44.228-33.43,122.7,33.146,156.41,56.873,8.2,5.76,42.1,36.778,53.618,33.023,10.516-3.413-2.692-16.591-7.575-22.6-36.747-44.917-90.177-73.025-126.423-118.6-31.02-39-63.478-122.228-17.56-163.483a47.267,47.267,0,0,1,15.65-9.641c54.807-19.625,117.19,94.278,135.563,126.831,20.784,36.81,37.624,77,61.788,111.806,9.484,13.647,22.379,30.737,33.147,10.3,12.395-23.507,3.068-65.387-1.439-89.583-7.607-40.941-21.88-80-37.437-118.5-25.165-62.446-57.78-136.212,5.541-187.451,16.089-13.052,38.5-23.722,62.476-30.884h.032c48.64-14.323,103.792-6.926,126.078,40.086,17.591,37.029,8.232,83.4.345,121.614-9.673,46.888-23.633,93.282-28.265,141.078-2.567,26.794-5.509,67.2,13.679,89.522,12.9,15.056,26.417,10.691,34.868-5.9,13.554-26.668,9.641-64.314,10.424-93.111,1.095-40.628,2.942-82.691,19.249-120.533,17.779-41.318,80.944-96.654,131.338-82.444,10.2,2.848,19.876,8.546,28.546,17.811,51.677,55.152-45.636,175.159-72.868,221.077-18.5,31.238-44.259,67.766-50.487,104.418-3.663,21.442,5.664,24.1,22.1,11.864,28.859-21.5,50.457-55.684,72.806-83.353,28.765-35.59,58.751-72.024,96.531-98.472,37.4-26.136,108.77-42.632,134-1.159,5.009,8.264,8.2,18.813,8.921,32.021C2593.737,2444.491,2502.245,2501.958,2445.966,2535.449Z"/><path class="i" d="M2349.936,2163.63q-6.245,7.6-13.866,15.619c-79.285,83.448-81.382,135.626-114.78,273.348-21.566,89.019-38.813,175.44-48.3,225.427q-13.38-1.36-26.824-3.223l-4.163-2.347c-6.855,1.063-13.647,2.034-20.44,2.91,3.036-30.331.063-81.006-44.258-114.248-66.765-50.081-37.561-154.437-20.847-217.038,16.683-62.6,0-100.466-35.495-165.132-19.719-35.965-.094-76.985,21.222-105.631h.032c48.64-14.323,103.792-6.926,126.078,40.086,17.591,37.029,8.232,83.4.345,121.614-9.673,46.888-23.633,93.282-28.265,141.078-2.567,26.794-5.509,67.2,13.679,89.522,12.9,15.056,26.417,10.691,34.868-5.9,13.554-26.668,9.641-64.314,10.424-93.111,1.095-40.628,2.942-82.691,19.249-120.533C2236.377,2204.754,2299.542,2149.42,2349.936,2163.63Z"/><path class="i" d="M2445.966,2535.449c-37,22.036-75.466,41.443-113.809,60.943,39.532-12.959,206.772-74.683,209.526,14.961a59.27,59.27,0,0,1-.406,9.234c-18.155,1.721-37.405.033-52.617-9.922-40.691-26.605-44.6,9.391-83.729,21.911s-107.2-4.7-143.983,21.91a231.991,231.991,0,0,1-47.921,26.794c-6.2-.376-12.364-.783-18.561-1.284,7.042-22.724,30.706-85.545,83.166-112.62,64.7-33.4,100.162-43.82,121.039-112.682,18.248-60.221,92.368-115.656,181.887-118.88,5.009,8.264,8.2,18.813,8.921,32.021C2593.737,2444.491,2502.245,2501.958,2445.966,2535.449Z"/><path class="i" d="M2101.847,2677.806c-17.4,1.939-34.619,3.348-51.739,4.131-2.661-12.27,16.839-28.452-37.28-39.971-88.362-18.78-138.881,16.37-172.873-67.3-25.573-62.915-88.831-103.824-139.257-92.244a48.971,48.971,0,0,1,7.731-7.2c44.228-33.43,122.7,33.146,156.41,56.873,8.2,5.76,42.1,36.778,53.618,33.023,10.516-3.413-2.692-16.591-7.575-22.6-36.747-44.917-90.177-73.025-126.423-118.6-31.02-39-63.478-122.228-17.56-163.483a47.267,47.267,0,0,1,15.65-9.641c-2.254,39.534,3.663,105.266,58.971,143.89,82.946,57.906,97.032,106.422,100.162,137.723C1944.592,2561.648,2074.615,2585.437,2101.847,2677.806Z"/><path class="j" d="M613.454,1121.942s-216.188,85.963-191.324,225.2S595.559,1613.194,634.1,1580.87c31.08-55.945,29.888-43.512,9.039-78.322S519.1,1370.766,634.72,1316.065,613.454,1121.942,613.454,1121.942Z"/><path class="k" d="M573.885,2470.723c-1.354-7.46-25.445-14.213-37.374-4.221-5.923,4.961-10,15.019-6.574,19.561,1.246,1.652-3.86,4.558,1.032,4.615C547.2,2490.868,575.232,2478.136,573.885,2470.723Z"/><path class="l" d="M548.634,2473.437l-24.776-3.5c11.479-13.82,9.353-57.831,9.353-57.831l26.35,5.881s-3,12.081-8.11,29.9C549.7,2453.985,548.922,2463.532,548.634,2473.437Z"/><path class="m" d="M550.832,2470.386s-29.83-6.873-33.056-.957-5.732,21.76,13.193,21.249S552.513,2475.4,550.832,2470.386Z"/><path class="n" d="M913.845,2498.7c-2.385-7.2-27.184-10.511-37.6,1.052-5.169,5.741-7.8,16.27-3.771,20.287,1.465,1.463-3.183,5.055,1.668,4.427C890.239,2522.378,916.216,2505.846,913.845,2498.7Z"/><path class="o" d="M889.222,2504.918H864.2c9.431-15.29,1.166-58.571,1.166-58.571l26.913,2.136s-1.281,12.381-3.844,30.74C887.558,2485.508,888.12,2495.07,889.222,2504.918Z"/><path class="p" d="M954.072,1558.663a1158.076,1158.076,0,0,1,38.8,177.571c30.394,221.089-34.206,228.142-22.143,473.138,3.851,78.2-67.75,258.532-74.062,262.514a77.822,77.822,0,0,1-9.9.389,98.753,98.753,0,0,1-25.219-4.2c-11.342-1.954-52.236-112.717-42.757-178.571,6.708-46.61,4.763-96.631.875-196.676-.63-16.21-42.105-315.381-42.105-315.381h0c-12.616,110.736-27.125,204.827-39.7,277.777-40.413,234.375-171.811,376.235-178.665,378.51-1.354.544-13.683,5.023-23.764-1.621a16.388,16.388,0,0,1-6.013-6.773c-3.515-2.753,1.036-234,41.114-408.029C628.7,1764.7,603.37,1705.6,621.8,1592.766,637.747,1495.138,954.072,1558.663,954.072,1558.663Z"/><path class="q" d="M969.636,1596.806c-34.9,17.981-124.9,50.04-232.1,34.122A362.536,362.536,0,0,1,621.819,1592.8c27.775-84.212,5.957-129.3-4.34-170.875-14.638-59.22-14.918-54.768-27-101.8-19.927-77.644-23.21-157.015-9.518-173.211,28.553-33.841,74.752-42.47,110.262-45.084,10.463-.78,19.981-1.057,27.884-1.28,19.76-.612,52.71-4.455,86.718-2.226,32.395,2.226,65.734,9.963,89.555,31.447.837.723-9.184,6.123-4.229,11.855a324.5,324.5,0,0,1,34.51,49.536c10.352,18.424,19.646,39.853,29.053,71.8A615.834,615.834,0,0,1,977.6,1388.2C986.557,1505.694,977.651,1559.962,969.636,1596.806Z"/><path class="r" d="M890.971,2501.589s-30.5-2.63-32.864,3.681-2.629,22.347,16.037,19.192S893.338,2506.321,890.971,2501.589Z"/><path class="s" d="M744.474,1045.379c-5.472-3.275-9.641,3.766-7.064,9.918s11.24,10,16.5,6.335S751.838,1049.786,744.474,1045.379Z"/><path class="t" d="M812.341,1106.949c0,10.632-27.607,19.258-61.725,19.258-34.064,0-61.671-8.626-61.671-19.258a7.517,7.517,0,0,1,2.283-5.12c10.463-.78,19.981-1.057,27.884-1.28,19.76-.612,52.71-4.455,86.718-2.226C810,1100.937,812.341,1103.889,812.341,1106.949Z"/><path class="u" d="M767.2,1098.708q-5.352-12.048-10.706-24.1c3.123-3.069,23.555-18.355,23.134-35.662-.573-23.494-19.251-41.432-22.915-45.029-15.344-15.063-18.611-16.759-24.244-18.456l-7.727-2.011s-.424-.036-.861-.055c-4.627-.2-18.966,3.727-21.656,5.228-8.592,4.786-6.879,45.254,12.177,97.356q.358,3.2.771,6.444c1.712,13.454,4,26.308,6.71,38.538C721.878,1120.963,757.052,1122.466,767.2,1098.708Z"/><path class="v" d="M747.851,965.394c4.985,16.424-6.042,23.483-9.116,27.508a28.566,28.566,0,0,0-3.949,8.317,8.71,8.71,0,0,0-.34,2.225c-.419,11.443,19.758,18.563,18.007,24.167-1.271,4.065-13.823,3-14.261,6.313-.414,3.114,10.607,5.915,10.189,9.62-.315,2.8-6.723,2.294-9.166,7.182-1.218,2.434-.232,3.765-.368,10.106a54.413,54.413,0,0,1-1.046,9.95c-2.713,11.375-17.692,19.826-21.966,16.92-1.19-.811-.729-1.94-2.715-5.276a30.084,30.084,0,0,0-5.352-6.241c-5.017-4.5-14.248-5.985-24.13-9.327-18.3-6.189-25.2-14.136-27.373-16.868-.774-.974-1.3-1.726-1.681-2.269-7.61-10.9-13.083-28.655-11-41.249,3.489-21.1,26.7-18.719,37.952-42.015,6.271-12.986,10.046-26.594,25.145-31.933,11.751-4.155,22.59.046,29.605,10.024A86.076,86.076,0,0,1,747.851,965.394Z"/><path class="w" d="M745.37,1025.566c-5.719-4.29-11.191,3.072-9.036,10.233s11.364,12.468,17.65,8.992S753.066,1031.341,745.37,1025.566Z"/><path class="x" d="M797.893,940.48l-25.415-15.666s-23.554-10.683-49.359,6.289-14.751,29.266-14.751,29.266l18.984-8.573s12.228-5.614,31.169,2.773c21.846,6.343,37.066,4.765,37.066,4.765Z"/><path class="y" d="M916.752,918.35c-53.855-18.115-104.087-14.344-129.906-10.782-5.011,6.294-12.1,17.1-12.738,30.752-2.772,59.449,121.2,79.879,124.5,135.069,2.2,36.805-52.069,42.187-81.791,121.783-14.262,38.2-8.376,54.659,1.172,64.056,15.116,14.876,42.668,15.246,51.05,15.357,72.806.973,182.768-71.266,192.365-168.193C1069.437,1025.264,1005.054,948.05,916.752,918.35Z"/><path class="z" d="M1192.676,188.1V593.3c0,59.018-48.892,105.925-109.82,104.585l-229.265-4.958-30.635-.65L713.084,823.655c-8.367,6.339-28.33,6.392-34.987-1.741l-16.166-21.587L577.158,686.946l-7.947-.194L349.8,682.037c-23.844-.537-44.188-9.335-61.163-23.767-22.5-19-35.226-47.683-34.783-79.456l5.339-383.408c.767-55.082,44.328-100.342,99.345-101.1l46.5-.672,679.973-9.3a107.88,107.88,0,0,1,45.352,9.2C1167.666,109.8,1192.676,145.787,1192.676,188.1Z"/><path class="aa" d="M1176.786,177.056l-.1,404.233c-.014,58.88-50.589,105.64-111.229,104.381L848.45,681.3l-43.218-.893L695.753,805.582a19.462,19.462,0,0,1-29.784-.482l-3.977-4.772L569.235,686.752l-9.273-11.345L333.48,670.791A95.9,95.9,0,0,1,288,658.259c-31.616-17.491-51.945-51.637-51.395-90.4l5.426-382.575c.78-55,44.813-100.188,99.677-100.984l53.415-.788,670.626-9.974c24.518-.365,48.161,7.169,66.4,20.09C1158.632,112.327,1176.794,142.657,1176.786,177.056Z"/><path class="ab" d="M854.017,692.932l-30.847-.653L713.192,823.657c-8.367,6.338-28.384,6.39-35.041-1.743l-16.193-21.587-92.74-113.575L349.8,682.037A97.575,97.575,0,0,1,288,658.259c-31.617-17.491-51.943-51.637-51.393-90.4l5.426-382.575c.78-55,44.813-100.188,99.677-100.984l53.415-.788c3.314,3.231,6.321,6.556,9.405,10.107,35.171,39.558,59.639,96.669,54.152,179.3C442.376,520.09,609.761,564.231,758.99,613.759c45.875,15.246,73.121,40.28,88.946,67.534C850.174,685.121,852.167,689,854.017,692.932Z"/><path class="ac" d="M628.467,459.532l.043-22.781q.056-29.583,12.329-51.482,12.328-21.987,45.351-47.067,32.127-23.742,42.577-38.716a57.549,57.549,0,0,0,10.512-33.337q.093-20.577-14.717-31-14.754-10.378-41.051-9.692-45.442,1.173-102.345,32.853l-31.837-66.549c43.608-27.234,90.621-41.995,141.149-43.969,42.3-1.653,76.316,7.565,101.721,27.787q38.4,30.564,38.118,83.73-.236,35.34-16.331,61.134c-10.671,17.11-30.746,36.295-60.02,57.438Q724.127,400.2,716.3,411.71q-7.857,11.524-7.924,30.259l-.071,18.724ZM618.8,564.186q.043-25.685,13.4-38.506,13.42-12.873,39.224-12.273,25.074.6,38.916,14.615,13.853,14.067,13.755,39.611-.1,24.574-14.207,38.156-14.04,13.524-38.771,12.479-25.167-1.05-38.773-15.223Q618.748,588.92,618.8,564.186Z"/></g></svg>