<svg xmlns="http://www.w3.org/2000/svg" viewBox="0 0 849.89 310.07"><defs><style>.a{fill:#fbebdb;}.b{fill:#efcbac;}.c{fill:#c6916d;}.d{fill:#ddb492;}.e{fill:#e0b594;}.f{fill:#d39e7a;}.g{fill:#f4a36a;}.h{fill:#fab17e;}.i{fill:#183660;}.j{fill:#2e3b65;}.k{fill:#486ba5;}.l{fill:#395c8f;}.m{fill:#fdccaa;}.n{fill:#b6473d;}.o{fill:#eaf2fb;}.p{fill:#9c2d26;}.q{fill:#35498c;}.r{fill:#c48e6a;}.s{fill:#f9ddbf;}.t{fill:#599dad;}.u{fill:#87d0cd;}.v{fill:#6db7c0;}.w{fill:#ec7e2a;}.x{fill:#f89748;}.y{fill:#fab077;}.z{fill:#db6b27;}.aa{fill:#2b4f97;}.ab{fill:#243962;}.ac{fill:#2e3652;}</style></defs><path class="a" d="M773.047,309.52s73.032-120.878,4.947-189.588c-87.817-88.624-204.866-16.9-247.447-19.065s-50.133-51.784-172-89.7C265.585-17.76,115.205,3.939,149.672,142.869,175.877,248.5,16.067,192.536,47.108,309.226Z"/><path class="b" d="M383.927,263.874c4.212,26.99,31.754,44.178,60,44.178h55.953l-4.376-157.313s-53.387-17.136-66.794-.835c-11.748,14.28-43.6,70.807-45.28,104.265A47.311,47.311,0,0,0,383.927,263.874Z"/><path class="c" d="M532.459,167.4s-75.48-38.527-89.777-13.36C435.09,167.4,414.2,220.71,412.658,254.168c-1.5,32.507,26.665,53.883,55.637,53.883H519.75Z"/><path class="b" d="M518.267,188.765c.637,3.274,6.748,6.313,15.817,9q2.4.711,5.056,1.39c30.866,7.883,85.537,12.284,90.748,9.96,7.2-3.213,51.4-160.241,51.4-160.241S639.1,47.29,605.592,46.517c-11.461-.261-21.9-.428-29.3-.407a18.17,18.17,0,0,0-2.542.177A12.063,12.063,0,0,0,566.3,50.1c-5.395,5.8-6.732,17.247-11.726,29.9-4.938,12.514-11,28.131-16.747,43.631-1.481,3.994-2.943,7.98-4.358,11.906q-.6,1.662-1.189,3.305C523.782,162.619,517.24,183.461,518.267,188.765Z"/><path class="d" d="M383.927,263.874c4.212,26.99,31.788,44.538,60.038,44.538l27.705-.015C453.367,295.991,436.525,257.415,383.927,263.874Z"/><path class="e" d="M587.778,46.108a22.217,22.217,0,0,0,9.8,9.751c22.889,12.048,5.909,36.878,5.909,36.878-.163.111-9.083,17.84-9.083,17.84.03-1.239-1.171-3.455-3.23-6.276-1.517,10.6-3.987,21.421-6.939,29.17.759,3.84,2.077,8.564,3.489,13.461.129.445.26.894.389,1.345,1.486,5.115,3.028,10.343,4.11,14.893,1.779,7.436,2.329,13.041-.608,13.315a6.092,6.092,0,0,1-1.09,0,15.138,15.138,0,0,1-1.786,8.156c-3.753,7.254-16.861,10.618-31.451,12.084-21.109,2.13-22.469,1.859-30.766-1.58-10.065-4.2-9.661-6.312-6.168-19.586,1.331-5.04,3.3-11.413,4.808-16,2.418-7.425,4.7-13.944,7.11-20.709,1.4-.23,3.212-.528,5.266-.876a4.772,4.772,0,0,0,.967-1.317c.674-1.484.421-5.241-.212-9.828-.141-1.027-.3-2.095-.475-3.19.179-.484.361-.969.54-1.453q.777-2.09,1.56-4.174.472-1.265.948-2.526c3.766-10.01,6.884-18.054,10.566-27.5,10.84-27.682,10.151-39.964,22.316-41.7Z"/><path class="f" d="M427.987,283.88c10.8,15.007,27.369,24.625,45.823,24.327l79.336.04,38.011.019L548.392,167.418s-108.244-10.77-121.591,3.591c-6.2,6.667-9.677,36.859-11.626,67.294A70.308,70.308,0,0,0,427.987,283.88Z"/><path class="c" d="M427.987,284.038c10.8,15.007,27.315,24.665,45.77,24.368h79.389c-9.335-7.838-38.7-30.075-70.134-29.023C459.182,280.18,440.259,279.839,427.987,284.038Z"/><path class="g" d="M463.633,142.016c1.2-.513,10.461,1.171,13.113,1.669,8.4-1.644,35.981-7.157,37.324-8.884,1.585-2.038,5.044-64.133,9.006-65.168,0,0,7.794-4.733,15.329,4.245s-5.355,73.162-16.521,76.46c-12.4,3.662-48.232-.587-48.232-.587h0c-2.943,1-8.088,1.57-10.82,2.481-3.605,1.2-6.81.2-7.611-1.2S462.231,142.617,463.633,142.016Z"/><path class="h" d="M430.431,283.052c.35,3.787-4.922,4.708-11.029,5.012s-4.261,1.555-12.63,3.07-11.722-.774-12.328-1.905c-.539-1,3.352-2.572,7.5-4.345.522-.221,1.044-.45,1.567-.678,4.666-2.052,7.285-6.237,10.923-10.117,3.447-3.676,6.719-15.444,6.719-15.444l11.372-2.429s-3.193,10.592-4.3,15.114c-.652,2.659.31,5.632,1.165,7.9A14.919,14.919,0,0,1,430.431,283.052Z"/><path class="i" d="M419.4,288.064c-6.107.3-4.261,1.555-12.63,3.07s-11.722-.774-12.328-1.905c-.539-1,3.352-2.572,7.5-4.345l.065.071a23.827,23.827,0,0,0,12.676.151c5.536-1.5,10.889-4.812,14.7-5.881a14.919,14.919,0,0,1,1.045,3.827C430.781,286.839,425.509,287.76,419.4,288.064Z"/><path class="j" d="M543.677,148.2s-75.569-5.687-89.8,3.292S416.838,265.05,416.838,265.05a9.273,9.273,0,0,0,4.553,1.469c2.925.317,9.367-1.4,9.367-1.4s32.792-46.794,35.1-58.583,1.746-22.308,7.006-22.59,70.823,7.971,80.74-9.5,1.718-34.766,1.718-34.766Z"/><path class="h" d="M459.348,295.19c.349,3.787-4.923,4.707-11.03,5.012s-4.261,1.554-12.63,3.07-11.722-.774-12.328-1.9c-.539-1,3.352-2.572,7.5-4.345.522-.221,1.044-.45,1.567-.678,4.667-2.052,7.285-6.238,10.924-10.118,3.446-3.676,6.718-15.443,6.718-15.443l11.372-2.429s-3.193,10.591-4.3,15.113c-.651,2.66.31,5.633,1.164,7.9A14.872,14.872,0,0,1,459.348,295.19Z"/><path class="i" d="M448.318,300.2c-6.107.3-4.261,1.554-12.63,3.07s-11.722-.774-12.328-1.9c-.539-1,3.352-2.572,7.5-4.345l.065.07a23.833,23.833,0,0,0,12.676.152c5.536-1.5,10.888-4.812,14.7-5.881a14.872,14.872,0,0,1,1.047,3.827C459.7,298.977,454.425,299.9,448.318,300.2Z"/><path class="j" d="M527.013,33.32c0-.055,0-.116,0-.171v-.005q.046-1.9.177-3.777v0a81.576,81.576,0,0,1,1.441-10.82v0c.391-1.9.843-3.67,1.345-5.272.078-.244.156-.487.234-.721,1.219-3.649,2.711-6.316,4.343-7.394a17.4,17.4,0,0,1,9.281-2.427,4.4,4.4,0,0,0-2.044-.807c1.592-.346,5.291,1.009,5.291,1.009,21.812-10.119,27.527,22.609,27.568,30.3.025,4.166.191,8.662,2.187,12.881.035.073.071.149.109.222,1.705,3.487,4.691,6.778,9.911,9.526,22.892,12.048,5.91,36.878,5.91,36.878C592.6,92.85,576.8,112.6,576.8,112.6c.038-1.537,1.1-5.692-1.936-9.515-2.44-3.081-1.668-7.566-5.291-11.316-.321-.33-.646-.666-.974-1-.931-.954-1.89-1.915-2.867-2.876-3.348-3.3-6.911-6.626-10.454-9.733q-.994-.87-1.983-1.718c-1.108-.944-2.208-1.865-3.293-2.751l-.083-.067c-.291-.238-.581-.472-.868-.7-.8-.646-1.6-1.274-2.385-1.879q-1.427-1.1-2.8-2.09c-.391-.285-.78-.562-1.161-.83-1.135-.8-2.228-1.529-3.267-2.18-.341-.212-.671-.414-1-.608-.076-.048-.149-.091-.225-.134h0c-.223-.134-.444-.26-.662-.384a29.98,29.98,0,0,0-2.564-2.3c.042.087.085.176.127.259.129.247.252.48.376.694-.177-.142-.348-.288-.518-.439-.2-.177-.388-.361-.577-.55a15.386,15.386,0,0,1-1.184-1.353c-.169-.214-.333-.439-.494-.666q-.337-.477-.651-.991a25.848,25.848,0,0,1-2.3-4.9,52.2,52.2,0,0,1-2.6-13.666C527,38.4,526.952,35.851,527.013,33.32Z"/><path class="h" d="M561.3,57.6a75.532,75.532,0,0,0-12.5,0,40.189,40.189,0,0,0-10.85,2.722c-5.917,2.474-5.3,12.949,7.119,11.009S562.17,60.706,561.3,57.6Z"/><path class="h" d="M538.471,65.239c-.072.038-1.771,9.011,6.358,8.652,5.336-.235,16.845-6.692,15.829-11.261-.483-2.172-4.516-7.807-5.327-20.669l-.971.26L538.026,46.6s.724,5.184,1.062,10.09C539.375,60.812,539.385,64.736,538.471,65.239Z"/><path class="g" d="M538.026,46.6s.724,5.184,1.062,10.09c9.245-.878,13.578-9.654,15.272-14.471Z"/><path class="j" d="M555.949,40.305s4.343-7.993,5.07-14.629c.52-4.737-3.022-21.933-20.295-18.271a23.744,23.744,0,0,0-9.578,4.37c-3.616,2.81-8.713,8.695-1.593,23.432l1.928,5.01Z"/><path class="h" d="M527.8,37.164c1.577,7.1,4.237,14.256,7.443,14.292,0,0,1.143-.056,2.9-.307,5.931-.851,18.836-3.91,18.146-14.446-.575-8.756.138-15.735-2.987-19.583-1.743-2.152-4.687-3.324-9.724-3.279-14.044.124-16.422,5.513-17.233,10.142C525.987,26.02,526.559,31.575,527.8,37.164Z"/><path class="j" d="M533.572,14.172s7.068,15.615,16.434,17.369,13.2-.98,13.2-.98-2.577-10.567-4.7-20.264C558.505,10.3,537.59,6.248,533.572,14.172Z"/><path class="j" d="M535.146,15.373s-4.243,3.874-5.1,7.423-.933,10.888-3.035,10.784c0,0-4.688-11.826-.019-18.322C531.94,8.369,535.146,15.373,535.146,15.373Z"/><path class="k" d="M516.251,144.642c1.8-1.152,4.068-2.332,6.127-3.529,2.516-1.465,4.725-2.958,5.409-4.457.532-1.169.488-3.75.135-7.038-.456-4.284-1.436-9.769-2.341-14.9-1.053-5.987-2-11.494-1.9-14.061.253-6.451,2.406-16.134,2.406-16.134-8.829-1.7-8.6-5.262-8.6-5.262,1.11-2.8,6.708-13.08,8.916-15.458s11.551-3.473,11.551-3.473-2.378,8.741,7.857,8.741S561.3,57.6,561.3,57.6h0c4.709-.264,20.821-.412,21,13.4.218,17.144-7.262,50.092-9.366,58.639.718,7.731,5.969,22.6,8.575,33.533,1.778,7.434,2.327,13.04-.608,13.316-7.573.716-33.412-14.978-41.32-19.621-3.482-2.045-9.88-.631-14.539-1.4a19.862,19.862,0,0,1-11.745-6.127C512.056,147.854,513.684,146.279,516.251,144.642Z"/><path class="l" d="M512.32,143.267c.592.3,5.159,1.964,5.841,2.238,35.029,14.08,53.43-60.843,53.43-60.843s-28.042,14.88-46.3,30.262c.345,5.31.428,8.487.884,12.772a16.133,16.133,0,0,1-.626,7.264c-.685,1.5-2.893,2.991-5.409,4.456C518.078,140.614,514.123,142.115,512.32,143.267Z"/><path class="m" d="M476.642,113.5s-.685-.626-.278-1.05,1.107.129,1.052-.534,1.16-.976,1.51-1.271a2.791,2.791,0,0,0,.59-1.289.351.351,0,0,1,0-.148s.828-.9,1.141-.645,1.53,1.714,2.239.774.358-1.068.6-1.51.552-.553,1.123-.166a2.085,2.085,0,0,0,2.082-.332c.258-.331,2.413-.4,2.413-.4l.147.092.17.092s-.023,1.8.806,1.1,1.069-1.123,1.419-1.289,1.308-1.474,2.247-.626,3.445-.442,3.518-.682,1.805-.976,2.377,0,.994,1.326,2.32.829,1.769-1.179,2.119-.424.737,1.548,1.989.811l1.253-.737s2.671-.737,2.689.645,2.1,2.837,3.187,1.252-.663-2.689,1.326-2.781,1.905-.074,2.261-.976,2.878.037,2.639.976.663.092,1.1.774,3.353.442,3.463,1.694,2.524-.955,3.445,1.006,3.463,2.439,3.592,1.426,3.739.258,2.1,3.684S476.642,113.5,476.642,113.5Z"/><path class="g" d="M486.724,110.365s1.769.492,1.916.2.27-1.734,1.769-1,1.989.732,2.333.192,2.087.8,2.014.9-2.111.17-2.2.274c-.774.934-.259.885-1.609.983s-.786-1.621-1.719-.933S486.724,110.365,486.724,110.365Z"/><path class="g" d="M498.219,113.878s-.3-1.72.761-2.088,1.2-.417,1.2-.417a.313.313,0,0,0,.369-.418,1.347,1.347,0,0,0-.2-.59s.2-.736,1.179,0,.467,1.769,1.228,1.13-.491-1.547,1.5-.859,2.333.687,2.038,1.179,1.891,1.007,2.137.564-.221.434.2-.421-.895-1-.791-1.568.226-1.906,1.012-.83.934,2.255,1.867,1.395,2.5-.639,2.186.221-.909,1.646,1.473,1.031,1.793,1.941,1.793,1.941Z"/><path class="g" d="M521.993,108.352s.147,1.753.933,1.208,2.358.265,1.941.953-1.646,1.473-2.333.467a1.269,1.269,0,0,0-1.892-.271c-.319.172-.073-1.793,0-1.817S521.6,110.118,521.993,108.352Z"/><path class="n" d="M520.069,164.105h4.4a1.968,1.968,0,0,0,1.95-1.7l6.714-47.768h-8.1Z"/><polygon class="o" points="513.955 164.105 520.069 164.105 525.038 114.641 516.941 114.641 513.955 164.105"/><polygon class="n" points="507.841 164.105 513.955 164.105 516.941 114.641 508.843 114.641 507.841 164.105"/><polygon class="o" points="501.658 164.105 507.772 164.105 508.752 114.641 500.655 114.641 501.658 164.105"/><polygon class="n" points="495.544 164.105 501.658 164.105 500.655 114.641 492.558 114.641 495.544 164.105"/><polygon class="o" points="489.43 164.105 495.544 164.105 492.558 114.641 484.461 114.641 489.43 164.105"/><path class="n" d="M485.028,164.105h4.4l-4.969-49.464h-8.1l6.714,47.768A1.968,1.968,0,0,0,485.028,164.105Z"/><path class="p" d="M475.86,116.468h57.471A1.571,1.571,0,0,0,534.9,114.9h0a1.572,1.572,0,0,0-1.572-1.572H475.86a1.572,1.572,0,0,0-1.572,1.572h0A1.571,1.571,0,0,0,475.86,116.468Z"/><path class="q" d="M558.478,152.879s-67.131,3.178-81,12.7-32.6,114.919-32.6,114.919a9.28,9.28,0,0,0,4.607,1.29c2.936.2,9.306-1.767,9.306-1.767s30.945-48.034,32.794-59.9.876-22.359,6.121-22.845,71.079,5.208,80.308-12.636S558.478,152.879,558.478,152.879Z"/><path class="b" d="M493.733,265.286c4.537,26.176,29.435,42.766,54.957,42.766h51.456L596.12,150.739S547.026,133.6,534.7,149.9c-10.8,14.28-40.1,70.807-41.642,104.265A50.934,50.934,0,0,0,493.733,265.286Z"/><path class="d" d="M493.733,265.639c4.537,26.177,29.435,42.767,54.957,42.767h41.176C570.592,295.342,544.641,259.246,493.733,265.639Z"/><path class="r" d="M664.538,308.406c21.306-.144,38.033-6.792,48.866-25.137,7.892-13.331,11.4-30.8,13.162-46.181,1.014-8.844,1.63-18.635,1.867-29.44q.2-9.41.03-19.85-.271-16.7-1.488-36.157c-1.131-18.238-2.86-38.362-5.143-60.509-2.082-20.229-4.487-34.37-7.981-37.592-5.155-4.751-15.9-6.664-23.386-7.429h-.02c-7.339-.77-12.418-1.158-18.231,2.435a23.5,23.5,0,0,0-9.965,13.361c-5.97,19.851-16.631,55.344-27.726,92.467-.058.184-.114.371-.169.557q-.954,3.2-1.915,6.412-.095.326-.2.651c-.03.108-.066.219-.066.219a.3.3,0,0,1-.223.023c-.535-.24-1.183-.531-1.752-.78a.478.478,0,0,0-.068-.032c-15.573-6.9-37.706-15.19-54.721-16.232h0c-8.822-.54-18.751.716-23.1,8.445-9.377,16.568-28.593,69.5-30.022,100.422-1.425,30.829,23.746,51.817,51.216,53.878,1.635.117,3.047.469,4.42.469Z"/><path class="s" d="M656.041,168.609s26.41-107.595,28.317-116.637a6.826,6.826,0,0,1,6.1-5.862c-4.642-.475-8.019-.511-8.019-.511-9.138,0-17.259,6.54-20.192,16.261-6.4,21.2-18.355,60.56-30.285,100.382Z"/><path class="t" d="M712.98,224.227s-13.506-15.757-.833-25.766c0,0,9.258-5.605,16.806-5.149,0,0-8.224,13.3-4.764,15.08s8.006-16.2,8.006-16.2,21.066-2.043,27.843,1.215c0,0-18.009,14.737-14.217,15.615s23.245-13.588,23.245-13.588,19.607,3.337,18.562,15.3-7.8,15.654-10.771,15.336-20.339-6.948-20.717-4.515,10.077,10.384,17.4,10.756c0,0-13.823,15.244-23.01,10.845s-9.972-11.374-15.7-13.99-8.652-1.159-6.287,1.509,10.764,3.81,14.04,9.6,6.213,9.7-3.292,8.27-24.955-8.385-25.634-16.349Z"/><path class="t" d="M777.994,211.049S724.741,209,712.98,224.227a38.516,38.516,0,0,1-10.6,14.883l-1.248,3.4s9.228-9.729,12.53-10.318C713.658,232.191,708.494,213.323,777.994,211.049Z"/><path class="t" d="M702.376,239.11s-11.431,8.453-12.224,23.557l2.074.186s3.651-15.618,10.249-21.725S702.376,239.11,702.376,239.11Z"/><path class="u" d="M665.757,204.41s21.486-12.031,11.459-28.36c0,0-8.021-10.026-16.615-12.6,0,0,4.583,24.349,0,24.923s-1.792-26.347-1.792-26.347-23.99-12.04-32.871-11.181c0,0,14.037,23.777,9.454,23.2s-20.34-24.636-20.34-24.636-23.2-4.3-26.928,9.453,2.292,20.626,5.73,21.486,25.5.572,24.923,3.437-15.47,7.448-23.777,4.87c0,0,9.167,22.631,21.2,21.485s15.756-8.594,23.2-9.167,12.891,1.432,9.167,3.437-16.328.658-22.344,5.772-10.886,8.265.286,10.557,31.225.86,35.236-7.734Z"/><path class="v" d="M598.724,163.159s60.158,19.48,67.033,41.251a45.708,45.708,0,0,0,5.73,20.913v4.3s-6.3-14.61-9.74-16.615C661.747,213.005,675.211,194.1,598.724,163.159Z"/><path class="v" d="M671.487,225.323s9.277,14.088,3.988,31.237l-2.387-.641s2.317-18.889-2.536-28.389S671.487,225.323,671.487,225.323Z"/><path class="u" d="M699.939,187.817s-28.322-15.86-15.105-37.384c0,0,10.573-13.216,21.9-16.615,0,0-6.042,32.1,0,32.853s4.153-36.251,4.153-36.251,29.832-14.35,41.538-13.217c0,0-18.5,31.342-12.461,30.587s26.811-32.475,26.811-32.475,30.587-5.664,35.5,12.461-3.021,27.189-7.553,28.321-33.607.756-32.852,4.532,20.391,9.818,31.342,6.419c0,0-12.084,29.832-27.944,28.322S744.5,184.041,734.68,183.286s-16.993,1.888-12.084,4.531,21.524.866,29.454,7.608,14.349,10.9-.378,13.916-41.16,1.134-46.447-10.2Z"/><path class="v" d="M788.3,133.44s-79.3,25.678-88.362,54.377c0,0,.377,12.84-7.553,27.566v5.665s8.308-19.259,12.839-21.9C705.225,199.146,687.477,174.223,788.3,133.44Z"/><path class="v" d="M692.386,215.383s-12.229,18.571-5.257,41.177l3.146-.845s-3.054-24.9,3.344-37.422S692.386,215.383,692.386,215.383Z"/><path class="w" d="M754.461,250.105a55.477,55.477,0,1,1-110.953,0Z"/><path class="x" d="M717.944,250.105c0,20.786-4.979,41.954-21.9,51.456-2.813,1.579-12.231-.131-15.319.945a55.5,55.5,0,0,1-37.219-52.4Z"/><path class="y" d="M698.984,305.581c-2.256.283,9.094,0,6.759,0a55.476,55.476,0,0,1-55.474-55.477h13.782C664.051,278.411,671.6,302.188,698.984,305.581Z"/><path class="w" d="M755.227,308.407H642.741a6.845,6.845,0,0,1,6.846-6.846h98.8A6.844,6.844,0,0,1,755.227,308.407Z"/><path class="x" d="M702.523,308.407H642.741a6.845,6.845,0,0,1,6.846-6.846h46.092A6.845,6.845,0,0,1,702.523,308.407Z"/><rect class="z" x="641.683" y="250.105" width="114.04" height="1.702"/><path class="h" d="M577.977,77.713s-28.306,43.658-46.323,42.183c0,0-3.177-.166-1.092-8s31.912-50.3,37.062-50.98S578.906,69.03,577.977,77.713Z"/><path class="k" d="M554.692,71.626s3.337,12.694,20.734,12.15c0,0,11.7-10.513,1.11-21.982S554.692,71.626,554.692,71.626Z"/><path class="h" d="M526.137,53.763s-2.255-12.532-.487-12.914,12.041,2.2,11.559,5.734-3.133,8.931-3.133,8.931c1.08,37.036,13.454,57.522-1.162,64.292-2.089.968-9.592-3.842-9.592-3.842C517.017,108.786,526.137,53.763,526.137,53.763Z"/><path class="g" d="M534.127,43.06s4.892,1.774,1.711,8.353l2.737-.329S539.872,44.583,534.127,43.06Z"/><path class="aa" d="M115.169,218.685H244.342a5.628,5.628,0,0,1,5.621,5.621V257.45a5.627,5.627,0,0,1-5.621,5.621H115.169a5.627,5.627,0,0,1-5.621-5.621V224.306A5.628,5.628,0,0,1,115.169,218.685ZM113.5,257.45a1.673,1.673,0,0,0,1.671,1.671H244.342a1.673,1.673,0,0,0,1.671-1.671V224.306a1.673,1.673,0,0,0-1.671-1.671H115.169a1.673,1.673,0,0,0-1.671,1.671Z"/><rect class="aa" x="55.498" y="81.9" width="280.294" height="159.762"/><rect class="k" x="46.068" y="81.9" width="280.293" height="159.763"/><path class="l" d="M46.068,81.9V241.663H326.362V222.884C181.685,207.209,111.069,121.11,86.044,81.9Z"/><rect class="aa" x="81.293" y="263.071" width="252.817" height="45.321" rx="3.991"/><rect class="ab" x="55.498" y="263.071" width="252.818" height="45.321" rx="3.991"/><rect class="aa" x="119.815" y="149.154" width="124.592" height="44.57"/><polygon class="ab" points="239.041 149.154 241.522 193.724 116.93 193.724 114.287 149.154 239.041 149.154"/><rect class="ab" x="265.585" y="225.94" width="51.921" height="9.319" rx="3.994"/><rect class="ac" y="307.816" width="849.89" height="2.254" rx="1.127" transform="translate(849.89 617.886) rotate(180)"/></svg>